<?xml version="1.0" standalone="no"?>
<!DOCTYPE svg PUBLIC "-//W3C//DTD SVG 1.1//EN" "http://www.w3.org/Graphics/SVG/1.1/DTD/svg11.dtd" >
<svg xmlns="http://www.w3.org/2000/svg">
<metadata></metadata>
<defs>
<font id="intervalbold_slanted" horiz-adv-x="1228" >
<font-face units-per-em="2048" ascent="1536" descent="-512" />
<missing-glyph horiz-adv-x="500" />
<glyph horiz-adv-x="1105" />
<glyph horiz-adv-x="1105" />
<glyph unicode="&#xd;" horiz-adv-x="1105" />
<glyph unicode=" " />
<glyph unicode="!" d="M446 0l64 305h262l-63 -305h-263zM588 463l90 571l98 463h238l-99 -463l-153 -571h-174z" />
<glyph unicode="&#x22;" />
<glyph unicode="#" horiz-adv-x="1249" d="M72 403l39 179h254q24 55 72 158t75 165h-201l39 178h240l198 445h197l-197 -445h263q20 44 92 204.5t106 240.5h201l-197 -445h203l-39 -178h-241q-20 -44 -68.5 -150t-77.5 -173h189l-39 -179h-228q-25 -60 -192 -434h-199l191 434h-263q-25 -60 -192 -434h-199 l191 434h-217zM565 582h264q13 29 63.5 141.5t80.5 181.5h-260z" />
<glyph unicode="$" d="M193 365h196q-21 -100 45 -159t176 -59q96 0 179 58.5t104 156.5q44 204 -172 291q-127 46 -206 100.5t-111.5 113t-38 127t13.5 143.5q17 77 59.5 141.5t100.5 108.5t124.5 72t137.5 40l24 119h197l-25 -119q65 -12 114.5 -42t76.5 -69t43.5 -86.5t15 -95.5t-9.5 -96 h-197q11 52 -1 95.5t-40.5 70.5t-65.5 42t-77 15q-86 0 -164 -51.5t-98 -144.5q-11 -45 -7.5 -85t24.5 -74.5t72 -67t134 -62.5q210 -76 272 -186t21 -300q-13 -64 -48.5 -125t-89.5 -114t-131.5 -91.5t-166.5 -51.5l-25 -119h-196l24 116q-161 24 -239 128t-45 260z" />
<glyph unicode="%" d="M86 -29l1128 1557h222l-1131 -1557h-219zM350 1262q25 110 120.5 188t205.5 78q109 0 171.5 -78t37.5 -188q-23 -110 -118 -189.5t-204 -79.5q-110 0 -173 79.5t-40 189.5zM520 1262q-8 -42 14.5 -70.5t63.5 -28.5t76.5 29t42.5 70q9 40 -13 69t-63 29t-76.5 -29 t-44.5 -69zM625 236q23 110 119 189t206 79q109 0 170.5 -79t38.5 -189q-23 -109 -118.5 -188t-204.5 -79q-110 0 -172 79t-39 188zM793 236q-9 -40 14.5 -68.5t64.5 -28.5t75.5 28.5t43.5 68.5q9 42 -13.5 70t-64.5 28t-76.5 -28t-43.5 -70z" />
<glyph unicode="&#x26;" d="M139 403q23 105 96 210t168 171q-67 57 -90 140t-2 176q40 195 193.5 311.5t374.5 116.5q177 0 271 -101.5t81 -279.5h-195q-2 92 -54.5 146.5t-141.5 54.5q-129 0 -209.5 -71.5t-102.5 -176.5q-6 -33 -6 -64.5t16.5 -59t45.5 -48.5t81 -33t123 -12l-38 -181 q-75 0 -139 -21t-106 -52.5t-74 -73.5t-48.5 -79t-24.5 -73q-7 -39 -6.5 -75.5t15 -68.5t38.5 -56.5t65 -38.5t93 -14q115 0 200 90t116 237l47 225h-105l39 179h461l-39 -179h-158l-147 -702h-109l-43 86q-45 -45 -119.5 -80t-177.5 -35q-219 0 -324 119t-65 313z" />
<glyph unicode="'" d="M664 1090l30 145q142 0 183 119h-93l66 305h264l-59 -277q-29 -135 -133.5 -213.5t-257.5 -78.5z" />
<glyph unicode="(" d="M602 608q100 475 440 871h168q-286 -415 -383 -871q-96 -452 13 -870h-168q-172 396 -70 870z" />
<glyph unicode=")" d="M240 -262q288 415 385 870q96 453 -15 871h168q173 -390 72 -871q-104 -480 -442 -870h-168z" />
<glyph unicode="*" d="M436 1178l90 159l219 -100l43 260h175l-70 -260l260 100l27 -159l-262 -80l149 -174l-143 -117l-152 211l-240 -211l-92 119l224 172z" />
<glyph unicode="+" d="M258 535l37 178h358l78 362h180l-77 -362h364l-37 -178h-364l-78 -365h-180l77 365h-358z" />
<glyph unicode="," d="M315 -264l31 143q142 0 184 121h-92l64 305h264l-59 -276q-28 -135 -133 -214t-259 -79z" />
<glyph unicode="-" d="M362 461l39 178h662l-39 -178h-662z" />
<glyph unicode="." d="M465 0l63 305h265l-64 -305h-264z" />
<glyph unicode="/" d="M186 -57l938 1613h201l-932 -1613h-207z" />
<glyph unicode="0" d="M238.5 331q-11.5 173 37.5 417q85 399 241 589.5t403 190.5q251 0 325.5 -183.5t-12.5 -596.5q-84 -397 -239.5 -587t-403.5 -190q-163 0 -251.5 93.5t-100 266.5zM436 375q91 158 275.5 472.5t281.5 483.5q-41 21 -110 21q-145 0 -233 -145t-156 -459q-56 -261 -58 -373 zM520 162q36 -15 107 -15q145 0 234 145.5t155 455.5q47 216 53 364q-39 -68 -240 -414t-309 -536z" />
<glyph unicode="1" d="M123 0l37 178h352l201 940h-287l37 176q72 0 132 19t95 46t60 54.5t34 46.5l9 19h192l-276 -1301h352l-37 -178h-901z" />
<glyph unicode="2" d="M147 0l35 170q16 76 59 151.5t89 130.5t120 119.5t120 99t120 87.5q231 166 284 217t70 133q22 100 -28.5 170t-173.5 70q-88 0 -158.5 -53.5t-112.5 -147.5h-194q57 171 187 276t317 105q218 0 320 -118t63 -302q-8 -40 -20 -76t-30 -67.5t-34 -56.5t-42.5 -51.5 t-44.5 -44t-51.5 -43t-51.5 -38.5t-56 -39q-15 -9 -43 -30t-43 -31q-38 -33 -90 -64q-134 -96 -183 -143q-103 -98 -126 -203l-9 -43h654l-37 -178h-910z" />
<glyph unicode="3" d="M211 350h195q-14 -92 45.5 -146t156.5 -54q128 0 210 74t104 179q5 34 8 73t-11.5 79.5t-39 73t-75.5 53t-120 20.5h-170l39 181h170q276 0 326 217q22 105 -28 176.5t-179 71.5q-89 0 -158.5 -53.5t-108.5 -147.5h-194q60 179 192 280t308 101q220 0 323.5 -116.5 t63.5 -311.5q-21 -94 -79 -176.5t-149 -139.5q67 -66 94.5 -171.5t4.5 -209.5q-40 -194 -194.5 -313t-375.5 -119q-90 0 -162.5 26t-121 73.5t-68.5 119.5t-6 160z" />
<glyph unicode="4" d="M172 461l37 174l768 844h190l-178 -840h266l-38 -178h-267l-96 -461h-197l97 461h-582zM430 639h363l108 514q-90 -98 -244.5 -266.5t-226.5 -247.5z" />
<glyph unicode="5" d="M215 350h213q15 -203 211 -203q104 0 186 87t111 227q33 153 -13 229t-153 76q-125 0 -223 -119h-234l176 832h822l-37 -176h-623l-92 -431q115 72 248 72q58 0 108 -10.5t95.5 -33.5t77 -60.5t52.5 -91t21 -125t-18 -162.5q-22 -103 -66.5 -188t-100 -140t-121 -92.5 t-128.5 -53.5t-125 -16q-93 0 -163 25.5t-109.5 62t-65.5 91.5t-35 99.5t-14 100.5z" />
<glyph unicode="6" d="M251 284q-11 102 0.5 213t41.5 253q37 172 88.5 305t111.5 221.5t133 145.5t149 81.5t163 24.5q73 0 130.5 -18t93 -44t63.5 -67.5t41.5 -75.5t27.5 -82h-227q-45 111 -166 111q-138 0 -222.5 -132t-152.5 -403q64 50 139 73t142 23q70 0 128.5 -15t109 -49.5t78.5 -89 t37.5 -134t-15.5 -185.5q-22 -103 -66.5 -185t-99 -134t-120.5 -87t-127.5 -49t-123.5 -14q-114 0 -191 39t-116 105.5t-50 168.5zM469 440q-28 -137 23 -215t153 -78q105 0 183.5 78t107.5 215q31 144 -17 219.5t-149 75.5q-98 0 -184.5 -75.5t-116.5 -219.5z" />
<glyph unicode="7" d="M242 0l809 1303h-691l37 176h906l-37 -174q-102 -173 -385 -623q-270 -421 -418 -682h-221z" />
<glyph unicode="8" d="M244 310q0 53 12 108q57 273 272 405q-132 102 -90 305q37 179 171.5 289.5t324.5 110.5q191 0 277 -110t49 -290q-42 -202 -218 -305q158 -131 101 -405q-14 -66 -42.5 -129t-75.5 -121t-107 -101.5t-141 -69.5t-173 -26q-77 0 -138.5 18t-102 50t-68 74.5t-39.5 93 t-12 103.5zM456.5 362.5q-1.5 -29.5 5.5 -69.5t24.5 -71t57 -53t97.5 -22t107.5 21.5t80.5 52.5t55 71t35 69.5t17 56.5q5 26 7.5 53.5t1.5 63.5t-12.5 67t-30.5 58t-55 43t-85 16q-58 0 -107 -23.5t-81 -57t-56.5 -77t-36.5 -78t-18 -65.5q-5 -26 -6.5 -55.5zM644.5 1026 q10.5 -50 51 -87.5t105.5 -37.5q96 0 165.5 72t86.5 155q19 86 -23 155t-133 69t-162 -69t-90 -155q-11 -52 -0.5 -102z" />
<glyph unicode="9" d="M207 258h229q45 -111 166 -111q58 0 106.5 24.5t86 67t71 111.5t59 147.5t52.5 184.5q-119 -96 -283 -96q-69 0 -127 15t-108 49.5t-78 89t-37.5 134t14.5 185.5q22 103 66.5 185t99 134t120.5 87t127.5 49t123.5 14q96 0 166 -26t111 -77t63 -118t23 -158t-11 -187 t-37 -214q-164 -777 -645 -777q-61 0 -111 11.5t-85.5 33.5t-62 47.5t-45.5 61t-31 65t-23 68.5zM565 1059q-29 -144 19 -219.5t149 -75.5q64 0 122 29.5t107 98t70 167.5q30 137 -20.5 215t-153.5 78q-105 0 -183.5 -78t-109.5 -215z" />
<glyph unicode=":" d="M446 0l64 305h262l-63 -305h-263zM602 739l66 305h262l-66 -305h-262z" />
<glyph unicode=";" d="M322 -264l30 143q75 0 120.5 33.5t64.5 87.5h-93l64 305h264l-59 -276q-28 -135 -133 -214t-258 -79zM600 739l66 305h266l-66 -305h-266z" />
<glyph unicode="&#x3c;" d="M356 612l566 432h295l-562 -432q40 -45 130.5 -149.5t138.5 -157.5q19 -18 58 -61t54 -62h-299z" />
<glyph unicode="=" d="M207 375l39 178h936l-39 -178h-936zM276 702l39 181h936l-39 -181h-936z" />
<glyph unicode="&#x3e;" d="M233 182l566 430l-146 168l-233 264h293l164 -184l217 -248l-564 -430h-297z" />
<glyph unicode="?" d="M367 1147q44 179 173 280t312 101q211 0 316.5 -97.5t66.5 -279.5q-13 -60 -38 -111.5t-50.5 -85.5t-66 -68.5t-67 -52.5t-71.5 -45l-29 -16l2 2q-31 -19 -50 -31.5t-43 -32t-39.5 -43t-24.5 -51.5l-41 -153h-176l20 153q9 54 32.5 100.5t60.5 84t70 63t81 56.5 q46 29 70 45.5t57.5 46t53 63.5t28.5 76q20 95 -40 146t-161 51q-74 0 -148 -57.5t-106 -143.5h-192zM401 0l64 305h262l-63 -305h-263z" />
<glyph unicode="@" d="M5 380q7 78 28 187q33 154 113 291.5t190.5 239t252.5 160.5t292 59q113 0 204 -23t161 -71t109 -123.5t49 -181t-20 -242.5l-94 -436q-13 -61 -39.5 -109t-57.5 -77t-68.5 -48.5t-70 -27t-63.5 -7.5q-131 0 -174 90q-51 -46 -115.5 -68t-117.5 -22q-55 0 -101 17.5 t-85.5 57.5t-59.5 103.5t-22.5 156t24.5 214.5q29 134 81 233t117.5 155t136 82t148.5 26q342 0 258 -398l-82 -378q-9 -44 -1 -68.5t30 -24.5q47 0 66 93l94 436q47 225 -51.5 335.5t-296.5 110.5q-111 0 -211.5 -44t-177 -120t-130.5 -176.5t-79 -214.5 q-19 -89 -25.5 -148t-1.5 -130.5t32.5 -141t78.5 -147.5h-250q-46 98 -62 200t-9 180zM521.5 308.5q-0.5 -82.5 24 -122t75.5 -39.5q112 0 184 119l76 352q24 112 -3.5 167t-91.5 55q-168 0 -237 -320q-27 -129 -27.5 -211.5z" />
<glyph unicode="A" d="M172 0l690 1505h203l47 -1505h-207l-14 326h-365l-145 -326h-209zM610 506h275l-17 559z" />
<glyph unicode="B" d="M143 0l320 1505h436q228 -1 313 -95q55 -61 55 -175q0 -62 -16 -139q-16 -74 -66.5 -149.5t-92.5 -114.5l-43 -39q118 -69 118 -234q0 -57 -14 -125q-22 -102 -60 -177.5t-88 -124t-118 -78.5t-142 -42t-167 -12h-435zM381 180h233q131 0 209.5 59.5t108.5 194.5 q8 30 8 60q0 18 -2 34q-8 46 -29.5 81t-69.5 57t-116 22h-234zM528 870h234q60 0 109.5 22t81 57t51 72.5t26.5 74.5q10 46 10 83q0 55 -22 89q-37 57 -158 57h-235z" />
<glyph unicode="C" d="M309 160q-36 89 -36 225q0 154 46 367q85 403 242 592.5t410 189.5q201 0 287 -110q59 -76 59 -187q0 -51 -12 -109h-199q6 29 6 56q0 63 -34 108q-48 64 -146 64q-148 0 -236 -143t-155 -461q-34 -158 -45 -266q-5 -49 -5 -92q-1 -52 7 -94q14 -78 58 -114t120 -36 q98 0 172 61.5t96 161.5h199q-39 -185 -170.5 -293.5t-333.5 -108.5q-253 0 -330 189z" />
<glyph unicode="D" d="M172 0l320 1505h413q253 0 346 -198q52 -110 52 -270q0 -127 -33 -285q-76 -356 -253.5 -554t-430.5 -198h-414zM410 180h213q77 0 139 29.5t105.5 78t79 125.5t58.5 155t46 184q16 75 25.5 134.5t13.5 120.5q2 29 3 54q0 28 -3 53q-5 46 -19.5 87t-40.5 67.5t-67 41.5 t-97 15h-213z" />
<glyph unicode="E" d="M197 0l319 1505h848l-39 -180h-647l-96 -455h465l-39 -182h-465l-109 -508h647l-37 -180h-847z" />
<glyph unicode="F" d="M197 0l319 1505h848l-39 -180h-647l-96 -455h465l-39 -182h-465l-146 -688h-200z" />
<glyph unicode="G" d="M246 316q-2 29 -2 60q0 157 47 376q85 406 241 594t414 188q186 0 277 -106q63 -74 63 -190q0 -51 -12 -110h-199q6 32 6 59q0 66 -37 109q-52 60 -137 60q-64 0 -115 -24.5t-91.5 -70.5t-75 -121.5t-61.5 -168t-54 -219.5q-27 -126 -39 -218q-10 -79 -10 -146v-22 q2 -75 23.5 -121t63.5 -70.5t107 -24.5q117 0 203 91.5t119 241.5l24 123h-225l39 180h426l-166 -786h-112l-41 86q-47 -45 -123 -80t-181 -35q-179 0 -270 85.5t-102 259.5z" />
<glyph unicode="H" d="M139 0l320 1505h200l-151 -714h524l152 714h200l-319 -1505h-201l129 610h-524l-129 -610h-201z" />
<glyph unicode="I" d="M223 0l37 180h279l243 1145h-278l39 180h760l-39 -180h-281l-244 -1145h281l-37 -180h-760z" />
<glyph unicode="J" d="M250 475h201q-18 -85 -18 -148q0 -177 140 -177q191 0 256 294l226 1061h200l-225 -1061q-100 -473 -493 -473q-310 0 -310 313q0 84 23 191z" />
<glyph unicode="K" d="M180 0l320 1505h198l-319 -1505h-199zM494 778l616 727h242l-621 -731l352 -774h-235z" />
<glyph unicode="L" d="M207 0l319 1505h201l-283 -1325h668l-37 -180h-868z" />
<glyph unicode="M" d="M121 0l319 1505h191l153 -647q79 121 228.5 346t199.5 301h193l-320 -1505h-200l209 985l-291 -438h-172l-103 434l-206 -981h-201z" />
<glyph unicode="N" d="M168 0l319 1505h191l264 -1003l213 1003h201l-320 -1505h-190l-264 1004l-213 -1004h-201z" />
<glyph unicode="O" d="M266 161q-36 89 -36 225q0 153 46 366q85 404 242 593t408 189q254 0 330 -190q36 -89 36 -225q0 -153 -45 -367q-87 -404 -243 -592.5t-410 -188.5q-251 0 -328 190zM452 487q-5 -47 -4 -89q0 -53 8 -97q14 -78 56.5 -114.5t118.5 -36.5q149 0 238.5 144t156.5 458 q48 213 48 350q0 59 -8 104q-30 150 -179 150q-147 0 -235.5 -143.5t-155.5 -460.5q-34 -157 -44 -265z" />
<glyph unicode="P" d="M221 0l320 1505h354q251 1 363 -119q80 -85 80 -218q0 -53 -13 -113q-45 -209 -208.5 -329t-414.5 -120h-153l-127 -606h-201zM588 786h153q94 0 163 23t108.5 65t59.5 84.5t32 96.5q10 51 12 87v8q0 32 -10 64q-12 36 -39.5 59.5t-80.5 37.5t-130 14h-154z" />
<glyph unicode="Q" d="M256 161q-36 90 -36 226q0 153 46 365q85 403 242.5 592.5t409.5 189.5q256 0 332 -190q35 -88 35 -223q0 -154 -46 -369q-94 -434 -278 -627l106 -301h-231l-62 178q-82 -31 -188 -31q-252 0 -330 190zM445 487q-5 -48 -5 -91q0 -52 8 -95q13 -78 56 -114.5t119 -36.5 q46 0 96 18l-35 96v-2l-92 250h239l56 -170q68 139 129 410q33 158 44 266q4 48 4 90q0 53 -8 97q-13 78 -57 114.5t-120 36.5q-147 0 -235 -143.5t-155 -460.5q-33 -157 -44 -265z" />
<glyph unicode="R" d="M223 0l320 1505h352q251 0 363 -119q79 -85 80 -217q0 -53 -13 -114q-30 -145 -128.5 -251t-248.5 -161q15 -73 64.5 -300.5t72.5 -342.5h-219l-131 606h-184l-127 -606h-201zM590 786h151q94 0 163 23t108.5 65t59.5 84.5t32 96.5q10 51 12 87v8q0 32 -10 64 q-12 36 -39.5 59.5t-80.5 37.5t-130 14h-151z" />
<glyph unicode="S" d="M252 373h199q-5 -25 -5 -48q0 -70 50 -115q67 -60 180 -60q98 0 182.5 59.5t106.5 159.5q7 35 7 67q0 156 -181 230q-130 46 -211 101t-114 115q-32 59 -38 129l-2 30q0 56 16 116q19 91 74 164.5t129.5 119t157 69.5t162.5 24q77 0 138.5 -17.5t101 -48t67.5 -71 t38 -85.5q9 -44 12 -92q1 -10 0 -19q0 -37 -9 -73h-199q5 25 5 48q-1 26 -7 50q-12 44 -41 72t-66.5 43t-78.5 15q-56 0 -109 -21t-97 -67.5t-58 -110.5q-8 -39 -8 -73q0 -20 3 -40q8 -50 63 -95.5t167 -86.5q145 -53 219 -120q74 -66 90 -158q6 -34 5 -72q0 -65 -17 -143 q-16 -73 -59.5 -142t-110.5 -127t-165 -93.5t-210 -35.5q-100 0 -180.5 28.5t-132.5 80t-72 127.5q-11 39 -11 83q0 40 9 83z" />
<glyph unicode="T" d="M401 1325l39 180h965l-39 -180h-383l-281 -1325h-200l280 1325h-381z" />
<glyph unicode="U" d="M228 278v8q0 69 16 158l225 1061h201l-226 -1061q-10 -55 -10 -98q0 -23 3 -42q8 -56 40.5 -90.5t71 -49t84.5 -14.5q44 0 89 15.5t90.5 47.5t82 91.5t53.5 139.5l226 1061h200l-225 -1061q-23 -109 -69 -193.5t-102 -136t-124 -85t-130.5 -46t-127.5 -12.5 q-54 0 -102.5 9t-97.5 30t-83 56t-59 87.5t-26 124.5z" />
<glyph unicode="V" d="M410 1505h206l82 -1050l529 1050h207l-764 -1534h-144z" />
<glyph unicode="W" d="M297 -29l43 1534h207l-23 -819l297 819h201l-51 -821l327 821h207l-610 -1534h-170l51 856l-307 -856h-172z" />
<glyph unicode="X" d="M111 -29l528 764l-203 770h223l144 -542l379 542h225l-535 -768q202 -747 207 -766h-223l-147 543l-375 -543h-223z" />
<glyph unicode="Y" d="M483 1505h209l107 -561l354 561h207l-514 -813l-146 -692h-200l145 692z" />
<glyph unicode="Z" d="M147 0l35 172l908 1153h-621l39 180h852l-37 -172l-903 -1153h674l-37 -180h-910z" />
<glyph unicode="[" d="M340 -270l395 1851h555l-35 -160h-352l-325 -1534h352l-35 -157h-555z" />
<glyph unicode="\" d="M528 1556h201l254 -1613h-207z" />
<glyph unicode="]" d="M182 -270l35 157h352l326 1534h-352l35 160h552l-395 -1851h-553z" />
<glyph unicode="_" d="M-37 -221l37 178h1178l-37 -178h-1178z" />
<glyph unicode="`" d="M610 1556h297l185 -380h-203z" />
<glyph unicode="a" d="M223 276q17 79 56 135t102 92.5t135 57.5t174 37l252 39l4 25q10 49 10 86q0 62 -29 96q-47 52 -157 53q-62 0 -132.5 -47t-96.5 -119h-195q29 109 106.5 189t169 116.5t185.5 36.5q48 0 87 -3.5t81.5 -15t73.5 -30t57.5 -51t39 -75.5t12.5 -106t-17 -141l-137 -651h-109 l-49 76q-152 -105 -322 -105q-71 0 -129.5 16t-105.5 49.5t-65 95.5q-9 31 -10 67q0 36 9 77zM432 276q-3 -16 -3 -30q0 -38 22 -64q30 -34 114 -35q176 0 299 125l41 191q-29 -4 -113.5 -18.5t-132.5 -20.5q-124 -19 -169 -52t-58 -96z" />
<glyph unicode="b" d="M182 0l324 1528h194l-112 -527q109 72 239 72q73 0 133 -18t111 -58t78 -104q27 -65 35 -157q2 -20 1 -40q0 -78 -22 -174q-32 -148 -92 -258t-138 -172t-161.5 -91.5t-175.5 -29.5q-35 0 -72 10t-65 23.5t-50.5 27.5t-34.5 24l-12 10l-67 -66h-113zM436 283 q16 -72 71.5 -104t123.5 -32q128 0 210.5 92t123.5 283q16 75 16 138q0 78 -24 134q-43 104 -166 103q-44 0 -87 -15.5t-72 -37.5t-52 -43.5t-34 -36.5l-11 -16z" />
<glyph unicode="c" d="M290 308q-1 17 -2 35q0 80 23 179q25 119 70 214t100 157.5t122.5 103.5t136 58.5t141.5 17.5q75 0 135 -23t94 -60t56 -84q22 -46 24 -92q0 -9 1 -19q0 -36 -5 -70h-197q8 27 1.5 57t-21 56t-47.5 42.5t-78 16.5q-253 0 -332 -375q-19 -90 -19 -158q0 -217 191 -217 q87 0 146 54.5t73 117.5h197q-12 -54 -48 -112.5t-91 -112.5t-138 -88.5t-176 -34.5q-73 0 -134 18t-112 58t-78 104.5t-33 156.5z" />
<glyph unicode="d" d="M230 308q-1 17 -1 35q0 80 23 179q25 119 70 214t100 157.5t122.5 103.5t135.5 58.5t141 17.5q45 0 97 -18t81 -36l29 -18l113 527h194l-323 -1528h-113l-43 66q-118 -95 -270 -95q-73 0 -133 18t-110.5 58t-78.5 104.5t-34 156.5zM453 522q-20 -94 -20 -164 q-1 -72 21 -119q42 -92 171 -92q68 0 136.5 32t115.5 104l98 465q-3 14 -9 29.5t-21 38t-35 39.5t-53 29.5t-73 12.5q-123 0 -209.5 -103.5t-121.5 -271.5z" />
<glyph unicode="e" d="M272 305q-1 19 -1 38q0 79 22 179q31 148 91 258t138 172t163.5 91.5t180.5 29.5q85 0 147 -26t95 -72.5t51 -101.5t18 -123t-6.5 -125.5t-19.5 -120.5l-14 -62h-660q-6 -46 -6 -84q-1 -92 35 -142q50 -70 164 -69q82 0 141.5 55t73.5 117h196q-12 -54 -48 -112.5 t-91.5 -112.5t-137 -88.5t-171.5 -34.5q-74 0 -135 17.5t-113 57t-79 103t-34 156.5zM518 621h451q10 41 10 82q-1 9 -1 17q-2 50 -14.5 89t-47 63.5t-87.5 24.5q-120 0 -193 -64t-118 -212z" />
<glyph unicode="f" d="M297 866l39 178h268l17 76q22 105 57.5 183t78 126t98 77t111 39.5t124.5 10.5q41 0 90 -11t78 -21l28 -11l-37 -170q-104 31 -198 31q-101 0 -155 -62t-87 -220l-10 -48h307l-39 -178h-307l-182 -866h-195l182 866h-268z" />
<glyph unicode="g" d="M156 -234q-1 12 -1 24q0 28 7 54h196q-3 -17 -3 -33q0 -49 33 -87q43 -52 134 -52q223 0 273 234l28 139q-112 -74 -237 -74q-73 0 -134 18t-112 58t-78 104t-34 157q-1 17 -1 35q0 80 23 179q25 119 70 214t100 157.5t122.5 103.5t135.5 58.5t141 17.5q59 0 117 -24.5 t86 -48.5l29 -25q7 7 33.5 33t39.5 36h107l-244 -1148q-16 -76 -47.5 -138t-67.5 -103t-81.5 -71.5t-86 -46.5t-85.5 -26t-75 -12.5t-59 -2.5q-64 0 -118 15t-90 41t-64 61t-40 73.5t-17 79.5zM456 238q40 -91 167 -91q68 0 136 32t115 104l99 465q-3 14 -9 29.5t-21 38 t-35 39.5t-53 29.5t-73 12.5q-122 0 -204.5 -102.5t-118.5 -272.5q-22 -99 -22 -171q0 -68 19 -113z" />
<glyph unicode="h" d="M182 0l324 1528h194l-114 -537q134 82 258 82q330 0 331 -263q0 -53 -14 -116l-147 -694h-197l141 666q10 46 10 84q0 54 -20 88q-32 60 -141 59q-57 0 -123.5 -30.5t-104.5 -60.5l-38 -30l-164 -776h-195z" />
<glyph unicode="i" d="M229 0l35 168h283l143 674l-211 59l31 143h418l-187 -876h258l-34 -168h-736zM733 1442q12 59 65 102t113 43q61 0 95 -43q26 -32 25 -73q0 -14 -3 -29q-12 -61 -65 -105.5t-113 -44.5t-94 44q-26 33 -26 75q0 15 3 31z" />
<glyph unicode="j" d="M154 -289l36 176q5 -3 14 -7.5t37.5 -16.5t58 -21t73 -16.5t84.5 -7.5q69 0 108 49t62 162l174 813l-211 59l31 143h417l-217 -1015q-20 -97 -48 -164t-74 -120t-115.5 -79t-165.5 -26q-69 0 -135 18t-97 36zM801 1442q12 59 65.5 102t114.5 43q60 0 95 -43 q25 -32 25 -73q0 -14 -3 -29q-12 -61 -65 -105.5t-113 -44.5q-61 0 -96 44q-26 33 -26 76q0 14 3 30z" />
<glyph unicode="k" d="M184 0l324 1528h194l-182 -858l490 403h280l-528 -436l291 -637h-234l-225 496l-133 -107l-82 -389h-195z" />
<glyph unicode="l" d="M229 0l35 168h283l246 1157l-211 59l30 144h418l-289 -1360h258l-34 -168h-736z" />
<glyph unicode="m" d="M6 0l221 1044h109l45 -69q133 98 244 98q155 0 202 -108q118 108 271 108q59 0 99 -10.5t69.5 -36t41.5 -68.5q10 -36 10 -86v-22q-2 -65 -22 -156l-147 -694h-197l142 666q21 85 21 138q0 20 -3 36q-11 57 -80 57q-33 0 -64.5 -13t-58.5 -37.5t-39 -37.5t-30 -35 l-164 -774h-195l144 684q21 84 21 132q0 19 -3 33q-12 48 -84 48q-21 0 -48.5 -12.5t-52 -30.5t-45.5 -36.5t-33 -31.5l-13 -12l-164 -774h-197z" />
<glyph unicode="n" d="M182 0l221 1044h107l47 -71q148 100 287 100q330 0 331 -263q0 -53 -14 -116l-147 -694h-197l141 666q10 46 10 84q0 54 -20 88q-32 60 -141 59q-57 0 -123.5 -30.5t-104.5 -60.5l-38 -30l-164 -776h-195z" />
<glyph unicode="o" d="M234 308q-1 17 -1 35q0 80 23 179q25 119 69.5 214t99 157.5t121.5 103.5t135.5 58.5t141.5 17.5t133.5 -18t111.5 -58t78 -104q27 -65 34 -157q1 -18 1 -38q0 -79 -22 -176q-26 -119 -70.5 -214t-99.5 -157.5t-122 -103.5t-135.5 -58.5t-141.5 -17.5t-133.5 18 t-111.5 58t-78 104.5t-33 156.5zM455 522q-20 -93 -20 -162q1 -74 23 -121q44 -92 169 -92q251 0 331 375q18 90 18 158q0 76 -22 125q-44 92 -168 92q-254 0 -331 -375z" />
<glyph unicode="p" d="M78 -483l325 1527h115l39 -65q122 94 272 94q73 0 132.5 -18t110.5 -58t78 -104t34 -157q1 -18 1 -38q0 -78 -22 -176q-32 -148 -92.5 -258t-138.5 -172t-162 -91.5t-176 -29.5q-45 0 -97.5 18t-82.5 36l-29 18l-113 -526h-194zM438 297q4 -15 10 -30t21.5 -38t35.5 -40 t53 -29.5t73 -12.5q123 0 210 103.5t124 271.5q19 92 19 161q0 74 -22 122q-43 92 -171 92q-69 0 -138 -32t-114 -103z" />
<glyph unicode="q" d="M231 308q-1 18 -1 38q0 78 22 176q25 119 70 214t99.5 157.5t122 103.5t135 58.5t140.5 17.5q60 0 118 -23.5t86 -47.5l28 -23l71 65h111l-326 -1527h-194l112 526q-109 -72 -237 -72q-73 0 -133 18t-111 58t-78.5 104t-34.5 157zM453 522q-17 -78 -17 -142 q0 -74 23 -130q43 -103 166 -103q44 0 86.5 15.5t71.5 37.5t51.5 44t33.5 38l11 15l100 465q-12 49 -45 80.5t-70 43t-80 11.5q-128 0 -209.5 -92t-121.5 -283z" />
<glyph unicode="r" d="M137 0l35 168h234l186 876h106l50 -69q46 35 114 66.5t135 31.5q47 0 89 -10.5t81 -34.5t62 -62q23 -40 32 -96q3 -20 3 -41q0 -41 -11 -90h-209q7 33 7 59q0 99 -101 99q-38 0 -93 -30.5t-91 -60.5l-35 -30l-129 -608h305l-35 -168h-735z" />
<glyph unicode="s" d="M268 248.5q0 36.5 8 70.5h197q-4 -18 -4 -35q0 -48 29 -86q39 -52 116 -51q78 0 141.5 34.5t80.5 109.5q6 23 1.5 44t-20 38t-54 32t-99.5 27q-193 42 -260 114q-45 49 -45 133q0 40 10 87q28 135 149.5 221t292.5 86q63 0 114 -15t83 -40.5t55.5 -59t31.5 -70t11 -73.5 q1 -9 1 -18q0 -27 -7 -52h-199q4 16 4 31q0 40 -26 74q-35 46 -105 47q-91 0 -139.5 -40.5t-59.5 -90.5q-3 -14 -3 -27q0 -34 23 -58q32 -32 148 -56q191 -40 259 -117q48 -54 49 -139q0 -36 -9 -78q-32 -145 -162.5 -232.5t-301.5 -87.5q-71 0 -127 16.5t-90 45t-56 63.5 t-29.5 75.5t-7.5 77z" />
<glyph unicode="t" d="M334 866l39 178h250q35 84 129 324h153l-67 -324h307l-39 -178h-307l-90 -430q-19 -89 -19 -147q0 -46 12 -73q26 -62 127 -62q42 0 95 7.5t86 14.5l32 8l-36 -170q-121 -43 -213 -43q-57 0 -101.5 7.5t-85.5 25.5t-67 50t-41 80q-13 42 -13 101v16q2 69 21 157l96 458 h-268z" />
<glyph unicode="u" d="M256 350l147 694h195l-141 -665q-11 -47 -11 -86q0 -51 20 -85q34 -60 142 -61q57 0 123 30.5t103 60.5l38 30l166 776h197l-221 -1044h-109l-47 72q-150 -101 -287 -101q-187 1 -272 89q-57 59 -57 169q0 54 14 121z" />
<glyph unicode="v" d="M346 1044h211l102 -747q56 101 201 357t219 390h211l-612 -1073h-174z" />
<glyph unicode="w" d="M246 1044h203l6 -608q40 102 122.5 307t120.5 301h238l-14 -608l264 608h203l-478 -1073h-200l20 662l-262 -662h-201z" />
<glyph unicode="x" d="M98 0l484 537l-246 507h242l170 -350q56 66 169 190.5t144 159.5h239l-460 -507l258 -537h-242l-178 375l-340 -375h-240z" />
<glyph unicode="y" d="M137 -342l37 172l49 -4q58 -8 88 -8q29 0 47 4.5t42.5 22t53 55t66.5 100.5h-31l-176 1044h217l121 -815l473 815h213l-614 -1028q-62 -104 -116.5 -175t-95.5 -110.5t-85 -59.5t-76 -25q-26 -4 -63 -4h-15q-42 0 -88 12q-7 0 -26 2t-21 2z" />
<glyph unicode="z" d="M186 0l35 172l684 694h-497l38 178h752l-37 -172l-686 -694h578l-37 -178h-830z" />
<glyph unicode="{" d="M573 641l21 94q10 2 26 7t44.5 25t33.5 44q21 95 36 160t34 135t35 115t37 93t42 77t49.5 58t59 44.5t69.5 29t83.5 19t99.5 6.5l-39 -180q-51 -2 -89.5 -15.5t-64 -35.5t-45 -59.5t-31.5 -76.5t-24 -98q-14 -63 -27.5 -132.5t-17.5 -86.5l-10 -53q-13 -60 -82 -125 q43 -60 29 -119l-11 -55q-2 -7 -45 -199q-19 -90 -21 -152.5t35 -96.5t120 -37l-37 -179q-68 1 -117.5 8t-86 27t-59 43.5t-33.5 69.5t-12.5 92.5t8.5 126t24 156.5t38 196q8 35 -16.5 52.5t-55.5 21.5z" />
<glyph unicode="|" d="M446 -240l394 1858h198l-393 -1858h-199z" />
<glyph unicode="}" d="M248 -152l37 181q65 2 108.5 20.5t71 58.5t43 85t31.5 120q13 56 25 119t16 80l10 55q16 68 82 121q-41 62 -29 123l10 53q11 48 49 219q18 89 20.5 151.5t-33.5 96.5t-120 37l39 180q90 -2 148.5 -16t95 -53.5t51 -86.5t9 -139.5t-21 -187.5t-48.5 -254q-13 -62 69 -74 l-20 -94q-10 -3 -25.5 -8.5t-44 -25t-33.5 -42.5q-20 -94 -35.5 -160t-34.5 -134t-35 -113.5t-37 -91t-42 -74t-49 -55.5t-58 -41.5t-69 -27t-82.5 -17t-97.5 -5.5z" />
<glyph unicode="~" d="M190 504q19 54 51 107t77 100.5t105.5 76.5t125.5 29q95 0 248 -86l16 -8q108 -57 148 -57q59 0 100 31.5t57 78.5h152q-16 -54 -48 -107.5t-76.5 -101t-105.5 -77t-125 -29.5q-89 0 -249 88l2 -2q-124 65 -162 65q-60 0 -101.5 -31t-62.5 -77h-152z" />
<glyph unicode="&#xa0;" />
<glyph unicode="&#xa1;" d="M479 8l99 463l153 571h174l-90 -571l-98 -463h-238zM721 1200l63 305h263l-64 -305h-262z" />
<glyph unicode="&#xa2;" d="M272.5 296.5q-4.5 94.5 20.5 225.5q27 127 74.5 225.5t110 162t131.5 101t147 52.5l20 102h197l-21 -100q54 -12 96.5 -40t67 -63.5t40.5 -77t16.5 -81.5t-5.5 -78h-198q9 45 -6 88t-52 64l-149 -711q48 22 79.5 65t41.5 88h198q-23 -105 -121.5 -209t-238.5 -130 l-21 -101h-196l22 103q-72 15 -124.5 52t-88.5 102.5t-40.5 160zM475 350q5 -73 28 -117.5t62 -66.5l152 713q-165 -66 -225 -357q-22 -99 -17 -172z" />
<glyph unicode="&#xa3;" d="M86 -29q29 107 120 197t220 96l84 393h-268l37 181h268l16 75q31 141 79 239.5t111.5 152t132 76t152.5 22.5q78 0 134.5 -23.5t88.5 -67.5t47.5 -94.5t20.5 -115.5h-186q-18 125 -142 125q-88 0 -146 -72t-95 -242l-17 -75h306l-37 -181h-305l-97 -450 q14 -14 35.5 -29.5t71.5 -34t104 -18.5q74 0 122 33.5t69 77.5h137q-15 -52 -45.5 -104.5t-75.5 -102t-110.5 -80.5t-139.5 -31q-89 0 -229 82q-98 57 -158 57q-65 0 -109 -24.5t-63 -61.5h-133z" />
<glyph unicode="&#xa4;" d="M119 184l186 150q-39 113 -14 231q26 120 115 226l-127 163l172 142l131 -170q118 59 219 59q111 0 211 -63l207 170l106 -127l-213 -174q42 -113 18 -226q-18 -92 -100 -207l127 -161l-172 -144l-127 158q-71 -36 -120 -51t-115 -15q-118 0 -215 66l-191 -160zM471 565 q-20 -99 35 -170t153 -71t184.5 71.5t106.5 169.5q22 98 -34 169t-154 71t-183.5 -71t-107.5 -169z" />
<glyph unicode="&#xa5;" d="M207 362l39 179h368l29 143h-369l39 178h295l-125 617h205l109 -551l344 551h205l-392 -617h291l-39 -178h-364l-29 -143h365l-39 -179h-365l-76 -362h-198l75 362h-368z" />
<glyph unicode="&#xa6;" d="M446 -240l183 858h198l-182 -858h-199zM657 758l183 860h198l-182 -860h-199z" />
<glyph unicode="&#xa7;" d="M256 268h207q1 -5 4 -13t15 -29t28 -37t45.5 -29t65.5 -13q103 0 154 39.5t61 87.5q17 93 -172 172q-177 70 -239.5 143t-35.5 199q30 142 195 236q-77 57 -101 119t-4 157q29 133 159 218.5t304 85.5q79 0 140 -24t94.5 -57.5t55 -78t28 -77t8.5 -62.5h-207 q-1 5 -3.5 13t-14.5 29t-27.5 37.5t-45 29.5t-65.5 13q-102 0 -153.5 -39.5t-63.5 -87.5q-7 -39 30 -83t144 -89q119 -47 181.5 -91.5t86 -105.5t5.5 -149q-15 -69 -66 -129t-129 -104q82 -56 104.5 -116.5t-0.5 -158.5q-28 -132 -158 -218.5t-304 -86.5q-57 0 -104.5 12.5 t-80 33t-58 48t-40.5 55t-25 57.5t-13.5 51.5t-4.5 41.5zM598 788q-9 -47 32 -78.5t111 -31.5q54 0 91 9.5t55.5 27.5t26 34t12.5 39q10 50 -29.5 79.5t-108.5 29.5q-102 0 -140.5 -29t-49.5 -80z" />
<glyph unicode="&#xa8;" d="M510 1364q12 60 65.5 103.5t114.5 43.5q60 0 94.5 -43.5t22.5 -103.5q-12 -61 -65 -105.5t-113 -44.5q-61 0 -96 44t-23 106zM965 1364q12 60 65.5 103.5t114.5 43.5q60 0 94.5 -43.5t22.5 -103.5q-12 -61 -65.5 -105.5t-113.5 -44.5q-61 0 -95.5 44t-22.5 106z" />
<glyph unicode="&#xab;" d="M252 614l381 430h239l-376 -432l192 -430h-239zM692 612l379 432h242l-377 -432l192 -430h-241z" />
<glyph unicode="&#xac;" d="M172 520l43 197h1045l-84 -398l-181 -2l43 203h-866z" />
<glyph unicode="&#xad;" d="M362 461l39 178h662l-39 -178h-662z" />
<glyph unicode="&#xaf;" horiz-adv-x="1705" />
<glyph unicode="&#xb0;" d="M498 1282q25 122 129 208.5t225 86.5q120 0 187 -86.5t42 -208.5q-26 -120 -130 -205.5t-224 -85.5q-121 0 -188 85.5t-41 205.5zM662 1282q-11 -50 19 -88.5t81 -38.5t96.5 38.5t56.5 88.5q11 51 -18 89t-80 38t-98 -38t-57 -89z" />
<glyph unicode="&#xb1;" d="M180 170l39 180h903l-39 -180h-903zM334 891l39 182h358l76 361h180l-76 -361h365l-39 -182h-365l-75 -361h-181l76 361h-358z" />
<glyph unicode="&#xb2;" d="M473 905l25 111q11 54 69.5 114t182.5 140q59 36 78 54.5t22 39.5q3 13 -14.5 19t-38.5 6q-65 0 -86 -64h-158q29 92 110 147.5t162 55.5q97 0 150 -41t35 -123q-7 -34 -20.5 -60t-43 -52.5t-52 -42.5t-75.5 -52q-10 -7 -27.5 -18.5t-25.5 -17t-21.5 -15t-20 -14.5 t-15.5 -12.5t-14 -12.5t-10.5 -11t-8.5 -12h270l-31 -139h-442z" />
<glyph unicode="&#xb3;" d="M498 1063h133q0 -2 0.5 -5.5t4 -12.5t10 -15.5t20.5 -12t34 -5.5q39 0 67 19.5t34 49.5q13 72 -72 72h-94l29 135h94q79 0 90 58q4 23 -14 34t-54 11q-49 0 -80 -52h-143q25 79 97.5 134t154.5 55q110 0 167.5 -43.5t37.5 -138.5q-3 -15 -13.5 -32.5t-24 -32.5t-25 -26.5 t-22.5 -20.5l-11 -9q70 -50 51 -144q-21 -95 -105 -146.5t-192 -51.5q-96 0 -139 48.5t-35 131.5z" />
<glyph unicode="&#xb4;" d="M600 1176l346 380h295l-436 -380h-205z" />
<glyph unicode="&#xb6;" d="M309 1079q43 211 205 330t412 119h512l-39 -180h-139l-293 -1379h-166l141 666h-96l-141 -666h-166l143 668q-220 19 -317 134t-56 308zM885 813h96l113 535h-97z" />
<glyph unicode="&#xb7;" />
<glyph unicode="&#xb8;" d="M309 -242h142q-3 -73 67 -73q81 0 92 63q20 88 -61 88h-94l45 211h125l-19 -92h23q87 0 125 -60.5t18 -146.5q-13 -62 -60 -107.5t-105 -66t-118 -20.5q-91 0 -140 57.5t-40 146.5z" />
<glyph unicode="&#xb9;" d="M467 905l31 139h176l49 234h-143l26 123q38 0 69.5 11t49 27t29.5 32t16 27l4 11h156l-99 -465h166l-30 -139h-500z" />
<glyph unicode="&#xba;" />
<glyph unicode="&#xbb;" d="M141 182l379 430l-194 432h241l195 -432l-379 -430h-242zM580 182l381 430l-197 432h242l194 -432l-381 -430h-239z" />
<glyph unicode="&#xbf;" d="M213 -111q13 60 38 111.5t50.5 85.5t66 68.5t67 52.5t71.5 45l29 16l-3 -2q32 19 50.5 31t43 32t40 43.5t24.5 51.5l41 154h176l-20 -154q-9 -54 -32.5 -100.5t-60.5 -84t-70 -62.5t-81 -56q-36 -22 -55.5 -35t-49.5 -37t-47 -45t-33.5 -51t-23.5 -64q-20 -95 40 -145.5 t161 -50.5q74 0 148 57.5t106 143.5h192q-44 -179 -173 -280t-312 -101q-211 0 -316.5 97t-66.5 279zM721 735l63 305h263l-64 -305h-262z" />
<glyph unicode="&#xc0;" d="M172 0l690 1505h203l47 -1505h-207l-14 326h-365l-145 -326h-209zM610 506h275l-17 559zM780 2017h297l185 -381h-203z" />
<glyph unicode="&#xc1;" d="M172 0h209l145 326h365l14 -326h207l-47 1505h-203zM610 506l258 559l17 -559h-275zM711 1636l346 381h295l-437 -381h-204z" />
<glyph unicode="&#xc2;" d="M172 0l690 1505h203l47 -1505h-207l-14 326h-365l-145 -326h-209zM610 506h275l-17 559zM610 1636l346 381h218l186 -381h-186l-146 207l-229 -207h-189z" />
<glyph unicode="&#xc3;" d="M172 0l690 1505h203l47 -1505h-207l-14 326h-365l-145 -326h-209zM610 506h275l-17 559zM688 1755q19 54 52 111t85 104t103 47q83 0 159 -47q68 -33 105 -33q68 0 98 80h103q-20 -55 -53.5 -112t-85.5 -103.5t-101 -46.5q-37 0 -85 14.5t-75 30.5q-57 33 -104 33 q-74 0 -105 -78h-96z" />
<glyph unicode="&#xc4;" d="M172 0h209l145 326h365l14 -326h207l-47 1505h-203zM610 506l258 559l17 -559h-275zM649 1825q12 60 65.5 103.5t114.5 43.5q60 0 94.5 -43.5t22.5 -103.5q-12 -61 -65 -105.5t-113 -44.5q-61 0 -96 44t-23 106zM1104 1825q12 60 65.5 103.5t114.5 43.5q60 0 94.5 -43.5 t22.5 -103.5q-12 -61 -65 -105.5t-113 -44.5q-61 0 -96 44t-23 106z" />
<glyph unicode="&#xc5;" d="M172 0h209l145 326h365l14 -326h207l-47 1505h-203zM610 506l258 559l17 -559h-275zM780 1804q22 100 108 172t185 72t156 -72.5t35 -171.5q-22 -100 -108.5 -171.5t-184.5 -71.5q-100 0 -156.5 71.5t-34.5 171.5zM922 1804q-9 -41 13.5 -69.5t65.5 -28.5q40 0 75 28.5 t44 69.5t-13.5 72t-62.5 31q-42 0 -77.5 -30.5t-44.5 -72.5z" />
<glyph unicode="&#xc6;" d="M-92 0l872 1505h785l-39 -180h-484l-96 -457h301l-39 -180h-301l-108 -508h483l-37 -180h-684l64 305h-316l-182 -305h-219zM393 485h271l149 707z" />
<glyph unicode="&#xc7;" d="M272.5 203q-51.5 190 26.5 549q85 403 242 592.5t411 189.5q200 0 285.5 -110t46.5 -296h-199q20 100 -28 164t-144 64q-149 0 -237.5 -143.5t-155.5 -460.5q-34 -157 -44.5 -266t3.5 -186.5t58 -113.5t120 -36q97 0 171 61.5t96 161.5h198q-38 -178 -156.5 -285.5 t-301.5 -116.5l-5 -16q94 -3 135 -67.5t25 -143.5q-21 -93 -100.5 -156t-183.5 -63q-91 0 -135 59t-33 150h131q-3 -37 16.5 -55.5t48.5 -18.5q33 0 62.5 22.5t38.5 61.5q9 41 -9 64.5t-55 23.5h-115l31 148q-192 33 -243.5 223z" />
<glyph unicode="&#xc8;" d="M197 0l319 1505h848l-39 -180h-647l-96 -455h465l-39 -182h-465l-109 -508h647l-37 -180h-847zM713 2017h297l184 -381h-203z" />
<glyph unicode="&#xc9;" d="M197 0l319 1505h848l-39 -180h-647l-96 -455h465l-39 -182h-465l-109 -508h647l-37 -180h-847zM696 1636l346 381h295l-436 -381h-205z" />
<glyph unicode="&#xca;" d="M197 0l319 1505h848l-39 -180h-647l-96 -455h465l-39 -182h-465l-109 -508h647l-37 -180h-847zM575 1636l347 381h217l186 -381h-186l-146 207l-229 -207h-189z" />
<glyph unicode="&#xcb;" d="M197 0l319 1505h848l-39 -180h-647l-96 -455h465l-39 -182h-465l-109 -508h647l-37 -180h-847zM608 1825q12 60 65.5 103.5t114.5 43.5q60 0 94.5 -43.5t22.5 -103.5q-12 -61 -65 -105.5t-113 -44.5q-61 0 -96 44t-23 106zM1063 1825q12 60 65.5 103.5t114.5 43.5 q60 0 94.5 -43.5t22.5 -103.5q-12 -61 -65 -105.5t-113 -44.5q-61 0 -96 44t-23 106z" />
<glyph unicode="&#xcc;" d="M223 0l37 180h279l243 1145h-278l39 180h760l-39 -180h-281l-244 -1145h281l-37 -180h-760zM715 2017h297l184 -381h-203z" />
<glyph unicode="&#xcd;" d="M223 0l37 180h279l243 1145h-278l39 180h760l-39 -180h-281l-244 -1145h281l-37 -180h-760zM698 1636l346 381h295l-436 -381h-205z" />
<glyph unicode="&#xce;" d="M223 0l37 180h279l243 1145h-278l39 180h760l-39 -180h-281l-244 -1145h281l-37 -180h-760zM571 1636l347 381h217l186 -381h-186l-146 207l-229 -207h-189z" />
<glyph unicode="&#xcf;" d="M219 0l37 180h279l243 1145h-278l39 180h759l-38 -180h-281l-244 -1145h281l-37 -180h-760zM608 1825q12 60 65.5 103.5t114.5 43.5q60 0 94.5 -43.5t22.5 -103.5q-12 -61 -65 -105.5t-113 -44.5q-61 0 -96 44t-23 106zM1063 1825q12 60 65.5 103.5t114.5 43.5 q60 0 94.5 -43.5t22.5 -103.5q-12 -61 -65 -105.5t-113 -44.5q-61 0 -96 44t-23 106z" />
<glyph unicode="&#xd0;" d="M166 690l39 180h149l135 635h414q252 0 346.5 -198.5t20.5 -554.5q-75 -355 -254.5 -553.5t-431.5 -198.5h-414l145 690h-149zM408 180h213q77 0 139 29.5t105.5 78t79 125.5t58.5 155t46 184q16 75 25.5 134.5t14 120.5t-0.5 107t-19.5 87t-40.5 67.5t-67 41.5t-97 15 h-213l-96 -455h315l-39 -180h-315z" />
<glyph unicode="&#xd1;" d="M168 0l319 1505h191l264 -1003l213 1003h201l-320 -1505h-190l-264 1004l-213 -1004h-201zM647 1755q19 54 52 111t85 104t103 47q84 0 160 -47q68 -33 104 -33q68 0 98 80h103q-20 -55 -53.5 -112t-85.5 -103.5t-101 -46.5q-37 0 -85 14.5t-75 30.5q-57 33 -104 33 q-74 0 -105 -78h-96z" />
<glyph unicode="&#xd2;" d="M266 161q-77 190 10 591q85 404 242 593t408 189q254 0 330.5 -189.5t-9.5 -592.5q-87 -404 -243 -592.5t-410 -188.5q-251 0 -328 190zM452.5 487q-10.5 -108 3 -186t56.5 -114.5t119 -36.5q149 0 238.5 144t156.5 458q69 304 39.5 454t-178.5 150q-147 0 -235.5 -143.5 t-155.5 -460.5q-33 -157 -43.5 -265zM713 2017h297l184 -381h-203z" />
<glyph unicode="&#xd3;" d="M266 161q-77 190 10 591q85 404 242 593t408 189q254 0 330.5 -189.5t-9.5 -592.5q-87 -404 -243 -592.5t-410 -188.5q-251 0 -328 190zM452.5 487q-10.5 -108 3 -186t56.5 -114.5t119 -36.5q149 0 238.5 144t156.5 458q69 304 39.5 454t-178.5 150q-147 0 -235.5 -143.5 t-155.5 -460.5q-33 -157 -43.5 -265zM696 1636l346 381h295l-436 -381h-205z" />
<glyph unicode="&#xd4;" d="M266 161q-77 190 10 591q85 404 242 593t408 189q254 0 330.5 -189.5t-9.5 -592.5q-87 -404 -243 -592.5t-410 -188.5q-251 0 -328 190zM452.5 487q-10.5 -108 3 -186t56.5 -114.5t119 -36.5q149 0 238.5 144t156.5 458q69 304 39.5 454t-178.5 150q-147 0 -235.5 -143.5 t-155.5 -460.5q-33 -157 -43.5 -265zM571 1636l347 381h217l186 -381h-186l-146 207l-229 -207h-189z" />
<glyph unicode="&#xd5;" d="M266 161q-77 190 10 591q85 404 242 593t408 189q254 0 330.5 -189.5t-9.5 -592.5q-87 -404 -243 -592.5t-410 -188.5q-251 0 -328 190zM452.5 487q-10.5 -108 3 -186t56.5 -114.5t119 -36.5q149 0 238.5 144t156.5 458q69 304 39.5 454t-178.5 150q-147 0 -235.5 -143.5 t-155.5 -460.5q-33 -157 -43.5 -265zM647 1755q19 54 52 111t85 104t103 47q84 0 160 -47q68 -33 104 -33q68 0 98 80h103q-20 -55 -53.5 -112t-85.5 -103.5t-101 -46.5q-37 0 -85 14.5t-75 30.5q-57 33 -104 33q-74 0 -105 -78h-96z" />
<glyph unicode="&#xd6;" d="M266 161q-77 190 10 591q85 404 242 593t408 189q254 0 330.5 -189.5t-9.5 -592.5q-87 -404 -243 -592.5t-410 -188.5q-251 0 -328 190zM452.5 487q-10.5 -108 3 -186t56.5 -114.5t119 -36.5q149 0 238.5 144t156.5 458q69 304 39.5 454t-178.5 150q-147 0 -235.5 -143.5 t-155.5 -460.5q-33 -157 -43.5 -265zM608 1825q12 60 65.5 103.5t114.5 43.5q60 0 94.5 -43.5t22.5 -103.5q-12 -61 -65 -105.5t-113 -44.5q-61 0 -96 44t-23 106zM1063 1825q12 60 65.5 103.5t114.5 43.5q60 0 94.5 -43.5t22.5 -103.5q-12 -61 -65 -105.5t-113 -44.5 q-61 0 -96 44t-23 106z" />
<glyph unicode="&#xd7;" d="M289 367l307 256l-199 256l158 129l201 -256l309 258l104 -131l-311 -256l203 -256l-160 -131l-201 258q-54 -45 -161.5 -133t-147.5 -121z" />
<glyph unicode="&#xd8;" d="M190 -61l99 172q-108 195 -13 641q85 404 242 593t408 189q92 0 174 -29l33 62h194l-98 -172q114 -187 18 -643q-87 -404 -243 -592.5t-410 -188.5q-89 0 -174 29l-37 -61h-193zM446 383l547 944q-53 29 -106 29q-147 0 -235.5 -143.5t-155.5 -460.5q-50 -224 -50 -369z M526 176q46 -26 105 -26q149 0 238.5 144t156.5 458q41 194 47 366z" />
<glyph unicode="&#xd9;" d="M228 278q-1 72 16 166l225 1061h201l-226 -1061q-15 -84 -7 -140t40.5 -90.5t71 -49t84.5 -14.5q44 0 89 15.5t90.5 47.5t82 91.5t53.5 139.5l226 1061h200l-225 -1061q-23 -109 -69 -193.5t-102 -136t-124 -85t-130.5 -46t-127.5 -12.5q-54 0 -102.5 9t-97.5 30t-83 56 t-59 87.5t-26 124.5zM713 2017h297l184 -381h-203z" />
<glyph unicode="&#xda;" d="M228 278q-1 72 16 166l225 1061h201l-226 -1061q-15 -84 -7 -140t40.5 -90.5t71 -49t84.5 -14.5q44 0 89 15.5t90.5 47.5t82 91.5t53.5 139.5l226 1061h200l-225 -1061q-23 -109 -69 -193.5t-102 -136t-124 -85t-130.5 -46t-127.5 -12.5q-54 0 -102.5 9t-97.5 30t-83 56 t-59 87.5t-26 124.5zM696 1636l346 381h295l-436 -381h-205z" />
<glyph unicode="&#xdb;" d="M228 278q-1 72 16 166l225 1061h201l-226 -1061q-15 -84 -7 -140t40.5 -90.5t71 -49t84.5 -14.5q44 0 89 15.5t90.5 47.5t82 91.5t53.5 139.5l226 1061h200l-225 -1061q-23 -109 -69 -193.5t-102 -136t-124 -85t-130.5 -46t-127.5 -12.5q-54 0 -102.5 9t-97.5 30t-83 56 t-59 87.5t-26 124.5zM571 1636l347 381h217l186 -381h-186l-146 207l-229 -207h-189z" />
<glyph unicode="&#xdc;" d="M228 278q-1 72 16 166l225 1061h201l-226 -1061q-15 -84 -7 -140t40.5 -90.5t71 -49t84.5 -14.5q44 0 89 15.5t90.5 47.5t82 91.5t53.5 139.5l226 1061h200l-225 -1061q-23 -109 -69 -193.5t-102 -136t-124 -85t-130.5 -46t-127.5 -12.5q-54 0 -102.5 9t-97.5 30t-83 56 t-59 87.5t-26 124.5zM608 1825q12 60 65.5 103.5t114.5 43.5q60 0 94.5 -43.5t22.5 -103.5q-12 -61 -65 -105.5t-113 -44.5q-61 0 -96 44t-23 106zM1063 1825q12 60 65.5 103.5t114.5 43.5q60 0 94.5 -43.5t22.5 -103.5q-12 -61 -65 -105.5t-113 -44.5q-61 0 -96 44t-23 106 z" />
<glyph unicode="&#xdd;" d="M483 1505h209l107 -561l354 561h207l-514 -813l-146 -692h-200l145 692zM696 1636l346 381h295l-436 -381h-205z" />
<glyph unicode="&#xde;" d="M178 0l320 1505h200l-63 -295h153q251 0 362.5 -119.5t66.5 -330.5t-206.5 -330t-412.5 -119h-154l-65 -311h-201zM483 492h154q76 0 135.5 16t97 40.5t64.5 61.5t40.5 72t22.5 78q11 49 12.5 86t-10 73t-39.5 58.5t-81 36.5t-129 14h-154z" />
<glyph unicode="&#xdf;" d="M86 -117l236 1108q19 89 45 159t72 137.5t107.5 111.5t154 71t208.5 27q213 0 314.5 -102t60.5 -303q-46 -208 -231 -324q93 -61 123 -143.5t8 -190.5q-44 -208 -199.5 -321t-392.5 -113h-170l37 178h170q155 0 232 67t104 189q6 38 7.5 74t-13 68t-40 56t-73 38 t-111.5 14h-170l39 178h170q237 0 289 230q23 106 -30.5 166.5t-162.5 60.5q-54 0 -99 -11t-77.5 -28.5t-59.5 -44.5t-44.5 -53.5t-32 -62t-22 -64t-15.5 -64.5l-235 -1108h-199z" />
<glyph unicode="&#xe0;" d="M223 276q17 79 56 135t102 92.5t135 57.5t174 37l252 39l4 25q28 130 -19 182.5t-157 52.5q-62 0 -132.5 -47t-96.5 -119h-195q29 109 106.5 189t169 116.5t185.5 36.5q48 0 87 -3.5t81.5 -15t73.5 -30t57.5 -51t39 -75.5t12.5 -106t-17 -141l-137 -651h-109l-49 76 q-152 -105 -322 -105q-71 0 -129.5 16t-105.5 49.5t-65.5 95t-0.5 144.5zM432 276q-11 -60 19 -94.5t114 -34.5q176 0 299 125l41 191q-29 -4 -113.5 -18.5t-132.5 -20.5q-124 -19 -169 -52t-58 -96zM655 1556h297l185 -380h-203z" />
<glyph unicode="&#xe1;" d="M223 276q-18 -83 0.5 -144.5t65.5 -95t105.5 -49.5t129.5 -16q170 0 322 105l49 -76h109l137 651q17 78 17 141t-12.5 106t-39 75.5t-57.5 51t-73.5 30t-81.5 15t-87 3.5q-94 0 -185.5 -36.5t-169 -116.5t-106.5 -189h195q26 72 96.5 119t132.5 47q110 0 157 -52.5 t19 -182.5l-4 -25l-252 -39q-102 -16 -174 -37t-135 -57.5t-102 -92.5t-56 -135zM432 276q13 63 58 96t169 52q48 6 132.5 20.5t113.5 18.5l-41 -191q-123 -125 -299 -125q-84 0 -114 34.5t-19 94.5zM598 1176l346 380h295l-436 -380h-205z" />
<glyph unicode="&#xe2;" d="M223 276q17 79 56 135t102 92.5t135 57.5t174 37l252 39l4 25q28 130 -19 182.5t-157 52.5q-62 0 -132.5 -47t-96.5 -119h-195q29 109 106.5 189t169 116.5t185.5 36.5q48 0 87 -3.5t81.5 -15t73.5 -30t57.5 -51t39 -75.5t12.5 -106t-17 -141l-137 -651h-109l-49 76 q-152 -105 -322 -105q-71 0 -129.5 16t-105.5 49.5t-65.5 95t-0.5 144.5zM432 276q-11 -60 19 -94.5t114 -34.5q176 0 299 125l41 191q-29 -4 -113.5 -18.5t-132.5 -20.5q-124 -19 -169 -52t-58 -96zM479 1176l346 380h217l187 -380h-187l-145 206l-229 -206h-189z" />
<glyph unicode="&#xe3;" d="M223 276q17 79 56 135t102 92.5t135 57.5t174 37l252 39l4 25q28 130 -19 182.5t-157 52.5q-62 0 -132.5 -47t-96.5 -119h-195q29 109 106.5 189t169 116.5t185.5 36.5q48 0 87 -3.5t81.5 -15t73.5 -30t57.5 -51t39 -75.5t12.5 -106t-17 -141l-137 -651h-109l-49 76 q-152 -105 -322 -105q-71 0 -129.5 16t-105.5 49.5t-65.5 95t-0.5 144.5zM432 276q-11 -60 19 -94.5t114 -34.5q176 0 299 125l41 191q-29 -4 -113.5 -18.5t-132.5 -20.5q-124 -19 -169 -52t-58 -96zM549 1294q19 54 52 111t84.5 104t102.5 47q84 0 160 -47q66 -32 105 -32 q69 0 98 79h102q-20 -55 -53.5 -112t-85 -103.5t-100.5 -46.5q-37 0 -85 14.5t-75 30.5q-57 33 -104 33q-74 0 -105 -78h-96z" />
<glyph unicode="&#xe4;" d="M223 276q-18 -83 0.5 -144.5t65.5 -95t105.5 -49.5t129.5 -16q170 0 322 105l49 -76h109l137 651q17 78 17 141t-12.5 106t-39 75.5t-57.5 51t-73.5 30t-81.5 15t-87 3.5q-94 0 -185.5 -36.5t-169 -116.5t-106.5 -189h195q26 72 96.5 119t132.5 47q110 0 157 -52.5 t19 -182.5l-4 -25l-252 -39q-102 -16 -174 -37t-135 -57.5t-102 -92.5t-56 -135zM432 276q13 63 58 96t169 52q48 6 132.5 20.5t113.5 18.5l-41 -191q-123 -125 -299 -125q-84 0 -114 34.5t-19 94.5zM510 1364q12 60 65.5 103.5t114.5 43.5q60 0 94.5 -43.5t22.5 -103.5 q-12 -61 -65 -105.5t-113 -44.5q-61 0 -96 44t-23 106zM965 1364q12 60 65.5 103.5t114.5 43.5q60 0 94.5 -43.5t22.5 -103.5q-12 -61 -65.5 -105.5t-113.5 -44.5q-61 0 -95.5 44t-22.5 106z" />
<glyph unicode="&#xe5;" d="M223 276q-18 -83 0.5 -144.5t65.5 -95t105.5 -49.5t129.5 -16q170 0 322 105l49 -76h109l137 651q17 78 17 141t-12.5 106t-39 75.5t-57.5 51t-73.5 30t-81.5 15t-87 3.5q-94 0 -185.5 -36.5t-169 -116.5t-106.5 -189h195q26 72 96.5 119t132.5 47q110 0 157 -52.5 t19 -182.5l-4 -25l-252 -39q-102 -16 -174 -37t-135 -57.5t-102 -92.5t-56 -135zM432 276q13 63 58 96t169 52q48 6 132.5 20.5t113.5 18.5l-41 -191q-123 -125 -299 -125q-84 0 -114 34.5t-19 94.5zM641 1343q22 100 108 172t185 72t155.5 -72.5t34.5 -171.5 q-22 -100 -108.5 -171.5t-184.5 -71.5q-100 0 -156 71.5t-34 171.5zM782 1343q-9 -41 14 -69.5t66 -28.5q40 0 75 28.5t44 69.5t-13.5 72t-62.5 31q-42 0 -78 -30.5t-45 -72.5z" />
<glyph unicode="&#xe6;" d="M-16.5 155.5q-9.5 51.5 6.5 120.5q11 52 34.5 95.5t54 75t75 56.5t88.5 41.5t104 30t111.5 21.5t120.5 16l2 11q8 36 12 57.5t8.5 49t5.5 43t1 35t-3.5 29.5t-10 22t-16.5 17.5t-24 11t-32.5 7.5t-41.5 2q-59 0 -108.5 -38.5t-73.5 -113.5h-199q47 170 158 249t260 79 q206 0 262 -123q47 51 108.5 80t110.5 36t111 7q79 0 136.5 -21t91 -51t50 -83t21.5 -95t-2 -110t-14 -105.5t-21 -103.5l-14 -62h-602q-20 -159 15 -227t142 -68q42 0 76.5 13t56.5 34t34 38.5t20 35.5h213q-7 -12 -21 -32t-59 -71.5t-93 -90.5t-120 -71t-144 -32 q-74 0 -156.5 41t-115.5 119q-62 -84 -147 -122t-203 -38q-50 0 -93 9.5t-82 31.5t-61.5 57t-32 86.5zM199 276q-14 -67 14 -98t102 -31q58 0 109.5 36.5t85.5 107.5l35 164q-170 -12 -248 -50.5t-98 -128.5zM795 621h393q8 34 12 57.5t7 55t0.5 52.5t-10.5 44t-23.5 36 t-41.5 22t-61 9q-100 0 -165.5 -66.5t-110.5 -209.5z" />
<glyph unicode="&#xe7;" d="M293 522q31 148 91 258t137.5 172t162.5 91.5t178 29.5q75 0 134.5 -23t93.5 -60t57 -83.5t24.5 -93t-4.5 -88.5h-198q12 63 -23 117.5t-121 54.5q-254 0 -333 -375t174 -375q86 0 144.5 54.5t72.5 117.5h198q-11 -53 -44.5 -109.5t-85 -109.5t-128.5 -89t-164 -40 l-4 -16q92 -3 132.5 -66t23.5 -141q-19 -90 -97 -152.5t-179 -62.5q-91 0 -135 57.5t-33 147.5h129q-1 -36 18.5 -54t48.5 -18q31 0 59 22t35 60q9 41 -7 64.5t-52 23.5h-115l33 146q-147 35 -211 166.5t-12 373.5z" />
<glyph unicode="&#xe8;" d="M272 305q-7 93 21 217q31 148 91 258t138 172t163.5 91.5t180.5 29.5q85 0 147 -26t95 -72.5t51 -101.5t18 -123t-6.5 -125.5t-19.5 -120.5l-14 -62h-660q-21 -156 29.5 -225.5t163.5 -69.5q82 0 141.5 55t73.5 117h196q-12 -54 -48 -112.5t-91.5 -112.5t-137 -88.5 t-171.5 -34.5q-74 0 -135 17.5t-113 57t-79 103t-34 156.5zM518 621h451q12 50 9.5 99.5t-15 88.5t-47 63.5t-87.5 24.5q-120 0 -193 -64t-118 -212zM629 1556h297l184 -380h-203z" />
<glyph unicode="&#xe9;" d="M272 305q-7 93 21 217q31 148 91 258t138 172t163.5 91.5t180.5 29.5q85 0 147 -26t95 -72.5t51 -101.5t18 -123t-6.5 -125.5t-19.5 -120.5l-14 -62h-660q-21 -156 29.5 -225.5t163.5 -69.5q82 0 141.5 55t73.5 117h196q-12 -54 -48 -112.5t-91.5 -112.5t-137 -88.5 t-171.5 -34.5q-74 0 -135 17.5t-113 57t-79 103t-34 156.5zM518 621h451q12 50 9.5 99.5t-15 88.5t-47 63.5t-87.5 24.5q-120 0 -193 -64t-118 -212zM659 1176l347 380h294l-436 -380h-205z" />
<glyph unicode="&#xea;" d="M272 305q-7 93 21 217q31 148 91 258t138 172t163.5 91.5t180.5 29.5q85 0 147 -26t95 -72.5t51 -101.5t18 -123t-6.5 -125.5t-19.5 -120.5l-14 -62h-660q-21 -156 29.5 -225.5t163.5 -69.5q82 0 141.5 55t73.5 117h196q-12 -54 -48 -112.5t-91.5 -112.5t-137 -88.5 t-171.5 -34.5q-74 0 -135 17.5t-113 57t-79 103t-34 156.5zM506 1176l346 380h217l186 -380h-186l-145 206l-230 -206h-188zM518 621h451q12 50 9.5 99.5t-15 88.5t-47 63.5t-87.5 24.5q-120 0 -193 -64t-118 -212z" />
<glyph unicode="&#xeb;" d="M272 305q-7 93 21 217q31 148 91 258t138 172t163.5 91.5t180.5 29.5q85 0 147 -26t95 -72.5t51 -101.5t18 -123t-6.5 -125.5t-19.5 -120.5l-14 -62h-660q-21 -156 29.5 -225.5t163.5 -69.5q82 0 141.5 55t73.5 117h196q-12 -54 -48 -112.5t-91.5 -112.5t-137 -88.5 t-171.5 -34.5q-74 0 -135 17.5t-113 57t-79 103t-34 156.5zM518 621h451q12 50 9.5 99.5t-15 88.5t-47 63.5t-87.5 24.5q-120 0 -193 -64t-118 -212zM541 1364q12 60 65.5 103.5t114.5 43.5q60 0 94.5 -43.5t22.5 -103.5q-12 -61 -65.5 -105.5t-113.5 -44.5q-61 0 -95.5 44 t-22.5 106zM995 1364q12 60 65.5 103.5t115.5 43.5q60 0 94 -43.5t22 -103.5q-12 -61 -65 -105.5t-113 -44.5q-61 0 -96 44t-23 106z" />
<glyph unicode="&#xec;" d="M229 0l35 168h279l143 672l-207 59l31 145h418l-187 -876h258l-34 -168h-736zM596 1554h297l184 -380h-203z" />
<glyph unicode="&#xed;" d="M229 0l35 168h279l143 672l-207 59l31 145h418l-187 -876h258l-34 -168h-736zM590 1174l346 380h295l-436 -380h-205z" />
<glyph unicode="&#xee;" d="M229 0l35 168h279l143 672l-207 59l31 145h418l-187 -876h258l-34 -168h-736zM463 1174l346 380h217l186 -380h-186l-145 206l-230 -206h-188z" />
<glyph unicode="&#xef;" d="M231 0l35 168h277l143 672l-205 59l31 145h416l-187 -876h260l-34 -168h-736zM457 1364q12 60 65.5 103.5t114.5 43.5q60 0 94.5 -43.5t22.5 -103.5q-12 -61 -65.5 -105.5t-113.5 -44.5q-61 0 -95.5 44t-22.5 106zM911 1364q12 60 65.5 103.5t115.5 43.5q60 0 94 -43.5 t22 -103.5q-12 -61 -65 -105.5t-113 -44.5q-61 0 -96 44t-23 106z" />
<glyph unicode="&#xf0;" d="M214.5 307.5q-6.5 92.5 21.5 214.5q25 119 70 214t99.5 157.5t122 103.5t135 58.5t140.5 17.5q13 0 14.5 2.5t13.5 -2.5q-4 12 -13.5 33.5t-14.5 34.5h-215l35 168h114l-65 170h223l66 -170h184l-35 -168h-84l100 -256q57 -151 13 -363q-26 -119 -70.5 -214t-100 -157.5 t-122.5 -103.5t-135.5 -58.5t-141.5 -17.5t-133 18t-110.5 58t-77.5 104t-33.5 156.5zM434 522q-80 -375 172 -375q254 0 334 375q77 375 -174 375q-255 0 -332 -375z" />
<glyph unicode="&#xf1;" d="M182 0l221 1044h107l47 -71q148 100 287 100q396 0 317 -379l-147 -694h-197l141 666q23 112 -9.5 171.5t-141.5 59.5q-57 0 -123.5 -30.5t-104.5 -60.5l-38 -30l-164 -776h-195zM549 1294q19 54 52 111t84.5 104t102.5 47q84 0 160 -47q66 -32 105 -32q69 0 98 79h102 q-20 -55 -53.5 -112t-85 -103.5t-100.5 -46.5q-37 0 -85 14.5t-75 30.5q-57 33 -104 33q-74 0 -105 -78h-96z" />
<glyph unicode="&#xf2;" d="M234.5 307.5q-6.5 92.5 21.5 214.5q25 119 69.5 214t99 157.5t121.5 103.5t135.5 58.5t141.5 17.5t133.5 -18t111.5 -58t78 -104t34 -156.5t-21 -214.5q-26 -119 -70.5 -214t-99.5 -157.5t-122 -103.5t-135.5 -58.5t-141.5 -17.5t-133.5 18t-111.5 58t-77.5 104 t-33 156.5zM455 522q-41 -191 2.5 -283t169.5 -92q251 0 331 375q39 191 -4.5 283t-167.5 92q-254 0 -331 -375zM612 1556h297l185 -380h-203z" />
<glyph unicode="&#xf3;" d="M234.5 307.5q6.5 -92.5 33 -156.5t77.5 -104t111.5 -58t133.5 -18t141.5 17.5t135.5 58.5t122 103.5t99.5 157.5t70.5 214q28 122 21 214.5t-34 156.5t-78 104t-111.5 58t-133.5 18t-141.5 -17.5t-135.5 -58.5t-121.5 -103.5t-99 -157.5t-69.5 -214 q-28 -122 -21.5 -214.5zM455 522q77 375 331 375q124 0 167.5 -92t4.5 -283q-80 -375 -331 -375q-126 0 -169.5 92t-2.5 283zM596 1176l346 380h295l-436 -380h-205z" />
<glyph unicode="&#xf4;" d="M234.5 307.5q-6.5 92.5 21.5 214.5q25 119 69.5 214t99 157.5t121.5 103.5t135.5 58.5t141.5 17.5t133.5 -18t111.5 -58t78 -104t34 -156.5t-21 -214.5q-26 -119 -70.5 -214t-99.5 -157.5t-122 -103.5t-135.5 -58.5t-141.5 -17.5t-133.5 18t-111.5 58t-77.5 104 t-33 156.5zM455 522q-41 -191 2.5 -283t169.5 -92q251 0 331 375q39 191 -4.5 283t-167.5 92q-254 0 -331 -375zM471 1176l346 380h217l187 -380h-187l-145 206l-230 -206h-188z" />
<glyph unicode="&#xf5;" d="M234.5 307.5q-6.5 92.5 21.5 214.5q25 119 69.5 214t99 157.5t121.5 103.5t135.5 58.5t141.5 17.5t133.5 -18t111.5 -58t78 -104t34 -156.5t-21 -214.5q-26 -119 -70.5 -214t-99.5 -157.5t-122 -103.5t-135.5 -58.5t-141.5 -17.5t-133.5 18t-111.5 58t-77.5 104 t-33 156.5zM455 522q-41 -191 2.5 -283t169.5 -92q251 0 331 375q39 191 -4.5 283t-167.5 92q-254 0 -331 -375zM547 1294q19 54 52 111t84.5 104t102.5 47q84 0 160 -47q66 -32 105 -32q69 0 98 79h102q-20 -55 -53.5 -112t-85 -103.5t-100.5 -46.5q-37 0 -85 14.5 t-75 30.5q-57 33 -104 33q-74 0 -105 -78h-96z" />
<glyph unicode="&#xf6;" d="M234.5 307.5q6.5 -92.5 33 -156.5t77.5 -104t111.5 -58t133.5 -18t141.5 17.5t135.5 58.5t122 103.5t99.5 157.5t70.5 214q28 122 21 214.5t-34 156.5t-78 104t-111.5 58t-133.5 18t-141.5 -17.5t-135.5 -58.5t-121.5 -103.5t-99 -157.5t-69.5 -214 q-28 -122 -21.5 -214.5zM455 522q77 375 331 375q124 0 167.5 -92t4.5 -283q-80 -375 -331 -375q-126 0 -169.5 92t-2.5 283zM508 1364q12 60 65.5 103.5t114.5 43.5q60 0 94.5 -43.5t22.5 -103.5q-12 -61 -65 -105.5t-113 -44.5q-61 0 -96 44t-23 106zM963 1364 q12 60 65.5 103.5t114.5 43.5q60 0 94.5 -43.5t22.5 -103.5q-12 -61 -65.5 -105.5t-113.5 -44.5q-61 0 -95.5 44t-22.5 106z" />
<glyph unicode="&#xf7;" d="M258 537l37 176h903l-37 -176h-903zM485 102l66 306h264l-65 -306h-265zM643 842l66 305h264l-66 -305h-264z" />
<glyph unicode="&#xf8;" d="M276 -51l66 112q-124 143 -55 461q31 149 86.5 258.5t128 172.5t152.5 92.5t171 29.5q62 0 140 -20l24 41h180l-84 -131q106 -145 45 -443q-32 -149 -88 -258.5t-128.5 -172.5t-152.5 -92.5t-171 -29.5q-34 0 -119 19l-18 -39h-177zM463 260q20 32 397 629q-33 8 -72 8 q-125 0 -203 -91t-118 -284q-32 -147 -4 -262zM575 154q35 -7 54 -7q120 0 202.5 100t120.5 275q25 125 9 240z" />
<glyph unicode="&#xf9;" d="M256 350l147 694h195l-141 -665q-25 -111 8.5 -171.5t142.5 -60.5q57 0 123 30.5t103 60.5l38 30l166 776h197l-221 -1044h-109l-47 72q-150 -101 -287 -101q-187 0 -272 88.5t-43 290.5zM614 1556h297l185 -380h-203z" />
<glyph unicode="&#xfa;" d="M256 350l147 694h195l-141 -665q-25 -111 8.5 -171.5t142.5 -60.5q57 0 123 30.5t103 60.5l38 30l166 776h197l-221 -1044h-109l-47 72q-150 -101 -287 -101q-187 0 -272 88.5t-43 290.5zM598 1176l346 380h295l-436 -380h-205z" />
<glyph unicode="&#xfb;" d="M256 350l147 694h195l-141 -665q-25 -111 8.5 -171.5t142.5 -60.5q57 0 123 30.5t103 60.5l38 30l166 776h197l-221 -1044h-109l-47 72q-150 -101 -287 -101q-187 0 -272 88.5t-43 290.5zM473 1176l346 380h217l187 -380h-187l-145 206l-229 -206h-189z" />
<glyph unicode="&#xfc;" d="M256 350l147 694h195l-141 -665q-25 -111 8.5 -171.5t142.5 -60.5q57 0 123 30.5t103 60.5l38 30l166 776h197l-221 -1044h-109l-47 72q-150 -101 -287 -101q-187 0 -272 88.5t-43 290.5zM510 1364q12 60 65.5 103.5t114.5 43.5q60 0 94.5 -43.5t22.5 -103.5 q-12 -61 -65 -105.5t-113 -44.5q-61 0 -96 44t-23 106zM965 1364q12 60 65.5 103.5t114.5 43.5q60 0 94.5 -43.5t22.5 -103.5q-12 -61 -65.5 -105.5t-113.5 -44.5q-61 0 -95.5 44t-22.5 106z" />
<glyph unicode="&#xfd;" d="M137 -342l37 172l49 -4q58 -8 88 -8q29 0 47 4.5t42.5 22t53 55t66.5 100.5h-31l-176 1044h217l121 -815l473 815h213l-614 -1028q-62 -104 -116.5 -175t-95.5 -110.5t-85 -59.5t-75.5 -25t-78.5 -4q-42 0 -88 12q-7 0 -26 2t-21 2zM604 1176l346 380h295l-436 -380h-205 z" />
<glyph unicode="&#xfe;" d="M84 -360l401 1888h197l-113 -527q105 72 238 72q73 0 133 -18t111 -58t78 -104t34.5 -156.5t-20.5 -214.5q-32 -148 -92.5 -258t-138 -172t-161.5 -91.5t-176 -29.5q-44 0 -96 18.5t-82 36.5l-30 19l-86 -405h-197zM418 283q14 -71 69 -103.5t123 -32.5q128 0 210.5 92 t123.5 283q35 168 -8 271.5t-166 103.5q-44 0 -86 -15.5t-71 -37.5t-52 -43.5t-34 -36.5l-11 -16z" />
<glyph unicode="&#xff;" d="M137 -342l37 172l49 -4q58 -8 88 -8q29 0 47 4.5t42.5 22t53 55t66.5 100.5h-31l-176 1044h217l121 -815l473 815h213l-614 -1028q-62 -104 -116.5 -175t-95.5 -110.5t-85 -59.5t-75.5 -25t-78.5 -4q-42 0 -88 12q-7 0 -26 2t-21 2zM516 1364q12 60 65.5 103.5 t114.5 43.5q60 0 94.5 -43.5t22.5 -103.5q-12 -61 -65 -105.5t-113 -44.5q-61 0 -96 44t-23 106zM971 1364q12 60 65.5 103.5t114.5 43.5q60 0 94.5 -43.5t22.5 -103.5q-12 -61 -65 -105.5t-113 -44.5q-61 0 -96 44t-23 106z" />
<glyph unicode="&#x152;" d="M33 161q-69 190 20 591q86 409 233.5 595.5t397.5 186.5q145 0 215 -59l6 30h686l-39 -180h-485l-96 -455h301l-39 -182h-301l-109 -508h486l-37 -180h-686l6 31q-98 -60 -240 -60q-250 0 -319 190zM221 417.5q-5 -70.5 2.5 -118t26.5 -82.5t54 -51t85 -16 q105 0 179.5 61.5t97.5 169.5l157 741q23 110 -25 172t-153 62q-51 0 -92 -16t-75.5 -51t-62 -82t-52.5 -118.5t-45.5 -150.5t-43.5 -186q-23 -106 -35.5 -185t-17.5 -149.5z" />
<glyph unicode="&#x153;" d="M29 522q116 551 485 551q216 0 262 -166q55 74 141 120t191 46q84 0 142.5 -29.5t89 -78.5t41.5 -119t5.5 -145t-24.5 -162l-21 -97h-569q-38 -295 139 -295q98 0 170 121h197q-33 -60 -68 -107t-84.5 -93t-113.5 -71.5t-138 -25.5q-107 0 -169.5 34t-94.5 122 q-70 -88 -148 -122t-181 -34q-368 0 -252 551zM201 249.5q24 -102.5 116 -102.5q95 0 171 100t114 275q79 375 -125 375q-95 0 -157.5 -90.5t-102.5 -284.5q-40 -170 -16 -272.5zM811 621h381l4 20q25 117 -10 186.5t-115 69.5q-182 0 -260 -276z" />
<glyph unicode="&#x178;" d="M483 1505h209l107 -561l354 561h207l-514 -813l-146 -692h-200l145 692zM608 1825q12 60 65.5 103.5t114.5 43.5q60 0 94.5 -43.5t22.5 -103.5q-12 -61 -65 -105.5t-113 -44.5q-61 0 -96 44t-23 106zM1063 1825q12 60 65.5 103.5t114.5 43.5q60 0 94.5 -43.5t22.5 -103.5 q-12 -61 -65 -105.5t-113 -44.5q-61 0 -96 44t-23 106z" />
<glyph unicode="&#x2c6;" d="M471 1176l346 380h217l187 -380h-187l-145 206l-230 -206h-188z" />
<glyph unicode="&#x2dc;" d="M547 1294q19 54 52 111t84.5 104t102.5 47q84 0 160 -47q66 -32 105 -32q69 0 98 79h102q-20 -55 -53.5 -112t-85 -103.5t-100.5 -46.5q-37 0 -85 14.5t-75 30.5q-57 33 -104 33q-74 0 -105 -78h-96z" />
<glyph unicode="&#x2000;" horiz-adv-x="1024" />
<glyph unicode="&#x2001;" horiz-adv-x="2048" />
<glyph unicode="&#x2002;" horiz-adv-x="1024" />
<glyph unicode="&#x2003;" horiz-adv-x="2048" />
<glyph unicode="&#x2004;" horiz-adv-x="682" />
<glyph unicode="&#x2005;" horiz-adv-x="512" />
<glyph unicode="&#x2006;" horiz-adv-x="341" />
<glyph unicode="&#x2007;" horiz-adv-x="341" />
<glyph unicode="&#x2008;" horiz-adv-x="256" />
<glyph unicode="&#x2009;" horiz-adv-x="409" />
<glyph unicode="&#x200a;" horiz-adv-x="113" />
<glyph unicode="&#x2010;" d="M362 461l39 178h662l-39 -178h-662z" />
<glyph unicode="&#x2011;" d="M362 461l39 178h662l-39 -178h-662z" />
<glyph unicode="&#x2012;" d="M362 461l39 178h662l-39 -178h-662z" />
<glyph unicode="&#x2013;" d="M233 461l39 178h920l-39 -178h-920z" />
<glyph unicode="&#x2014;" d="M102 461l39 178h1184l-39 -178h-1184z" />
<glyph unicode="&#x2018;" d="M713 946l57 277q29 135 134.5 214t258.5 79l-30 -144q-147 0 -187 -121h94l-63 -305h-264z" />
<glyph unicode="&#x2019;" d="M549 926l31 145q140 0 182 121h-90l65 305h262l-59 -276q-30 -136 -133.5 -215.5t-257.5 -79.5z" />
<glyph unicode="&#x201a;" d="M584 1094l30 143q75 0 121 33.5t62 87.5h-90l65 305h262l-59 -277q-28 -135 -132 -213.5t-259 -78.5z" />
<glyph unicode="&#x201c;" d="M500 987l59 277q28 135 132 213.5t257 78.5l-30 -145q-149 0 -183 -119h92l-65 -305h-262zM942 987l59 277q28 135 132.5 213.5t257.5 78.5l-31 -145q-148 0 -182 -119h92l-66 -305h-262z" />
<glyph unicode="&#x201d;" d="M334 956l31 146q75 0 120 33.5t60 87.5h-90l65 305h262l-59 -277q-28 -136 -132 -215.5t-257 -79.5zM776 956l31 146q75 0 120.5 33.5t61.5 87.5h-92l66 305h264l-60 -277q-28 -136 -133 -215.5t-258 -79.5z" />
<glyph unicode="&#x201e;" d="M334 956l31 146q75 0 120 33.5t60 87.5h-90l65 305h262l-59 -277q-28 -136 -132 -215.5t-257 -79.5zM776 956l31 146q75 0 120.5 33.5t61.5 87.5h-92l66 305h264l-60 -277q-28 -136 -133 -215.5t-258 -79.5z" />
<glyph unicode="&#x2022;" d="M446 557q23 109 119.5 187.5t206.5 78.5q109 0 170.5 -78.5t38.5 -187.5q-23 -110 -118 -188t-204 -78q-111 0 -173.5 78t-39.5 188z" />
<glyph unicode="&#x2026;" d="M-8 0l63 305h264l-63 -305h-264zM465 0l63 305h265l-64 -305h-264zM940 0l64 305h262l-64 -305h-262z" />
<glyph unicode="&#x202f;" horiz-adv-x="409" />
<glyph unicode="&#x2039;" d="M471 614l379 430h242l-381 -432l196 -430h-243z" />
<glyph unicode="&#x203a;" d="M358 182l377 430l-192 432h239l197 -432l-381 -430h-240z" />
<glyph unicode="&#x205f;" horiz-adv-x="512" />
<glyph unicode="&#x20ac;" d="M164 516l39 180h186l21 103h-187l39 180h197q92 288 232.5 418.5t355.5 130.5q173 0 259.5 -96t104.5 -285h-215q-23 201 -188 201q-111 0 -190.5 -92.5t-139.5 -276.5h405l-39 -180h-415l-21 -103h416l-39 -180h-405q-19 -182 22.5 -274t151.5 -92q90 0 155 50.5 t117 149.5h215q-95 -188 -223.5 -284.5t-302.5 -96.5q-210 0 -294.5 133.5t-58.5 413.5h-198z" />
<glyph unicode="&#x2122;" d="M270 1329l37 168h524l-36 -168h-172l-127 -598h-181l127 598h-172zM766 731l164 766h166l71 -360l222 360h167l-163 -766h-168l75 350l-141 -219h-104l-43 221l-76 -352h-170z" />
<glyph unicode="&#x25fc;" horiz-adv-x="1044" d="M0 0v1044h1044v-1044h-1044z" />
<glyph unicode="&#xfb01;" d="M80 866l39 178h270l17 76q22 105 57.5 183t77.5 126t97.5 77t111 39.5t124.5 10.5q41 0 90 -11t78 -21l29 -11l-37 -170q-104 31 -198 31q-101 0 -155 -62t-87 -220l-10 -48h618l-184 -866h260l-37 -178h-735l37 178h278l146 688h-422l-183 -866h-194l182 866h-270z" />
<glyph unicode="&#xfb02;" d="M88 866l39 178h268l17 76q28 131 74.5 219.5t110.5 134.5t131.5 64t154.5 18q57 0 102.5 -5t89 -18.5t74 -35t54 -55t34 -78.5t8.5 -106.5t-18 -137.5l-201 -942h260l-37 -178h-735l37 178h278l146 688h-422l-182 -866h-197l182 866h-268zM590 1044h422l10 48 q34 159 -5 220.5t-173 61.5q-102 0 -155 -61.5t-87 -220.5z" />
</font>
</defs>
</svg>
