<?xml version="1.0" standalone="no"?>
<!DOCTYPE svg PUBLIC "-//W3C//DTD SVG 1.1//EN" "http://www.w3.org/Graphics/SVG/1.1/DTD/svg11.dtd" >
<svg xmlns="http://www.w3.org/2000/svg">
<metadata></metadata>
<defs>
<font id="ume_p_minchoregular" horiz-adv-x="1024" vert-adv-y="2048" >
<font-face units-per-em="2048" ascent="1760" descent="-288" />
<missing-glyph horiz-adv-x="624" />
<glyph horiz-adv-x="2048" vert-adv-y="0" />
<glyph horiz-adv-x="2048" vert-adv-y="0" />
<glyph unicode="&#xd;" horiz-adv-x="682" />
<glyph unicode=" "  horiz-adv-x="624" />
<glyph unicode="&#x09;" horiz-adv-x="624" />
<glyph unicode="&#xa0;" horiz-adv-x="624" />
<glyph unicode="!" horiz-adv-x="624" d="M208 32q0 41 28 72q29 32 76 32t76 -32q28 -31 28 -72t-28 -72q-29 -32 -76 -32t-76 32q-28 31 -28 72zM208 1624h200l-72 -1224h-56z" />
<glyph unicode="&#x22;" horiz-adv-x="944" d="M224 1192q112 88 152 224q-55 7 -92 40q-36 32 -36 80q0 87 44 116q43 28 84 28q56 0 96 -40t40 -104q0 -121 -76 -228t-180 -148zM592 1184q112 88 152 224q-55 7 -92 40q-36 32 -36 80q0 87 44 116q43 28 84 28q56 0 96 -40t40 -104q0 -121 -76 -228t-180 -148z" />
<glyph unicode="#" d="M64 344v152h202l40 520h-242v152h253l35 456h64l-35 -456h312l35 456h72l-37 -456h197v-152h-210l-42 -520h252v-152h-264l-40 -496h-64l38 496h-312l-38 -496h-64l38 496h-190zM330 496h312l40 520h-312z" />
<glyph unicode="$" d="M80 32v456h72q24 -151 80 -228q54 -74 128 -116q48 -26 104 -34v594q-209 72 -280 140q-80 77 -80 204q0 152 128 256q112 91 232 102v274h96v-274q57 -5 100 -18q67 -19 140 -68l80 88h72v-440h-72q-7 112 -60 196q-53 85 -132 128q-54 31 -128 40v-526 q218 -72 296 -170q80 -101 80 -244q0 -176 -104 -268q-98 -87 -272 -92v-184h-96v188q-59 6 -104 24q-72 28 -136 100l-72 -128h-72zM240 1048q8 -97 72 -140q49 -33 152 -70v496q-77 -10 -144 -74q-80 -77 -80 -212zM560 104q94 5 160 68q72 68 72 220q0 80 -48 152 q-43 63 -184 124v-564z" />
<glyph unicode="%" d="M104 1280q0 152 72 248t176 96t176 -96t72 -248t-72 -248t-176 -96t-176 92t-72 252zM144 -120l664 1744l72 -32l-664 -1744zM208 1280q0 -128 44 -208t100 -80t100 80t44 208q0 127 -44 212q-43 84 -100 84q-56 0 -100 -84q-44 -85 -44 -212zM424 192q0 152 72 248 t176 96t176 -96t72 -248t-72 -248t-176 -96t-176 92t-72 252zM528 192q0 -128 44 -208t100 -80t100 80t44 208q0 127 -44 212q-43 84 -100 84q-56 0 -100 -84q-44 -85 -44 -212z" />
<glyph unicode="&#x26;" horiz-adv-x="1256" d="M80 368q0 135 80 236q45 56 154 118q-74 178 -74 326q0 232 104 328t240 96t224 -84t88 -204q0 -119 -80 -232q-79 -111 -248 -184q-64 -26 -118 -54q4 -10 14 -30q103 -211 284 -384q39 -37 59 -54q23 22 49 54q136 172 136 388h-104v48h280v-48h-112q0 -264 -144 -460 q-15 -20 -34 -41q80 -59 122 -59q104 -8 160 144l48 -16q-48 -256 -208 -256q-90 0 -221 102q-113 -70 -259 -70q-232 0 -336 104t-104 232zM224 368q0 -112 72 -176q71 -64 224 -64q96 0 180 41l-12 11q-192 180 -320 428l-21 42q-46 -36 -67 -70q-56 -92 -56 -212z M360 1048q0 -116 62 -270q24 12 122 54q128 65 180 160t52 192q0 104 -60 164t-132 60q-80 0 -152 -80t-72 -280z" />
<glyph unicode="'" horiz-adv-x="624" d="M152 1192q112 88 152 224q-55 7 -92 40q-36 32 -36 80q0 87 44 116q43 28 84 28q56 0 96 -40t40 -104q0 -121 -76 -228t-180 -148z" />
<glyph unicode="(" horiz-adv-x="624" d="M56 736q0 256 120 496q120 239 384 400l32 -48q-249 -210 -328 -408q-80 -201 -80 -440q0 -223 80 -424q79 -199 328 -416l-32 -48q-264 151 -384 404q-120 252 -120 484z" />
<glyph unicode=")" horiz-adv-x="624" d="M32 -104q239 199 324 400q84 200 84 440q0 232 -84 432t-324 416l32 48q264 -151 384 -404q120 -252 120 -492q0 -256 -120 -492t-384 -396z" />
<glyph unicode="*" d="M24 448q8 18 8 32q17 48 80 72q62 27 128 64q63 31 192 128q31 16 0 32q-112 78 -192 128q-66 29 -128 64q-63 24 -80 72q-16 48 8 72q16 24 72 24q47 -7 88 -56q39 -47 88 -112q59 -59 168 -152q24 -16 24 16q0 155 -16 232q-24 105 -32 136q-16 63 16 104q24 48 56 48 t64 -48q32 -41 16 -104q-25 -67 -32 -136q-16 -79 -24 -232q0 -32 24 -16q120 96 176 152q49 65 88 112q32 48 88 56q30 0 56 -8l16 -16q24 -24 8 -72q-24 -48 -80 -72q-62 -35 -128 -64q-78 -44 -192 -128q-31 -16 0 -32q121 -97 192 -128q66 -37 128 -64q56 -24 80 -72 q8 -32 0 -56q0 -8 -8 -16q-16 -24 -72 -24t-88 56q-39 47 -88 112q-56 56 -176 152q-24 16 -24 -24q8 -152 24 -224q7 -79 32 -136q16 -63 -16 -104q-32 -48 -64 -48t-56 48q-32 41 -16 104q12 42 32 136q16 70 16 224q0 40 -24 24q-109 -93 -168 -152q-49 -65 -88 -112 q-41 -56 -88 -56q-38 0 -56 8q-9 0 -16 16q-16 16 -16 40z" />
<glyph unicode="+" d="M64 736v96h408v592h112v-592h384v-96h-384v-672h-112v672h-408z" />
<glyph unicode="," horiz-adv-x="624" d="M136 -224q121 138 152 296q-63 7 -96 40q-32 32 -32 88q0 64 36 96q37 32 92 32q48 0 92 -36t44 -92q0 -168 -88 -292q-87 -123 -168 -164z" />
<glyph unicode="-" d="M64 736v96h904v-96h-904z" />
<glyph unicode="." horiz-adv-x="624" d="M176 32q0 56 32 88t80 32q47 0 84 -32q36 -32 36 -88t-36 -84q-35 -28 -84 -28t-80 28q-32 29 -32 84z" />
<glyph unicode="/" d="M8 -80l912 1688q32 32 56 16q31 -16 24 -56l-904 -1680q-32 -32 -64 -16q-32 8 -24 48z" />
<glyph unicode="0" d="M104 736q0 303 116 488q115 184 292 184q168 0 288 -184t120 -488q0 -311 -116 -508q-115 -196 -292 -196t-292 196q-116 197 -116 508zM248 736q0 -279 68 -456q68 -176 196 -176t196 176q68 177 68 456q0 271 -68 436q-68 164 -196 164q-129 0 -196 -160 q-68 -162 -68 -440z" />
<glyph unicode="1" d="M264 40v48h200v1208l-200 -40v48l272 104h40v-1320h200v-48h-512z" />
<glyph unicode="2" d="M104 40v72q0 160 432 544q240 208 240 360q0 177 -88 256q-89 80 -208 80q-88 0 -156 -56t-92 -136q72 -64 44 -116t-84 -52q-30 7 -56 28q-25 20 -32 60q0 128 100 228t276 100q192 0 312 -96t120 -296q0 -168 -272 -408q-400 -352 -400 -448h560l104 240h48l-48 -360 h-800z" />
<glyph unicode="3" d="M128 296q0 64 28 92t68 28q41 0 60 -28q20 -29 20 -60q0 -56 -40 -96q7 -24 76 -68q68 -44 156 -44q112 0 180 84q68 85 68 220q0 136 -60 208q-61 73 -124 92q-64 19 -112 12v80l376 480h-448q-128 0 -176 -264h-56l56 376h704v-112l-392 -488q56 8 156 -36 q99 -43 160 -136q60 -92 60 -212q0 -168 -100 -280t-292 -112q-113 0 -192 40q-82 42 -128 104q-48 64 -48 120z" />
<glyph unicode="4" d="M80 448v48l592 912h24v-912h248v-48h-248v-200v-32v-128h120v-48h-352v48h120v128v32v200h-504zM160 496h424v632z" />
<glyph unicode="5" d="M72 336q0 48 24 76t72 36q48 0 76 -24t28 -72q0 -47 -56 -88q24 -56 112 -108t168 -52q111 0 200 92q88 91 88 284q0 159 -80 260q-79 100 -192 100q-64 0 -128 -36t-136 -124l-104 8l56 720h712l-24 -112h-616l-40 -512q78 71 144 100q63 28 136 28q152 0 280 -120 t128 -320q0 -199 -116 -320q-116 -120 -308 -120q-185 0 -304 100q-120 100 -120 204z" />
<glyph unicode="6" d="M96 624q0 336 176 560t520 224l8 -48q-289 -41 -428 -228q-141 -189 -148 -468q120 200 304 200q160 0 276 -116t116 -308t-108 -300t-276 -108q-200 0 -320 168t-120 424zM224 560q0 -200 92 -328t220 -128q113 0 180 88q68 89 68 248q0 144 -72 248t-184 104 q-128 0 -212 -92q-85 -92 -92 -140z" />
<glyph unicode="7" d="M144 1032l56 376h704v-112q-305 -593 -384 -1256h-160q151 734 464 1256h-432q-136 0 -200 -264h-48z" />
<glyph unicode="8" d="M64 384q0 169 100 272q70 74 182 133q-93 54 -138 99q-80 80 -80 200q0 144 108 232q107 88 276 88q159 0 272 -96q112 -96 112 -224t-72 -228q-48 -66 -138 -117q136 -71 198 -139q84 -91 84 -220q0 -160 -112 -256t-328 -96t-340 96t-124 256zM208 384q0 -136 96 -208 t224 -72q135 0 220 80q84 80 84 200q0 103 -68 168q-65 62 -252 152q-62 29 -99 49q-112 -98 -153 -161q-52 -79 -52 -208zM272 1088q0 -88 72 -156q73 -68 240 -140q6 -2 17.5 -7t16.5 -8q68 66 94 119q40 79 40 192q0 103 -68 176q-68 72 -172 72q-96 0 -168 -72t-72 -176 z" />
<glyph unicode="9" d="M88 1000q0 192 108 300t276 108q208 0 328 -168t120 -424q0 -344 -176 -568t-528 -224l-8 48q288 40 432 228q145 188 152 476q-120 -208 -312 -208q-160 0 -276 120q-116 121 -116 312zM224 1000q0 -144 72 -252t184 -108q136 0 220 96q85 97 92 144q0 200 -92 328 t-228 128q-113 0 -180 -88q-68 -89 -68 -248z" />
<glyph unicode=":" horiz-adv-x="624" d="M168 360q0 56 40 96t104 40q56 0 96 -40t40 -96q0 -57 -40 -100q-41 -44 -96 -44q-63 0 -104 44q-40 43 -40 100zM168 1064q0 57 40 100q41 44 104 44q55 0 96 -44q40 -43 40 -100q0 -56 -40 -96t-96 -40q-64 0 -104 40t-40 96z" />
<glyph unicode=";" horiz-adv-x="624" d="M160 32q112 88 152 224q-55 7 -92 40q-36 31 -36 80q0 87 44 116q43 28 84 28q55 0 96 -44q40 -43 40 -116q0 -120 -76 -220q-75 -99 -180 -140zM168 1064q0 57 40 100q41 44 104 44q55 0 96 -44q40 -43 40 -100q0 -56 -40 -96t-96 -40q-64 0 -104 40t-40 96z" />
<glyph unicode="&#x3c;" d="M176 736l664 664l40 -32l-632 -632l632 -632l-40 -32z" />
<glyph unicode="=" d="M64 488v96h880v-96h-880zM64 880v96h880v-96h-880z" />
<glyph unicode="&#x3e;" d="M160 96l640 632l-640 640l40 32l672 -672l-672 -664z" />
<glyph unicode="?" d="M88 1176q0 176 108 296t292 120q177 0 296 -100q120 -100 120 -268q0 -104 -60 -188t-156 -180q-160 -191 -160 -360v-96h-64v96q0 169 160 408q88 112 112 176t24 144q0 120 -68 212t-204 92q-137 0 -216 -88q-80 -89 -96 -200q32 0 60 -24t28 -64t-24 -64t-64 -24 q-32 0 -60 28t-28 84zM392 48q0 49 28 80q29 32 76 32t76 -32q28 -31 28 -80q0 -48 -28 -76t-76 -28t-76 28t-28 76z" />
<glyph unicode="@" horiz-adv-x="1488" d="M136 752q0 344 180 596t444 252q297 0 448 -208q152 -209 152 -472q0 -280 -120 -452t-272 -172q-129 0 -160 136q-89 -113 -200 -120q-95 7 -148 100q-52 92 -12 324q31 173 112 344q80 168 232 168q46 -7 104 -40l8 80h120l-104 -840q-8 -72 64 -72q104 0 196 152 t92 392t-128 428t-376 188q-217 0 -380 -232q-164 -233 -164 -552q0 -328 136 -548t424 -220q144 0 300 84q157 84 260 252l40 -24q-80 -177 -252 -280q-173 -104 -348 -104q-321 0 -484 244q-164 245 -164 596zM556 456q28 -72 76 -72q72 0 168 120l88 640q-64 40 -104 40 q-80 0 -140 -176q-59 -172 -76 -280q-41 -200 -12 -272z" />
<glyph unicode="A" horiz-adv-x="1360" d="M0 40v48h160l440 1320h80l536 -1320h144v-48h-424v48h144l-197 504h-482l-169 -504h160v-48h-392zM420 648h442l-238 608z" />
<glyph unicode="B" horiz-adv-x="1272" d="M104 40v48h128v1272h-128v48h616q183 0 296 -92q112 -91 112 -236q0 -136 -96 -224t-152 -96q129 -49 208 -144q80 -97 80 -208q0 -167 -92 -268q-91 -100 -356 -100h-616zM344 88h376q11 -1 21 -1q108 0 191 77q92 84 92 244q0 136 -112 232t-232 96h-336v-648zM344 784 h336q112 0 208 84t96 212q0 112 -84 196t-180 84h-376v-576z" />
<glyph unicode="C" horiz-adv-x="1432" d="M128 720q0 328 184 508t464 180q123 0 188 -16q70 -17 148 -48l120 64h64v-432h-64q-32 144 -144 252t-312 108q-256 0 -380 -172t-124 -444t132 -432t372 -160q168 0 292 88q123 88 164 256l72 -16q-40 -208 -192 -316t-336 -108q-321 0 -484 208q-164 209 -164 480z " />
<glyph unicode="D" horiz-adv-x="1416" d="M104 40v48h128v1272h-128v48h496q336 0 488 -200t152 -504q0 -303 -152 -484q-152 -180 -496 -180h-488zM344 88h248q232 0 368 172t136 444q0 321 -136 488q-136 168 -360 168h-256v-1272z" />
<glyph unicode="E" horiz-adv-x="1224" d="M104 40v48h128v1272h-112v48h976v-344h-72q0 296 -240 296h-440v-576h376q121 0 128 184h64v-400h-64q-8 168 -128 168h-376v-648h440q240 0 240 288h72v-336h-992z" />
<glyph unicode="F" horiz-adv-x="1224" d="M104 40v48h128v1272h-112v48h976v-344h-72q0 296 -240 296h-440v-576h376q121 0 128 184h64v-400h-64q-8 168 -128 168h-376v-648h136v-48h-376z" />
<glyph unicode="G" horiz-adv-x="1456" d="M120 744q0 296 172 480t452 184q86 0 172 -20q84 -20 180 -60l72 80h72v-360h-72q-49 129 -160 208q-113 80 -264 80q-201 0 -340 -172q-140 -173 -140 -420q0 -304 132 -468t356 -164q209 0 360 88v408h-144v48h392v-48h-120v-568h-72l-48 80q-160 -88 -368 -88 q-312 0 -472 196t-160 516z" />
<glyph unicode="H" horiz-adv-x="1480" d="M72 1360v48h400v-48h-144v-584h808v584h-144v48h400v-48h-144v-1272h120v-48h-352v48h120v640h-808v-640h120v-48h-352v48h120v1272h-144z" />
<glyph unicode="I" horiz-adv-x="592" d="M112 40v48h120v1272h-112v48h336v-48h-112v-1272h120v-48h-352z" />
<glyph unicode="J" horiz-adv-x="792" d="M0 248q0 48 16 76t64 28q48 -8 68 -52q5 -12 5 -23q0 -34 -41 -69q8 -56 44 -88q37 -32 84 -32q96 0 148 76t52 284v912h-120v48h352v-48h-120v-912q0 -224 -84 -320t-228 -96q-112 0 -176 72q-64 71 -64 144z" />
<glyph unicode="K" horiz-adv-x="1368" d="M104 40v48h120v1272h-120v48h352v-48h-120v-672l640 672h-136v48h368v-48h-136l-432 -446l536 -826h136v-48h-424v48h144l-471 744l-225 -232v-512h120v-48h-352z" />
<glyph unicode="L" horiz-adv-x="1200" d="M104 40v48h120v1272h-120v48h352v-48h-120v-1272h416q272 0 272 304h72v-352h-992z" />
<glyph unicode="M" horiz-adv-x="1640" d="M80 40v48h120v1272h-120v48h264l496 -1064l440 1064h256v-48h-120v-1272h120v-48h-352v48h120v1176l-464 -1120h-56l-536 1168v-1224h120v-48h-288z" />
<glyph unicode="N" horiz-adv-x="1360" d="M72 1360v48h232l808 -1136v1088h-120v48h288v-48h-120v-1320h-48l-864 1256v-1208h120v-48h-288v48h120v1272h-128z" />
<glyph unicode="O" horiz-adv-x="1568" d="M144 736q0 272 176 472t472 200q272 0 452 -192t180 -480q0 -311 -168 -508q-168 -196 -464 -196t-472 204q-176 205 -176 500zM288 736q0 -264 136 -448t368 -184q224 0 356 184t132 448q0 249 -136 424q-137 176 -352 176q-225 0 -364 -172q-140 -173 -140 -428z" />
<glyph unicode="P" horiz-adv-x="1152" d="M112 40v48h120v1272h-120v48h544q184 0 312 -92t128 -268q0 -184 -124 -272t-316 -88h-312v-600h120v-48h-352zM344 736h312q137 0 216 88q80 89 80 224q0 136 -76 224t-220 88h-312v-624z" />
<glyph unicode="Q" horiz-adv-x="1568" d="M144 736q0 272 176 472t472 200q272 0 452 -192t180 -480q0 -311 -168 -508q-90 -105 -212 -152q69 -84 116 -84q64 0 104 24q39 23 80 88l48 -24q-31 -103 -88 -164q-56 -60 -136 -60q-144 0 -228 120q-18 25 -40 63q-49 -7 -108 -7q-296 0 -472 204q-176 205 -176 500z M288 736q0 -230 106 -403q40 85 90 135q76 76 164 76q167 0 244 -188q52 -128 100 -207q91 47 156 139q132 184 132 448q0 249 -136 424q-137 176 -352 176q-225 0 -364 -172q-140 -173 -140 -428zM440 268q134 -164 352 -164q33 0 71 5q-39 80 -71 171q-64 184 -144 184 q-8 1 -17 1q-68 0 -115 -61q-35 -46 -76 -136z" />
<glyph unicode="R" horiz-adv-x="1232" d="M104 40v48h128v1272h-128v48h528q209 0 336 -88q128 -89 128 -248q0 -153 -124 -232q-106 -69 -256 -78l340 -674h152v-48h-264l-356 720h-244v-672h120v-48h-360zM344 808h288q152 0 240 88t88 176q0 136 -96 212q-95 76 -232 76h-288v-552z" />
<glyph unicode="S" horiz-adv-x="1032" d="M80 32v472h80q24 -146 64 -228q41 -85 120 -128q80 -44 160 -44q128 0 208 68t80 220q0 81 -52 152q-52 72 -228 144q-184 64 -296 148t-112 244q0 120 104 224t304 104q75 0 140 -16q68 -16 132 -48l96 64h72v-448h-72q-7 110 -52 196q-43 83 -124 132q-80 48 -192 48 q-128 0 -200 -76t-72 -180q0 -113 88 -168q92 -57 224 -104q215 -79 300 -176q84 -96 84 -240q0 -168 -100 -264t-332 -96q-86 0 -152 20q-61 18 -120 52l-80 -72h-72z" />
<glyph unicode="T" horiz-adv-x="1280" d="M104 1048v360h1064v-360h-72q0 312 -288 312h-112v-1272h120v-48h-352v48h120v1272h-112q-288 0 -296 -312h-72z" />
<glyph unicode="U" horiz-adv-x="1416" d="M104 1360v48h344v-48h-120v-808q0 -231 116 -344q115 -112 292 -112q176 0 288 120t120 336v808h-144v48h352v-48h-136v-808q0 -224 -132 -372t-348 -148q-240 0 -380 132t-140 388v808h-112z" />
<glyph unicode="V" horiz-adv-x="1360" d="M0 1360v48h384v-48h-136l464 -1144l440 1144h-136v48h344v-48h-136l-512 -1320h-56l-536 1320h-120z" />
<glyph unicode="W" horiz-adv-x="1784" d="M0 1360v48h312v-48h-96l328 -1112l320 1160h64l384 -1152l312 1104h-88v48h248v-48h-88l-376 -1320h-64l-384 1168l-320 -1168h-64l-392 1320h-96z" />
<glyph unicode="X" horiz-adv-x="1344" d="M64 40v48h120l430 618l-446 646h-104v56h360v-56h-128l384 -552l384 552h-144v56h360v-56h-136l-424 -609l456 -655h104v-48h-344v48h104l-386 560l-390 -560h144v-48h-344z" />
<glyph unicode="Y" horiz-adv-x="1280" d="M16 1352v56h384v-56h-136l392 -712l416 712h-136v56h328v-56h-120l-456 -776v-488h120v-48h-352v48h120v448l-448 816h-112z" />
<glyph unicode="Z" horiz-adv-x="1152" d="M128 40v48l752 1264h-448q-232 0 -232 -240h-72v296h896v-56l-752 -1256h408q272 0 272 280h72v-336h-896z" />
<glyph unicode="[" horiz-adv-x="680" d="M160 -192v1840h448v-96h-344v-1648h344v-96h-448z" />
<glyph unicode="\" d="M40 1360v48h344v-48h-112l187 -440h167l182 440h-104v48h280v-48h-104l-188 -440h188v-56h-212l-100 -232v-80h312v-56h-312v-408h120v-48h-352v48h120v408h-320v56h320v80l-100 232h-220v56h196l-188 440h-104zM483 864l61 -144l60 144h-121z" />
<glyph unicode="]" horiz-adv-x="680" d="M88 -96h344v1648h-344v96h440v-1840h-440v96z" />
<glyph unicode="^" horiz-adv-x="624" d="M24 1416l176 304h216l184 -304l-40 -16l-248 200l-248 -200z" />
<glyph unicode="_" horiz-adv-x="624" d="M0 -160h624v-80h-624v80z" />
<glyph unicode="`" horiz-adv-x="624" d="M72 1664v56h240l240 -304l-48 -40z" />
<glyph unicode="a" horiz-adv-x="928" d="M88 232q0 192 160 280t368 112v48q0 105 -40 148q-41 44 -96 44q-72 0 -140 -36t-68 -108q0 -56 -96 -88q-48 0 -48 48q0 121 100 188q101 68 156 68h96q88 0 168 -56t80 -208v-520q0 -40 40 -44q20 -2 40 30.5t40 101.5l48 -24q-40 -184 -168 -184q-48 0 -80 32t-32 72 q-89 -104 -232 -104h-96q-80 0 -140 64t-60 136zM216 232q0 -55 32 -92q32 -36 136 -36q119 0 232 104v352q-169 -32 -284 -108q-116 -77 -116 -220z" />
<glyph unicode="b" d="M56 1352v48l160 72h56v-624q127 88 264 88q177 0 280 -124q104 -125 104 -332q0 -224 -108 -336t-300 -112q-127 0 -240 80l-64 -72h-48v1312h-104zM272 160q114 -56 240 -56q120 0 204 96t84 280q0 199 -80 288q-79 88 -184 88q-128 0 -264 -72v-624z" />
<glyph unicode="c" horiz-adv-x="952" d="M96 496q0 191 116 316q115 124 316 124q127 0 240 -80q112 -79 112 -176q0 -47 -20 -76q-19 -28 -52 -28q-56 0 -80 40q-8 13 -8 30q0 34 32 82q-17 49 -84 92q-68 44 -140 44q-136 0 -212 -108q-76 -107 -76 -260q0 -168 76 -268t212 -100q120 0 200 44q79 43 144 148 l48 -24q-41 -120 -148 -192q-108 -72 -244 -72q-200 0 -316 128t-116 336z" />
<glyph unicode="d" d="M112 504q0 184 100 308t260 124q145 0 272 -112v528h-104v48l152 72h64v-1344h104v-48l-160 -40h-56v112q-104 -120 -256 -120q-184 0 -280 128t-96 344zM240 504q0 -176 60 -288t188 -112t256 128v520q-127 112 -272 112q-121 -8 -176 -120q-56 -114 -56 -240z" />
<glyph unicode="e" horiz-adv-x="968" d="M120 496q0 232 120 336q121 104 256 104q153 0 268 -112q116 -113 116 -248v-56h-615q0 -4 -0.5 -12t-0.5 -12q0 -201 76 -284q76 -84 212 -84q88 0 168 36t152 156l48 -16q-32 -128 -140 -200t-228 -72q-201 0 -316 100q-116 101 -116 364zM268 576h468q-7 127 -76 208 q-68 80 -164 80t-164 -92q-52 -70 -64 -196z" />
<glyph unicode="f" horiz-adv-x="520" d="M0 888v48h192v184q8 288 208 288h88q97 0 164 -52q68 -53 68 -132q0 -104 -88 -104q-63 0 -80 56q-4 12 -4 23q0 43 52 81q-64 72 -152 72q-144 0 -144 -232v-184h256v-48h-256v-800h120v-48h-352v48h120v800h-192z" />
<glyph unicode="g" horiz-adv-x="968" d="M104 496q0 232 96 336t200 104h80q103 0 248 -104l32 104h80v-800q0 -200 -96 -296t-288 -96q-119 0 -228 56q-108 56 -108 148q0 46 20 67q17 18 48 18q6 0 12 -1q47 -7 64 -48q5 -11 5 -24q0 -32 -29 -72q80 -80 216 -80q128 0 200 76q72 77 72 220v64 q-136 -88 -256 -88q-185 0 -276 112q-92 113 -92 304zM224 496q0 -185 64 -264q65 -80 184 -80q128 0 256 80v528q-128 104 -256 104q-119 0 -184 -92q-64 -91 -64 -276z" />
<glyph unicode="h" d="M56 40v48h120v1264h-104v48l168 72h48v-704q128 168 296 168h72q80 0 144 -72q64 -71 64 -208v-568h120v-48h-352v48h120v568q0 121 -52 164q-53 44 -116 44q-160 0 -296 -168v-608h120v-48h-352z" />
<glyph unicode="i" horiz-adv-x="496" d="M72 40v48h120v736h-112v40l176 72h48v-848h120v-48h-352zM128 1336q0 48 32 80t80 32t80 -32t32 -80q0 -40 -32 -72t-80 -32t-80 32t-32 72z" />
<glyph unicode="j" horiz-adv-x="496" d="M0 -72q-2 8 -2 16q0 23 18 44q24 28 64 28q32 0 52 -20t20 -60q0 -48 -48 -80q16 -40 64 -40q72 0 112 60q40 59 40 236v704h-136v56l192 64h56v-824q0 -184 -68 -276t-196 -92q-64 0 -116 52t-52 132zM256 1336q0 48 32 80t80 32t80 -32t32 -80q0 -40 -32 -72t-80 -32 t-80 32t-32 72z" />
<glyph unicode="k" horiz-adv-x="1008" d="M40 40v48h120v1272h-104v40l160 72h56v-1056l392 464h-144v56h368v-56h-136l-224 -257l320 -535h104v-48h-360v48h120l-258 450l-182 -210v-240h120v-48h-352z" />
<glyph unicode="l" horiz-adv-x="496" d="M32 40v48h152v1264h-152v48h112q72 0 96 72h56v-1384h168v-48h-432z" />
<glyph unicode="m" horiz-adv-x="1440" d="M48 40v48h120v744h-88v48l152 56h48v-80q152 80 272 80h48q64 0 108 -32t52 -64q161 96 272 96h48q65 0 120 -52q56 -53 56 -148v-648h120v-48h-352v48h120v648q0 64 -32 96t-80 32q-119 0 -264 -80v-584l-72 -160h-40v696q0 71 -32 100q-31 28 -72 28q-135 0 -272 -80 v-696h120v-48h-352z" />
<glyph unicode="n" d="M40 40v48h120v736h-112v48l176 64h48v-144q144 144 256 144h88q96 0 172 -64t76 -200v-584h120v-48h-352v48h120v584q0 96 -48 144t-128 48q-119 0 -304 -128v-648h120v-48h-352z" />
<glyph unicode="o" d="M80 488q0 200 120 324t312 124q176 0 300 -124t124 -324q0 -201 -112 -328q-113 -128 -320 -128q-192 0 -308 128t-116 328zM216 488q0 -169 76 -276q76 -108 212 -108t216 104t80 280q0 168 -84 272t-204 104q-128 0 -212 -100t-84 -276z" />
<glyph unicode="p" d="M40 -208h120v1024h-104v56l160 64h56v-104q113 104 248 104h56q144 0 252 -112t108 -328q0 -208 -108 -336t-308 -128q-144 0 -248 96v-336h120v-48h-352v48zM272 184q121 -80 248 -80q128 0 208 108q80 109 80 284q0 193 -88 284q-89 92 -200 92q-127 0 -248 -104v-584z " />
<glyph unicode="q" d="M120 504q0 192 96 312t240 120h64q119 0 232 -104l32 104h80v-1144h120v-48h-352v48h120v328q-103 -88 -248 -88q-184 0 -284 136t-100 336zM248 504q0 -168 68 -284t188 -116q136 0 248 88v568q-96 104 -256 104q-113 0 -180 -100q-68 -101 -68 -260z" />
<glyph unicode="r" horiz-adv-x="752" d="M48 40v48h120v736h-120v48l176 64h56v-200q89 200 232 200h72q57 0 100 -40q44 -41 44 -96q0 -56 -24 -80t-64 -24q-56 8 -72 48q-4 10 -4 21q0 33 36 75q-24 40 -88 40q-136 0 -232 -240v-552h120v-48h-352z" />
<glyph unicode="s" horiz-adv-x="848" d="M104 32v352h56q8 -144 92 -212q85 -68 196 -68q80 0 124 44t44 116q0 71 -68 112q-66 39 -164 64q-143 31 -212 100q-68 68 -68 164q0 112 84 172t212 60q105 0 200 -40l88 40h56v-320h-56q-48 128 -120 188t-168 60q-80 0 -120 -48q-40 -47 -40 -112q0 -64 44 -100 t156 -60q161 -48 232 -112q72 -64 72 -168t-72 -168q-71 -64 -224 -64q-128 0 -208 48l-80 -48h-56z" />
<glyph unicode="t" horiz-adv-x="720" d="M24 888v48h56q128 0 176 344h48v-344h256v-48h-256v-544q0 -128 36 -176q31 -41 71 -41q7 0 13 1q120 0 192 296l64 -24q-65 -368 -256 -368q-104 0 -168 76t-64 236v544h-168z" />
<glyph unicode="u" d="M40 832v40l184 64h48v-600q0 -80 36 -144t116 -64q176 0 328 264v432h-128v48l192 64h48v-784h104v-48l-176 -64h-40v240q-144 -248 -328 -248q-128 0 -196 80t-68 224v496h-120z" />
<glyph unicode="v" horiz-adv-x="976" d="M32 880v56h352v-56h-120l256 -648l240 648h-144v56h336v-56h-128l-312 -840h-48l-328 840h-104z" />
<glyph unicode="w" horiz-adv-x="1232" d="M8 880v56h320v-56h-104l176 -592l160 648h88l216 -656l160 600h-96v56h264v-56h-104l-232 -840h-56l-216 704l-176 -704h-56l-240 840h-104z" />
<glyph unicode="x" horiz-adv-x="960" d="M32 40v48h144l253 362l-285 438h-112v48h360v-48h-120l225 -341l239 341h-136v48h328v-48h-128l-272 -388l272 -412h128v-48h-384v48h120l-204 314l-220 -314h152v-48h-360z" />
<glyph unicode="y" horiz-adv-x="976" d="M8 888v48h352v-48h-128l294 -573l234 573h-120v48h304v-48h-120l-408 -992q-30 -70 -76 -112q-43 -40 -116 -40q-71 0 -120 44q-48 44 -48 84q0 39 12 56t52 24q56 0 80 -44q7 -13 7 -26q0 -29 -39 -58q24 -24 56 -24q48 0 80 32q33 33 64 96l102 250l-358 710h-104z" />
<glyph unicode="z" horiz-adv-x="928" d="M96 40v48l592 800h-296q-216 0 -232 -240h-64v288h736v-48l-600 -800h312q183 0 224 272h64v-320h-736z" />
<glyph unicode="{" horiz-adv-x="496" d="M32 704v64q152 8 152 272v336q0 248 208 248h72v-56h-72q-144 0 -144 -192v-336q0 -224 -128 -304q128 -80 128 -272v-384q0 -176 144 -176h72v-56h-72q-208 0 -208 232v384q0 232 -152 240z" />
<glyph unicode="|" horiz-adv-x="448" d="M160 -272v2016h120v-2016h-120z" />
<glyph unicode="}" horiz-adv-x="496" d="M32 -88h40q176 0 176 184v336q0 224 128 304q-128 89 -128 280v384q0 176 -176 176h-40v56h40q240 0 240 -232v-384q0 -232 152 -240v-72q-152 -8 -152 -272v-336q0 -240 -240 -240h-40v56z" />
<glyph unicode="~" d="M104 1472q79 208 208 208q112 0 216 -104q96 -104 160 -104q88 0 176 144l56 -32q-88 -208 -232 -208q-88 0 -200 120q-88 88 -176 88q-72 0 -152 -144z" />
<glyph unicode="&#xa1;" horiz-adv-x="544" d="M160 -88l80 1144h48l72 -1144h-200zM168 1344q0 104 104 104t104 -104t-104 -104t-104 104z" />
<glyph unicode="&#xa2;" horiz-adv-x="872" d="M64 472q0 217 112 336q112 120 288 120q29 0 43 -2l53 202l56 -16l-52 -198q73 -20 132 -66q104 -80 104 -192q0 -40 -20 -72t-68 -32t-64 52t32 124q-24 55 -80 96q-25 17 -52 27l-190 -725q62 -30 138 -30q72 0 144 48t104 152l56 -16q-40 -136 -120 -192t-184 -56 q-86 0 -156 22l-52 -198l-56 16l53 204q-55 25 -101 68q-120 112 -120 328zM200 472q0 -208 84 -292q7 -7 23 -21l183 704q-9 1 -26 1q-104 0 -184 -96q-80 -97 -80 -296z" />
<glyph unicode="&#xa3;" horiz-adv-x="1224" d="M136 240q0 104 60 156q59 52 140 52q90 0 187 -111q5 42 5 79q0 120 -84 284q-8 14 -14 28h-198v56h174q-46 115 -46 200q0 152 96 272t272 120q96 0 188 -60t92 -156q0 -64 -24 -96t-56 -32q-72 0 -84 52t36 116q-7 47 -52 76q-43 28 -100 28q-112 0 -168 -104t-56 -208 q0 -102 34 -208h414v-56h-394q2 -4 5 -12t5 -12q64 -150 64 -288q0 -95 -26 -178q94 -94 194 -94q112 0 184 184l48 -24q-65 -272 -232 -272q-131 -8 -232 119q-1 -1 -4 -7q-67 -112 -220 -112q-96 0 -152 60q-56 61 -56 148zM224 240q0 -55 32 -96q31 -40 88 -40 q80 0 132 88q16 28 26 54q-92 122 -166 122q-56 0 -84 -36q-28 -35 -28 -92z" />
<glyph unicode="&#xa4;" horiz-adv-x="1040" d="M88 144l128 184q-96 160 -96 392q0 224 96 392l-128 208l48 64l120 -200q113 144 256 144q144 0 256 -144l128 200l48 -72l-136 -200q96 -168 96 -392t-88 -384l120 -192l-48 -72l-120 192q-104 -152 -256 -152q-144 0 -256 144l-120 -184zM184 720q0 -233 112 -376 q89 -128 216 -128q159 0 248 176q80 137 80 328q0 233 -112 376q-89 128 -216 128q-152 0 -248 -168q-80 -145 -80 -336z" />
<glyph unicode="&#xa5;" horiz-adv-x="1008" d="M32 1360v48h400v-48h-112l160 -488h114l166 488h-120v48h352v-48h-160l-172 -488h212v-48h-228l-76 -216v-48h304v-48h-304v-456h168v-56h-456v56h160v456h-304v48h304v48l-71 216h-233v48h217l-161 488h-160zM496 824l40 -120l41 120h-81z" />
<glyph unicode="&#xa6;" horiz-adv-x="240" d="M64 -128v672h112v-672h-112zM64 864v672h112v-672h-112z" />
<glyph unicode="&#xa7;" horiz-adv-x="2048" d="M512 1352q0 152 124 240t332 88q201 0 340 -88q140 -89 140 -208q0 -64 -32 -96t-96 -32q-40 0 -68 24t-28 72q0 32 20 64t52 40q-56 88 -144 120q-90 32 -184 32q-145 0 -224 -64q-80 -65 -80 -176q0 -96 80 -164t280 -116q239 -55 368 -148q128 -92 128 -228 q0 -112 -76 -188q-40 -40 -90 -71q31 -19 62 -45q120 -104 120 -232q0 -152 -124 -240t-340 -88q-193 0 -332 88q-140 89 -140 208q0 64 32 96t96 32q40 0 68 -24t28 -72q0 -32 -20 -64t-52 -40q56 -88 144 -120q90 -32 176 -32q145 0 228 64q84 64 84 176q0 96 -84 164 q-85 68 -276 116q-240 48 -368 140t-128 228q0 112 76 188q40 40 91 72q-35 22 -63 48q-120 108 -120 236zM672 808q0 -88 88 -152q87 -63 312 -104q110 -20 194 -54q51 48 74 82q36 52 36 132q0 88 -88 152q-87 63 -320 104q-106 20 -186 54q-51 -48 -74 -82 q-36 -52 -36 -132z" />
<glyph unicode="&#xa8;" d="M200 1504q0 49 28 80q29 32 76 32q48 0 80 -32t32 -80q0 -47 -32 -84q-31 -36 -80 -36q-48 0 -76 36q-28 35 -28 84zM616 1504q0 49 24 80q24 32 80 32q48 0 80 -32t32 -80q0 -47 -32 -84q-32 -36 -80 -36q-56 0 -80 36t-24 84z" />
<glyph unicode="&#xa9;" horiz-adv-x="1368" d="M56 704q0 352 168 576t448 224q263 0 436 -224q172 -223 172 -576q0 -352 -176 -576q-168 -224 -432 -224q-280 0 -448 224t-168 576zM112 704q0 -319 152 -528q160 -208 408 -208q240 0 400 208q152 209 152 528q0 320 -156 528t-396 208q-248 0 -404 -208t-156 -528z M224 704q0 256 124 416t324 160q38 0 184 -32l104 32l128 -384l-56 -32q-72 184 -160 272t-192 80h-8q-104 0 -200 -112t-96 -376q0 -255 80 -400q88 -136 232 -136q224 0 320 352l80 -32q-128 -416 -400 -416q-240 0 -352 192q-112 191 -112 416z" />
<glyph unicode="&#xaa;" horiz-adv-x="784" d="M48 848q0 137 148 216t316 72v48q0 104 -40 156t-96 52q-72 0 -112 -48q-40 -47 -40 -120q0 -49 -88 -80q-48 0 -48 48q0 120 84 188q85 68 172 68h32q89 0 168 -64q80 -65 80 -200v-416q0 -40 28 -44q14 -2 33 23t43 77l48 -24q-41 -152 -152 -152q-48 0 -80 32t-32 72 q-96 -104 -216 -104h-48q-81 0 -140 52q-60 52 -60 148zM168 848q0 -57 28 -92q28 -36 100 -36q112 0 216 104v248q-167 -16 -256 -84q-88 -67 -88 -140z" />
<glyph unicode="&#xab;" horiz-adv-x="1128" d="M104 736l488 664l40 -56l-352 -608l352 -560l-40 -48zM488 736l464 664l32 -56l-320 -608l320 -560l-32 -48z" />
<glyph unicode="&#xac;" horiz-adv-x="1368" d="M112 888v136h1088v-504h-160v368h-928z" />
<glyph unicode="&#xad;" horiz-adv-x="1016" d="M64 536v80h888v-80h-888z" />
<glyph unicode="&#xae;" horiz-adv-x="1368" d="M56 704q0 352 168 576t448 224q263 0 436 -224q172 -223 172 -576q0 -352 -176 -576q-168 -224 -432 -224q-280 0 -448 224t-168 576zM112 704q0 -319 152 -528q160 -208 408 -208q240 0 400 208q152 209 152 528q0 320 -156 528t-396 208q-248 0 -404 -208t-156 -528z M320 304v48h112v752h-112v48h384q135 0 220 -68q84 -67 84 -172q0 -104 -76 -180t-228 -76l272 -304h144v-48h-264l-272 344h-40v-296h112v-48h-336zM544 696h160q64 0 116 60q52 59 52 156q0 80 -44 136t-124 56h-160v-408z" />
<glyph unicode="&#xaf;" horiz-adv-x="1368" d="M0 1680v80h1368v-80h-1368z" />
<glyph unicode="&#xb0;" horiz-adv-x="2048" d="M40 1400q0 95 68 160q67 64 156 64q96 0 160 -64t64 -160q0 -89 -64 -160q-64 -64 -160 -64q-89 0 -160 64q-64 71 -64 160zM96 1400q0 -72 48 -120t120 -48t120 48t48 120q0 64 -48 120q-48 48 -120 48t-120 -48q-48 -56 -48 -120z" />
<glyph unicode="&#xb1;" horiz-adv-x="2048" d="M312 32v96h1400v-96h-1400zM312 872v96h648v584h104v-584h648v-96h-648v-584h-104v584h-648z" />
<glyph unicode="&#xb2;" horiz-adv-x="568" d="M24 936v88l280 224q112 96 112 184q0 56 -40 96t-96 40q-73 0 -108 -28q-36 -28 -52 -68q56 -17 56 -64q0 -72 -64 -72q-48 0 -68 32t-20 72q0 88 80 136t176 48q105 0 172 -52q68 -53 68 -140q0 -112 -168 -240l-216 -168h320l40 104h48l-24 -192h-496z" />
<glyph unicode="&#xb3;" horiz-adv-x="568" d="M32 1112q0 48 20 68t60 20q32 0 52 -20t20 -52q0 -40 -40 -64q24 -24 52 -40t92 -16q47 0 96 32q48 32 48 104q0 64 -36 92q-36 29 -76 36t-88 0v64l208 192h-312l-48 -136h-48l32 232h464v-96l-224 -200q50 8 100 -8q52 -16 88 -60t36 -116q0 -104 -72 -156 q-71 -52 -168 -52q-79 0 -128 20q-46 19 -88 64q-40 43 -40 92z" />
<glyph unicode="&#xb4;" d="M248 1352l280 328h272v-56l-496 -312z" />
<glyph unicode="&#xb5;" horiz-adv-x="992" d="M40 832v40l184 64h48v-728q72 -80 152 -80q176 0 328 264v432h-128v48l192 64h48v-784h104v-48l-176 -64h-40v240q-144 -248 -328 -248q-97 0 -152 48v-256h112v-48h-336v48h112v1008h-120z" />
<glyph unicode="&#xb6;" d="M112 1184q0 151 80 260q80 108 184 108h520v-1584h-88v1512h-320v-1512h-80v840h-32q-104 0 -184 108q-80 109 -80 268z" />
<glyph unicode="&#xb7;" horiz-adv-x="456" d="M120 544q0 96 104 96t104 -96t-104 -96t-104 96z" />
<glyph unicode="&#xb8;" horiz-adv-x="456" d="M32 -216q136 0 212 24t76 72q0 79 -160 0h-96l88 160h80l-64 -96q120 64 176 40t56 -104q0 -72 -80 -120t-264 -48z" />
<glyph unicode="&#xb9;" horiz-adv-x="392" d="M24 1520v40l152 64h56v-640h96v-48h-272v48h96v536h-128z" />
<glyph unicode="&#xba;" horiz-adv-x="568" d="M56 1264q0 152 92 236q91 84 244 84q152 0 252 -84t100 -236t-100 -240t-252 -88q-153 0 -244 88q-92 89 -92 240zM176 1264q0 -127 56 -200q55 -72 160 -72q96 0 164 72q68 73 68 200q0 135 -68 200q-67 64 -164 64q-105 0 -160 -64q-56 -65 -56 -200z" />
<glyph unicode="&#xbb;" horiz-adv-x="1128" d="M112 120l320 616l-320 560l32 48l464 -608l-464 -672zM464 120l360 616l-360 560l40 48l496 -608l-496 -672z" />
<glyph unicode="&#xbc;" horiz-adv-x="1064" d="M112 1520v40l152 64h56v-640h96v-48h-272v48h96v536h-128zM144 -120l664 1744l72 -32l-664 -1744zM464 48v48l328 440h72v-440h112v-48h-112v-152h88v-48h-264v48h104v152h-328zM528 96h264v344z" />
<glyph unicode="&#xbd;" horiz-adv-x="1064" d="M112 1520v40l152 64h56v-640h96v-48h-272v48h96v536h-128zM144 -120l664 1744l72 -32l-664 -1744zM464 -64l280 224q112 96 112 184q0 56 -40 96t-96 40q-73 0 -108 -28q-36 -28 -52 -68q56 -17 56 -64q0 -72 -64 -72q-48 0 -68 32t-20 72q0 88 80 136t176 48 q105 0 172 -52q68 -53 68 -140q0 -112 -168 -240l-216 -168h320l40 104h48l-24 -192h-496v88z" />
<glyph unicode="&#xbe;" horiz-adv-x="1064" d="M48 1112q0 48 20 68t60 20q32 0 52 -20t20 -52q0 -40 -40 -64q24 -24 52 -40t92 -16q47 0 96 32q48 32 48 104q0 64 -36 92q-36 29 -76 36t-88 0v64l208 192h-312l-48 -136h-48l32 232h464v-96l-224 -200q50 8 100 -8q52 -16 88 -60t36 -116q0 -104 -72 -156 q-71 -52 -168 -52q-79 0 -128 20q-46 19 -88 64q-40 43 -40 92zM144 -120l664 1744l72 -32l-664 -1744zM464 48v48l328 440h72v-440h112v-48h-112v-152h88v-48h-264v48h104v152h-328zM528 96h264v344z" />
<glyph unicode="&#xbf;" horiz-adv-x="928" d="M48 304q0 104 60 188t156 180q160 199 160 368v96h72v-96q0 -169 -168 -416q-88 -112 -112 -176t-24 -144q0 -120 68 -212t212 -92q137 0 216 88q80 89 96 200q-32 0 -60 24t-28 64t24 64t64 24q32 0 60 -28t28 -84q0 -176 -108 -292t-292 -116t-304 96t-120 264z M352 1488q0 48 28 76t84 28q48 0 76 -28t28 -76q0 -49 -28 -80q-29 -32 -76 -32q-55 0 -84 32q-28 31 -28 80z" />
<glyph unicode="&#xc0;" horiz-adv-x="1368" d="M160 40v48h152l312 1080h64l352 -1080h144v-48h-424v48h136l-98 328h-322l-92 -328h160v-48h-384zM432 1664v56h240l240 -304l-48 -40zM492 472h289l-149 496z" />
<glyph unicode="&#xc1;" horiz-adv-x="1368" d="M160 40v48h152l312 1080h64l352 -1080h144v-48h-424v48h136l-98 328h-322l-92 -328h160v-48h-384zM416 1416l256 304h256v-56l-472 -288zM492 472h289l-149 496z" />
<glyph unicode="&#xc2;" horiz-adv-x="1368" d="M160 40v48h152l312 1080h64l352 -1080h144v-48h-424v48h136l-98 328h-322l-92 -328h160v-48h-384zM304 1368l256 352h216l264 -352l-64 -16l-304 224l-304 -224zM492 472h289l-149 496z" />
<glyph unicode="&#xc3;" horiz-adv-x="1368" d="M160 40v48h152l312 1080h64l352 -1080h144v-48h-424v48h136l-98 328h-322l-92 -328h160v-48h-384zM264 1512q79 208 208 208q112 0 216 -104q96 -104 160 -104q88 0 176 144l56 -32q-88 -208 -232 -208q-88 0 -200 120q-88 88 -176 88q-72 0 -152 -144zM492 472h289 l-149 496z" />
<glyph unicode="&#xc4;" horiz-adv-x="1368" d="M160 40v48h152l312 1080h64l352 -1080h144v-48h-424v48h136l-98 328h-322l-92 -328h160v-48h-384zM304 1568q0 48 32 80t80 32q40 0 72 -32t32 -80q0 -49 -28 -80q-29 -32 -76 -32q-48 0 -80 32t-32 80zM492 472h289l-149 496zM816 1568q0 48 32 80t80 32q40 0 72 -32 t32 -80q0 -49 -28 -80q-29 -32 -76 -32q-48 0 -80 32t-32 80z" />
<glyph unicode="&#xc5;" horiz-adv-x="1368" d="M160 40v48h152l312 1080h64l352 -1080h144v-48h-424v48h136l-98 328h-322l-92 -328h160v-48h-384zM448 1496q0 96 64 160t160 64t160 -60t64 -164q0 -96 -64 -160t-160 -64q-104 0 -164 68t-60 156zM492 472h289l-149 496zM504 1496q0 -71 44 -120q44 -48 124 -48 q71 0 120 44q48 44 48 124t-48 124q-49 44 -120 44q-80 0 -124 -44t-44 -124z" />
<glyph unicode="&#xc6;" horiz-adv-x="1368" d="M176 40v48h96l352 1320h64h64h392v-344h-72q0 296 -240 296h-32v-576h160v184h64v-400h-64v168h-160v-648h32q240 0 240 288h72v-336h-584v48h128v504h-208l-136 -504h96v-48h-264zM496 648h192v712z" />
<glyph unicode="&#xc7;" horiz-adv-x="1368" d="M200 736q0 287 140 480q140 192 348 192q79 0 136 -20q54 -19 112 -52l88 72h56v-416h-72q-8 152 -96 248t-224 96q-167 0 -256 -176q-88 -175 -88 -424q0 -256 92 -432t260 -176q104 0 204 88q99 88 140 256l72 -16q-40 -208 -156 -316t-260 -108q-43 0 -86 8l-26 -96 q120 55 184 24t64 -104q0 -95 -92 -124q-90 -28 -260 -28l-32 72q120 0 204 12t84 68q0 80 -160 16h-96l48 184q-121 51 -200 184q-128 217 -128 488z" />
<glyph unicode="&#xc8;" horiz-adv-x="1192" d="M112 40v48h128v1032h-112v48h904v-296h-72q0 248 -240 248h-368v-488h304q121 0 128 136h64v-312h-64q-8 128 -128 128h-304v-496h368q240 0 240 240h72v-288h-920zM352 1664v56h240l240 -304l-48 -40z" />
<glyph unicode="&#xc9;" horiz-adv-x="1192" d="M112 40v48h128v1032h-112v48h904v-296h-72q0 248 -240 248h-368v-488h304q121 0 128 136h64v-312h-64q-8 128 -128 128h-304v-496h368q240 0 240 240h72v-288h-920zM336 1416l256 304h256v-56l-472 -288z" />
<glyph unicode="&#xca;" horiz-adv-x="1192" d="M112 40v48h128v1032h-112v48h904v-296h-72q0 248 -240 248h-368v-488h304q121 0 128 136h64v-312h-64q-8 128 -128 128h-304v-496h368q240 0 240 240h72v-288h-920zM224 1368l256 352h216l264 -352l-64 -16l-304 224l-304 -224z" />
<glyph unicode="&#xcb;" horiz-adv-x="1192" d="M112 40v48h128v1032h-112v48h904v-296h-72q0 248 -240 248h-368v-488h304q121 0 128 136h64v-312h-64q-8 128 -128 128h-304v-496h368q240 0 240 240h72v-288h-920zM224 1568q0 48 32 80t80 32q40 0 72 -32t32 -80q0 -49 -28 -80q-29 -32 -76 -32q-48 0 -80 32t-32 80z M736 1568q0 48 32 80t80 32q40 0 72 -32t32 -80q0 -49 -28 -80q-29 -32 -76 -32q-48 0 -80 32t-32 80z" />
<glyph unicode="&#xcc;" horiz-adv-x="600" d="M64 1664v56h240l240 -304l-48 -40zM120 40v48h120v1032h-112v48h336v-48h-112v-1032h120v-48h-352z" />
<glyph unicode="&#xcd;" horiz-adv-x="600" d="M48 1416l256 304h256v-56l-472 -288zM120 40v48h120v1032h-112v48h336v-48h-112v-1032h120v-48h-352z" />
<glyph unicode="&#xce;" horiz-adv-x="600" d="M16 1368l176 352h216l184 -352l-48 -16l-240 272l-256 -272zM120 40v48h120v1032h-112v48h336v-48h-112v-1032h120v-48h-352z" />
<glyph unicode="&#xcf;" horiz-adv-x="696" d="M48 1568q0 48 32 80t80 32q40 0 72 -32t32 -80q0 -49 -28 -80q-29 -32 -76 -32q-48 0 -80 32t-32 80zM168 40v48h120v1032h-112v48h336v-48h-112v-1032h120v-48h-352zM432 1568q0 48 32 80t80 32q40 0 72 -32t32 -80q0 -49 -28 -80q-29 -32 -76 -32q-48 0 -80 32t-32 80z " />
<glyph unicode="&#xd0;" horiz-adv-x="1312" d="M176 40v48h128v624h-128v48h128v600h-128v48h440q225 0 352 -184q128 -185 128 -496q0 -328 -132 -508t-356 -180h-432zM416 88h192q120 0 232 172t112 468t-108 464t-228 168h-200v-600h336v-48h-336v-624z" />
<glyph unicode="&#xd1;" horiz-adv-x="1368" d="M192 1120v48h208l608 -888v840h-120v48h288v-48h-120v-1080h-48l-640 952v-736v-32v-136h120v-48h-288v48h120v136v32v864h-128zM280 1512q79 208 208 208q112 0 216 -104q96 -104 160 -104q88 0 176 144l56 -32q-88 -208 -232 -208q-88 0 -200 120q-88 88 -176 88 q-72 0 -152 -144z" />
<glyph unicode="&#xd2;" horiz-adv-x="1368" d="M216 600q0 265 136 416q137 152 336 152q193 0 332 -160q140 -161 140 -408q0 -265 -136 -416q-137 -152 -336 -152t-336 152q-136 151 -136 416zM360 600q0 -224 96 -360t232 -136t232 136t96 360q0 217 -96 356q-96 140 -232 140t-232 -136t-96 -360zM448 1664v56h240 l240 -304l-48 -40z" />
<glyph unicode="&#xd3;" horiz-adv-x="1368" d="M216 600q0 265 136 416q137 152 336 152q193 0 332 -160q140 -161 140 -408q0 -265 -136 -416q-137 -152 -336 -152t-336 152q-136 151 -136 416zM360 600q0 -224 96 -360t232 -136t232 136t96 360q0 217 -96 356q-96 140 -232 140t-232 -136t-96 -360zM432 1416l256 304 h256v-56l-472 -288z" />
<glyph unicode="&#xd4;" horiz-adv-x="1368" d="M216 600q0 265 136 416q137 152 336 152q193 0 332 -160q140 -161 140 -408q0 -265 -136 -416q-137 -152 -336 -152t-336 152q-136 151 -136 416zM320 1368l256 352h216l264 -352l-64 -16l-304 224l-304 -224zM360 600q0 -224 96 -360t232 -136t232 136t96 360 q0 217 -96 356q-96 140 -232 140t-232 -136t-96 -360z" />
<glyph unicode="&#xd5;" horiz-adv-x="1368" d="M216 600q0 265 136 416q137 152 336 152q193 0 332 -160q140 -161 140 -408q0 -265 -136 -416q-137 -152 -336 -152t-336 152q-136 151 -136 416zM280 1504q96 216 208 216q97 0 216 -112q96 -96 160 -96q97 0 176 144l40 -24q-64 -216 -216 -216q-88 0 -200 112 q-89 104 -176 104q-64 0 -168 -152zM360 600q0 -224 96 -360t232 -136t232 136t96 360q0 217 -96 356q-96 140 -232 140t-232 -136t-96 -360z" />
<glyph unicode="&#xd6;" horiz-adv-x="1368" d="M216 600q0 265 136 416q137 152 336 152q193 0 332 -160q140 -161 140 -408q0 -265 -136 -416q-137 -152 -336 -152t-336 152q-136 151 -136 416zM320 1568q0 48 32 80t80 32q40 0 72 -32t32 -80q0 -49 -28 -80q-29 -32 -76 -32q-48 0 -80 32t-32 80zM360 600 q0 -224 96 -360t232 -136t232 136t96 360q0 217 -96 356q-96 140 -232 140t-232 -136t-96 -360zM832 1568q0 48 32 80t80 32q40 0 72 -32t32 -80q0 -49 -28 -80q-29 -32 -76 -32q-48 0 -80 32t-32 80z" />
<glyph unicode="&#xd7;" horiz-adv-x="2048" d="M296 72l660 660l-652 660l56 64l660 -660l660 660l64 -64l-662 -658l662 -662l-72 -64l-654 662l-666 -662z" />
<glyph unicode="&#xd8;" horiz-adv-x="1368" d="M192 -112l164 320q-2 4 -7.5 10t-8.5 10q-140 197 -140 508q0 296 140 484t332 188q132 0 246 -100l154 300l80 -40l-168 -328q12 -14 16 -20q144 -188 144 -484q0 -311 -140 -508q-139 -196 -332 -196q-141 0 -252 104l-148 -288zM344 736q0 -233 75 -404l451 882 q-86 122 -198 122q-136 0 -232 -172t-96 -428zM470 236q87 -132 202 -132q136 0 232 184t96 448q0 224 -76 386z" />
<glyph unicode="&#xd9;" horiz-adv-x="1368" d="M192 1120v48h344v-48h-120v-696q0 -145 76 -236q77 -92 196 -92q128 0 200 80q73 80 80 248v696h-144v48h352v-48h-136v-696q0 -177 -88 -284q-88 -108 -264 -108q-177 0 -280 112q-104 113 -104 280v696h-112zM432 1664v56h240l240 -304l-48 -40z" />
<glyph unicode="&#xda;" horiz-adv-x="1368" d="M192 1120v48h344v-48h-120v-696q0 -145 76 -236q77 -92 196 -92q128 0 200 80q73 80 80 248v696h-144v48h352v-48h-136v-696q0 -177 -88 -284q-88 -108 -264 -108q-177 0 -280 112q-104 113 -104 280v696h-112zM416 1416l256 304h256v-56l-472 -288z" />
<glyph unicode="&#xdb;" horiz-adv-x="1368" d="M192 1120v48h344v-48h-120v-696q0 -145 76 -236q77 -92 196 -92q128 0 200 80q73 80 80 248v696h-144v48h352v-48h-136v-696q0 -177 -88 -284q-88 -108 -264 -108q-177 0 -280 112q-104 113 -104 280v696h-112zM304 1368l256 352h216l264 -352l-64 -16l-304 224 l-304 -224z" />
<glyph unicode="&#xdc;" horiz-adv-x="1368" d="M192 1120v48h344v-48h-120v-696q0 -145 76 -236q77 -92 196 -92q128 0 200 80q73 80 80 248v696h-144v48h352v-48h-136v-696q0 -177 -88 -284q-88 -108 -264 -108q-177 0 -280 112q-104 113 -104 280v696h-112zM304 1568q0 48 32 80t80 32q40 0 72 -32t32 -80 q0 -49 -28 -80q-29 -32 -76 -32q-48 0 -80 32t-32 80zM816 1568q0 48 32 80t80 32q40 0 72 -32t32 -80q0 -49 -28 -80q-29 -32 -76 -32q-48 0 -80 32t-32 80z" />
<glyph unicode="&#xdd;" horiz-adv-x="1368" d="M200 1120v48h344v-48h-112l272 -504l264 504h-104v48h280v-48h-104l-312 -576v-456h120v-48h-352v48h120v456l-312 576h-104zM416 1416l256 304h256v-56l-472 -288z" />
<glyph unicode="&#xde;" horiz-adv-x="992" d="M48 40v48h144v1264h-144v56h408v-56h-144v-288h168q200 0 316 -92t116 -244t-116 -244t-316 -92h-168v-304h144v-48h-408zM312 448h168q111 0 200 68q88 67 88 212q0 151 -92 216q-91 64 -196 64h-168v-560z" />
<glyph unicode="&#xdf;" horiz-adv-x="1152" d="M72 40v48h152v1000q0 144 100 232t236 88q168 0 276 -96t108 -248q0 -183 -200 -272q264 -120 264 -384q0 -184 -104 -280t-248 -96q-120 0 -200 56t-80 128q0 56 28 80q29 24 76 24q56 0 68 -52q12 -53 -52 -84q55 -88 160 -88q80 0 148 80t68 232t-76 252t-180 100 h-104v56h104q72 0 136 64t64 184q0 137 -76 204q-77 68 -180 68q-96 0 -156 -68t-60 -180v-1048h-272z" />
<glyph unicode="&#xe0;" horiz-adv-x="912" d="M24 232q0 159 104 236q104 76 216 108t288 48v48q0 104 -60 148q-61 44 -156 44q-72 0 -140 -36t-68 -108q0 -49 -28 -68q-29 -20 -68 -20q-48 0 -48 48q0 120 116 188t196 68h96q95 0 184 -68q88 -67 88 -196v-520q0 -40 40 -40q48 0 80 128l48 -16q-32 -192 -168 -192 q-48 0 -80 32t-32 72q-113 -104 -272 -104h-96q-112 0 -176 64t-64 136zM152 256q0 -80 48 -116t160 -36q144 0 272 104v352q-177 -24 -268 -60q-93 -37 -152 -100q-60 -64 -60 -144zM208 1664v56h240l240 -304l-48 -40z" />
<glyph unicode="&#xe1;" horiz-adv-x="912" d="M24 232q0 159 104 236q104 76 216 108t288 48v48q0 104 -60 148q-61 44 -156 44q-72 0 -140 -36t-68 -108q0 -49 -28 -68q-29 -20 -68 -20q-48 0 -48 48q0 120 116 188t196 68h96q95 0 184 -68q88 -67 88 -196v-520q0 -40 40 -40q48 0 80 128l48 -16q-32 -192 -168 -192 q-48 0 -80 32t-32 72q-113 -104 -272 -104h-96q-112 0 -176 64t-64 136zM152 256q0 -80 48 -116t160 -36q144 0 272 104v352q-177 -24 -268 -60q-93 -37 -152 -100q-60 -64 -60 -144zM192 1416l256 304h256v-56l-472 -288z" />
<glyph unicode="&#xe2;" horiz-adv-x="912" d="M24 232q0 159 104 236q104 76 216 108t288 48v48q0 104 -60 148q-61 44 -156 44q-72 0 -140 -36t-68 -108q0 -49 -28 -68q-29 -20 -68 -20q-48 0 -48 48q0 120 116 188t196 68h96q95 0 184 -68q88 -67 88 -196v-520q0 -40 40 -40q48 0 80 128l48 -16q-32 -192 -168 -192 q-48 0 -80 32t-32 72q-113 -104 -272 -104h-96q-112 0 -176 64t-64 136zM80 1368l256 352h216l264 -352l-64 -16l-304 224l-304 -224zM152 256q0 -80 48 -116t160 -36q144 0 272 104v352q-177 -24 -268 -60q-93 -37 -152 -100q-60 -64 -60 -144z" />
<glyph unicode="&#xe3;" horiz-adv-x="912" d="M24 232q0 159 104 236q104 76 216 108t288 48v48q0 104 -60 148q-61 44 -156 44q-72 0 -140 -36t-68 -108q0 -49 -28 -68q-29 -20 -68 -20q-48 0 -48 48q0 120 116 188t196 68h96q95 0 184 -68q88 -67 88 -196v-520q0 -40 40 -40q48 0 80 128l48 -16q-32 -192 -168 -192 q-48 0 -80 32t-32 72q-113 -104 -272 -104h-96q-112 0 -176 64t-64 136zM40 1504q96 216 208 216q97 0 216 -112q96 -96 160 -96q96 0 176 144l40 -24q-64 -216 -216 -216q-88 0 -200 112q-89 104 -176 104q-64 0 -168 -152zM152 256q0 -80 48 -116t160 -36q144 0 272 104 v352q-177 -24 -268 -60q-93 -37 -152 -100q-60 -64 -60 -144z" />
<glyph unicode="&#xe4;" horiz-adv-x="912" d="M24 232q0 159 104 236q104 76 216 108t288 48v48q0 104 -60 148q-61 44 -156 44q-72 0 -140 -36t-68 -108q0 -49 -28 -68q-29 -20 -68 -20q-48 0 -48 48q0 120 116 188t196 68h96q95 0 184 -68q88 -67 88 -196v-520q0 -40 40 -40q48 0 80 128l48 -16q-32 -192 -168 -192 q-48 0 -80 32t-32 72q-113 -104 -272 -104h-96q-112 0 -176 64t-64 136zM120 1568q0 48 32 80t80 32t80 -32t32 -80t-32 -80t-80 -32t-80 32t-32 80zM152 256q0 -80 48 -116t160 -36q144 0 272 104v352q-177 -24 -268 -60q-93 -37 -152 -100q-60 -64 -60 -144zM536 1568 q0 48 32 80t80 32t80 -32t32 -80t-32 -80t-80 -32t-80 32t-32 80z" />
<glyph unicode="&#xe5;" horiz-adv-x="912" d="M24 232q0 159 104 236q104 76 216 108t288 48v48q0 104 -60 148q-61 44 -156 44q-72 0 -140 -36t-68 -108q0 -49 -28 -68q-29 -20 -68 -20q-48 0 -48 48q0 120 116 188t196 68h96q95 0 184 -68q88 -67 88 -196v-520q0 -40 40 -40q48 0 80 128l48 -16q-32 -192 -168 -192 q-48 0 -80 32t-32 72q-113 -104 -272 -104h-96q-112 0 -176 64t-64 136zM152 256q0 -80 48 -116t160 -36q144 0 272 104v352q-177 -24 -268 -60q-93 -37 -152 -100q-60 -64 -60 -144zM224 1400q0 96 64 160t160 64q89 0 156 -64q68 -65 68 -160t-68 -160q-67 -64 -160 -64 q-92 0 -156 64t-64 160zM272 1400q0 -72 52 -120t124 -48q64 0 116 48t52 120q0 64 -52 116t-116 52q-72 0 -124 -52t-52 -116z" />
<glyph unicode="&#xe6;" horiz-adv-x="1368" d="M176 232q0 136 96 228q98 94 172 124q80 33 148 40v48q0 104 -24 148t-88 44q-72 0 -96 -36t-24 -108q0 -49 -28 -68q-29 -20 -68 -20q-48 0 -48 48q0 121 76 188q77 68 156 68h64q88 0 140 -64q16 -21 26 -45q68 109 178 109q120 0 200 -104t80 -256v-56h-416v-24 q0 -201 52 -284q52 -84 116 -84q72 0 116 44q43 43 84 148l48 -24q-17 -121 -88 -192q-72 -72 -160 -72q-112 0 -196 112q-12 16 -17 25q-108 -137 -227 -137h-32q-112 0 -176 64t-64 136zM304 256q0 -80 48 -116t96 -36q64 0 144 104v352q-57 -17 -120 -52t-116 -108 q-52 -71 -52 -144zM722 576h286q-7 150 -52 224q-43 72 -100 72q-56 0 -96 -96q-30 -71 -38 -200z" />
<glyph unicode="&#xe7;" horiz-adv-x="872" d="M40 472q0 224 128 344t296 120q136 0 244 -84t108 -180q0 -40 -24 -72t-72 -32q-39 0 -64 20q-24 19 -24 52q0 72 64 88q-32 57 -92 100q-61 44 -140 44q-136 0 -216 -108q-80 -109 -80 -292q0 -161 88 -252q89 -92 208 -92q113 0 196 52q84 53 148 140l40 -24 q-48 -120 -156 -192t-228 -72q-21 0 -32 1l-40 -89q120 64 176 40t56 -104q0 -72 -80 -120t-264 -48l-24 72q136 0 212 24t76 72q0 79 -160 0h-96l69 163q-119 25 -201 113q-116 125 -116 316z" />
<glyph unicode="&#xe8;" horiz-adv-x="896" d="M64 496q0 208 108 324t268 116q104 0 196 -56t136 -136t44 -168v-56h-624v-24q0 -175 80 -272q80 -96 192 -96q120 0 200 44q79 43 144 148l48 -24q-48 -121 -148 -192q-100 -72 -244 -72q-168 0 -284 128t-116 336zM196 576h492q-8 128 -84 212t-164 84q-80 0 -164 -92 q-65 -71 -80 -204zM208 1664v56h240l240 -304l-48 -40z" />
<glyph unicode="&#xe9;" horiz-adv-x="896" d="M64 496q0 208 108 324t268 116q104 0 196 -56t136 -136t44 -168v-56h-624v-24q0 -175 80 -272q80 -96 192 -96q120 0 200 44q79 43 144 148l48 -24q-48 -121 -148 -192q-100 -72 -244 -72q-168 0 -284 128t-116 336zM192 1416l256 304h256v-56l-472 -288zM196 576h492 q-8 128 -84 212t-164 84q-80 0 -164 -92q-65 -71 -80 -204z" />
<glyph unicode="&#xea;" horiz-adv-x="896" d="M64 496q0 208 108 324t268 116q104 0 196 -56t136 -136t44 -168v-56h-624v-24q0 -175 80 -272q80 -96 192 -96q120 0 200 44q79 43 144 148l48 -24q-48 -121 -148 -192q-100 -72 -244 -72q-168 0 -284 128t-116 336zM80 1368l256 352h216l264 -352l-64 -16l-304 224 l-304 -224zM196 576h492q-8 128 -84 212t-164 84q-80 0 -164 -92q-65 -71 -80 -204z" />
<glyph unicode="&#xeb;" horiz-adv-x="896" d="M64 496q0 208 108 324t268 116q104 0 196 -56t136 -136t44 -168v-56h-624v-24q0 -175 80 -272q80 -96 192 -96q120 0 200 44q79 43 144 148l48 -24q-48 -121 -148 -192q-100 -72 -244 -72q-168 0 -284 128t-116 336zM120 1568q0 48 32 80t80 32t80 -32t32 -80t-32 -80 t-80 -32t-80 32t-32 80zM196 576h492q-8 128 -84 212t-164 84q-80 0 -164 -92q-65 -71 -80 -204zM536 1568q0 48 32 80t80 32t80 -32t32 -80t-32 -80t-80 -32t-80 32t-32 80z" />
<glyph unicode="&#xec;" horiz-adv-x="496" d="M-8 816v56l264 64h48v-848h152v-48h-416v48h152v728h-200zM16 1664v56h240l240 -304l-48 -40z" />
<glyph unicode="&#xed;" horiz-adv-x="496" d="M-8 816v56l264 64h48v-848h152v-48h-416v48h152v728h-200zM16 1416l208 304h256v-56l-424 -288z" />
<glyph unicode="&#xee;" horiz-adv-x="608" d="M16 1368l176 352h216l184 -352l-48 -16l-240 256l-240 -256zM56 40v48h200v728h-200v56l264 64h48v-848h200v-48h-512z" />
<glyph unicode="&#xef;" horiz-adv-x="680" d="M24 1568q0 48 32 80t80 32t80 -32t32 -80t-32 -80t-80 -32t-80 32t-32 80zM88 40v48h200v728h-200v56l264 64h48v-848h200v-48h-512zM424 1568q0 48 32 80t80 32t80 -32t32 -80t-32 -80t-80 -32t-80 32t-32 80z" />
<glyph unicode="&#xf0;" horiz-adv-x="880" d="M40 448q0 176 96 288t248 112q80 0 156 -40q78 -41 132 -104q0 200 -112 372q-40 61 -96 116l-264 -104l-16 48l239 94q-97 85 -239 162l24 40q176 -82 294 -172l274 108l16 -48l-244 -96q61 -51 108 -112q136 -175 136 -408v-96q0 -256 -108 -412t-292 -156 q-168 0 -260 120q-92 121 -92 288zM160 448q0 -151 68 -252q67 -100 164 -100q120 0 200 140t80 372q-79 103 -152 144q-71 40 -136 40q-88 0 -156 -96q-68 -97 -68 -248z" />
<glyph unicode="&#xf1;" horiz-adv-x="1032" d="M56 40v48h120v728h-104v48l160 72h56v-216q128 216 288 216h32q97 0 176 -76q80 -77 80 -220v-552h120v-48h-352v48h120v552q0 120 -56 164t-120 44q-136 0 -288 -192v-568h120v-48h-352zM104 1504q96 216 208 216q97 0 216 -112q96 -96 160 -96q96 0 176 144l40 -24 q-64 -216 -216 -216q-88 0 -200 112q-89 104 -176 104q-64 0 -168 -152z" />
<glyph unicode="&#xf2;" horiz-adv-x="952" d="M48 488q0 200 120 324t304 124t308 -124t124 -324q0 -192 -120 -324t-312 -132t-308 132q-116 133 -116 324zM184 488q0 -169 76 -276q76 -108 212 -108q128 0 212 108t84 276q0 159 -80 268q-80 108 -216 108t-212 -108q-76 -107 -76 -268zM240 1664v56h240l240 -304 l-48 -40z" />
<glyph unicode="&#xf3;" horiz-adv-x="952" d="M48 488q0 200 120 324t304 124t308 -124t124 -324q0 -192 -120 -324t-312 -132t-308 132q-116 133 -116 324zM184 488q0 -169 76 -276q76 -108 212 -108q128 0 212 108t84 276q0 159 -80 268q-80 108 -216 108t-212 -108q-76 -107 -76 -268zM224 1416l256 304h256v-56 l-472 -288z" />
<glyph unicode="&#xf4;" horiz-adv-x="952" d="M48 488q0 200 120 324t304 124t308 -124t124 -324q0 -192 -120 -324t-312 -132t-308 132q-116 133 -116 324zM112 1368l256 352h216l264 -352l-64 -16l-304 224l-304 -224zM184 488q0 -169 76 -276q76 -108 212 -108q128 0 212 108t84 276q0 159 -80 268 q-80 108 -216 108t-212 -108q-76 -107 -76 -268z" />
<glyph unicode="&#xf5;" horiz-adv-x="952" d="M48 488q0 200 120 324t304 124t308 -124t124 -324q0 -192 -120 -324t-312 -132t-308 132q-116 133 -116 324zM72 1504q96 216 208 216q97 0 216 -112q96 -96 160 -96q96 0 176 144l40 -24q-64 -216 -216 -216q-88 0 -200 112q-89 104 -176 104q-64 0 -168 -152zM184 488 q0 -169 76 -276q76 -108 212 -108q128 0 212 108t84 276q0 159 -80 268q-80 108 -216 108t-212 -108q-76 -107 -76 -268z" />
<glyph unicode="&#xf6;" horiz-adv-x="952" d="M48 488q0 200 120 324t304 124t308 -124t124 -324q0 -192 -120 -324t-312 -132t-308 132q-116 133 -116 324zM152 1568q0 48 32 80t80 32t80 -32t32 -80t-32 -80t-80 -32t-80 32t-32 80zM184 488q0 -169 76 -276q76 -108 212 -108q128 0 212 108t84 276q0 159 -80 268 q-80 108 -216 108t-212 -108q-76 -107 -76 -268zM568 1568q0 48 32 80t80 32t80 -32t32 -80t-32 -80t-80 -32t-80 32t-32 80z" />
<glyph unicode="&#xf7;" horiz-adv-x="2048" d="M312 696v80h1400v-80h-1400zM904 280q0 47 32 84q31 36 88 36q56 0 88 -36q32 -37 32 -84t-32 -84q-32 -36 -88 -36q-57 0 -88 36q-32 37 -32 84zM904 1200q0 48 36 84t84 36t84 -36t36 -84t-36 -84t-84 -36t-84 36t-36 84z" />
<glyph unicode="&#xf8;" horiz-adv-x="952" d="M48 488q0 200 120 324t304 124q93 0 172 -32l84 168l56 -24l-86 -172q47 -29 82 -64q124 -124 124 -324q0 -192 -120 -324t-312 -132q-98 0 -178 36l-78 -156l-56 24l80 160q-40 27 -76 68q-116 133 -116 324zM184 488q0 -169 76 -276q10 -15 23 -29l324 647 q-58 34 -135 34q-136 0 -212 -108q-76 -107 -76 -268zM331 142q58 -38 141 -38q128 0 212 108t84 276q0 159 -80 268q-13 17 -32 36z" />
<glyph unicode="&#xf9;" horiz-adv-x="1032" d="M40 824v48l176 64h56v-640q0 -88 40 -128t112 -40q152 0 328 200v496h-128v48l184 64h56v-784h104v-48l-160 -64h-56v176q-184 -184 -328 -184q-136 0 -200 76t-64 188v528h-120zM272 1664v56h240l240 -304l-48 -40z" />
<glyph unicode="&#xfa;" horiz-adv-x="1032" d="M40 824v48l176 64h56v-640q0 -88 40 -128t112 -40q152 0 328 200v496h-128v48l184 64h56v-784h104v-48l-160 -64h-56v176q-184 -184 -328 -184q-136 0 -200 76t-64 188v528h-120zM256 1416l256 304h256v-56l-472 -288z" />
<glyph unicode="&#xfb;" horiz-adv-x="1032" d="M40 824v48l176 64h56v-640q0 -88 40 -128t112 -40q152 0 328 200v496h-128v48l184 64h56v-784h104v-48l-160 -64h-56v176q-184 -184 -328 -184q-136 0 -200 76t-64 188v528h-120zM144 1368l256 352h216l264 -352l-64 -16l-304 224l-304 -224z" />
<glyph unicode="&#xfc;" horiz-adv-x="1032" d="M40 824v48l176 64h56v-640q0 -88 40 -128t112 -40q152 0 328 200v496h-128v48l184 64h56v-784h104v-48l-160 -64h-56v176q-184 -184 -328 -184q-136 0 -200 76t-64 188v528h-120zM184 1568q0 48 32 80t80 32t80 -32t32 -80t-32 -80t-80 -32t-80 32t-32 80zM600 1568 q0 48 32 80t80 32t80 -32t32 -80t-32 -80t-80 -32t-80 32t-32 80z" />
<glyph unicode="&#xfd;" horiz-adv-x="1032" d="M40 888v48h352v-48h-120l275 -600l245 600h-120v48h304v-48h-104l-416 -992q-31 -64 -80 -108t-120 -44q-72 8 -104 44q-32 37 -32 76q7 47 24 64q16 16 64 16q49 -8 56 -48q8 -41 -32 -64q23 -16 56 -16q32 0 60 28t52 84l90 219l-338 741h-112zM256 1416l256 304h256 v-56l-472 -288z" />
<glyph unicode="&#xfe;" horiz-adv-x="976" d="M40 -192h136v1568h-128v48l184 48h56v-656q63 63 132 92q66 28 132 28q143 0 264 -104q120 -104 120 -312q0 -200 -108 -324t-276 -124q-80 0 -140 24q-59 24 -124 72v-360h136v-48h-384v48zM288 248q65 -56 124 -84t140 -28q120 0 192 96t72 288q0 185 -76 268 q-77 84 -188 84q-62 0 -128 -32q-63 -31 -136 -104v-488z" />
<glyph unicode="&#xff;" horiz-adv-x="1032" d="M40 888v48h352v-48h-120l275 -600l245 600h-120v48h304v-48h-104l-416 -992q-31 -64 -80 -108t-120 -44q-72 8 -104 44q-32 37 -32 76q7 47 24 64q16 16 64 16q49 -8 56 -48q8 -41 -32 -64q23 -16 56 -16q32 0 60 28t52 84l90 219l-338 741h-112zM184 1568q0 48 32 80 t80 32t80 -32t32 -80t-32 -80t-80 -32t-80 32t-32 80zM600 1568q0 48 32 80t80 32t80 -32t32 -80t-32 -80t-80 -32t-80 32t-32 80z" />
<glyph unicode="&#x152;" horiz-adv-x="1368" d="M64 680q0 312 108 488t260 176h840v-288h-56q0 224 -136 224h-280v-560h288v160h64v-384h-64v160h-288v-592h280q136 0 136 224h56v-288h-840q-224 0 -296 188t-72 492zM192 680q0 -263 56 -440q56 -176 184 -176h240v1216h-240q-120 0 -180 -160q-60 -161 -60 -440z" />
<glyph unicode="&#x153;" horiz-adv-x="1368" d="M200 480q0 224 68 352t196 128q103 0 156 -80q50 -76 68 -120q7 70 52 136q43 64 132 64q96 0 172 -112t76 -272v-64h-392q0 -225 52 -320q52 -96 140 -96q63 0 104 44q38 41 80 172l56 -16q-24 -136 -84 -216t-156 -80q-105 0 -160 76q-56 77 -72 124q-17 -80 -72 -140 q-56 -60 -144 -60q-136 0 -204 128t-68 352zM312 480q0 -190 44 -304q43 -112 116 -112q88 0 128 112q40 111 40 304t-40 300q-41 109 -136 116q-71 -7 -112 -116q-40 -107 -40 -300zM728 576h288q0 135 -44 228q-44 92 -100 92t-96 -88q-41 -89 -48 -232z" />
<glyph unicode="&#x178;" horiz-adv-x="1368" d="M200 1360v48h344v-48h-112l272 -640l264 640h-104v48h280v-48h-104l-312 -728v-544h120v-48h-352v48h120v544l-312 728h-104zM344 1624q0 48 32 80t80 32t80 -32t32 -80t-32 -80t-80 -32t-80 32t-32 80zM760 1624q0 48 32 80t80 32t80 -32t32 -80t-32 -80t-80 -32t-80 32 t-32 80z" />
<glyph unicode="&#x2c6;" horiz-adv-x="608" d="M24 1400l200 272h168l200 -272l-40 -24l-240 176l-248 -176z" />
<glyph unicode="&#x2dc;" horiz-adv-x="832" d="M24 1504q96 216 208 216q97 0 216 -112q96 -96 160 -96q96 0 176 144l40 -24q-64 -216 -216 -216q-88 0 -200 112q-89 104 -176 104q-64 0 -168 -152z" />
<glyph unicode="&#x2000;" horiz-adv-x="880" vert-adv-y="0" />
<glyph unicode="&#x2001;" horiz-adv-x="1760" vert-adv-y="0" />
<glyph unicode="&#x2002;" horiz-adv-x="880" vert-adv-y="0" />
<glyph unicode="&#x2003;" horiz-adv-x="1760" vert-adv-y="0" />
<glyph unicode="&#x2004;" horiz-adv-x="586" vert-adv-y="0" />
<glyph unicode="&#x2005;" horiz-adv-x="440" vert-adv-y="0" />
<glyph unicode="&#x2006;" horiz-adv-x="293" vert-adv-y="0" />
<glyph unicode="&#x2007;" horiz-adv-x="293" vert-adv-y="0" />
<glyph unicode="&#x2008;" horiz-adv-x="220" vert-adv-y="0" />
<glyph unicode="&#x2009;" horiz-adv-x="352" vert-adv-y="0" />
<glyph unicode="&#x200a;" horiz-adv-x="97" vert-adv-y="0" />
<glyph unicode="&#x2010;" d="M64 736v96h904v-96h-904z" />
<glyph unicode="&#x2011;" d="M64 736v96h904v-96h-904z" />
<glyph unicode="&#x2012;" d="M64 736v96h904v-96h-904z" />
<glyph unicode="&#x2013;" horiz-adv-x="1032" d="M0 672v64h1032v-64h-1032z" />
<glyph unicode="&#x2014;" horiz-adv-x="1368" d="M0 712v128h1368v-128h-1368z" />
<glyph unicode="&#x2018;" d="M464 1296q0 66 40 168q41 104 184 216l48 -32q-58 -67 -92 -140q-36 -76 -36 -132q96 -24 96 -120q0 -47 -32 -76q-31 -28 -88 -28q-48 0 -84 36t-36 108z" />
<glyph unicode="&#x2019;" d="M328 1120q121 138 152 296q-63 7 -96 40q-32 32 -32 88q0 64 36 96q37 32 92 32q48 0 92 -36t44 -92q0 -168 -88 -292q-87 -123 -168 -164z" />
<glyph unicode="&#x201a;" horiz-adv-x="488" d="M88 -224q121 138 152 296q-63 7 -96 40q-32 32 -32 88q0 64 36 96q37 32 92 32q48 0 92 -36t44 -92q0 -168 -88 -292q-87 -123 -168 -164z" />
<glyph unicode="&#x201c;" d="M216 1296q0 66 40 168q41 104 184 216l48 -32q-58 -67 -92 -140q-36 -76 -36 -132q96 -24 96 -120q0 -47 -32 -76q-31 -28 -88 -28q-48 0 -84 36t-36 108zM608 1296q0 66 40 168q41 104 184 216l48 -32q-58 -67 -92 -140q-36 -76 -36 -132q96 -24 96 -120q0 -47 -32 -76 q-31 -28 -88 -28q-48 0 -84 36t-36 108z" />
<glyph unicode="&#x201d;" d="M152 1120q121 138 152 296q-63 7 -96 40q-32 32 -32 88q0 64 36 96q37 32 92 32q48 0 92 -36t44 -92q0 -168 -88 -292q-87 -123 -168 -164zM520 1120q121 138 152 296q-63 7 -96 40q-32 32 -32 88q0 64 36 96q37 32 92 32q48 0 92 -36t44 -92q0 -168 -88 -292 q-87 -123 -168 -164z" />
<glyph unicode="&#x201e;" horiz-adv-x="752" d="M40 -224q121 138 152 296q-63 7 -96 40q-32 32 -32 88q0 64 36 96q37 32 92 32q48 0 92 -36t44 -92q0 -168 -88 -292q-87 -123 -168 -164zM408 -224q121 138 152 296q-63 7 -96 40q-32 32 -32 88q0 64 36 96q37 32 92 32q48 0 92 -36t44 -92q0 -168 -88 -292 q-87 -123 -168 -164z" />
<glyph unicode="&#x2022;" horiz-adv-x="488" d="M144 736q0 41 28 72q29 32 76 32t76 -32q28 -31 28 -72t-28 -72q-29 -32 -76 -32t-76 32q-28 31 -28 72z" />
<glyph unicode="&#x2026;" horiz-adv-x="2048" d="M272 736q0 41 28 72q29 32 76 32t76 -32q28 -31 28 -72t-28 -72q-29 -32 -76 -32t-76 32q-28 31 -28 72zM920 736q0 41 28 72q29 32 76 32t76 -32q28 -31 28 -72t-28 -72q-29 -32 -76 -32t-76 32q-28 31 -28 72zM1568 736q0 41 28 72q29 32 76 32t76 -32q28 -31 28 -72 t-28 -72q-29 -32 -76 -32t-76 32q-28 31 -28 72z" />
<glyph unicode="&#x202f;" horiz-adv-x="352" vert-adv-y="0" />
<glyph unicode="&#x2039;" horiz-adv-x="888" d="M80 752l632 744l88 -120l-528 -624l528 -632l-88 -128z" />
<glyph unicode="&#x203a;" horiz-adv-x="888" d="M80 104l536 624l-536 640l88 128l632 -768l-632 -736z" />
<glyph unicode="&#x205f;" horiz-adv-x="440" vert-adv-y="0" />
<glyph unicode="&#x2122;" horiz-adv-x="1368" d="M40 1432v120h432v-120h-168v-472h-112v472h-152zM488 960v592h128l96 -272l104 272h128v-592h-104v360l-80 -216h-88l-80 208v-352h-104z" />
<glyph unicode="&#xe000;" horiz-adv-x="935" vert-adv-y="1870" d="M0 0v935h935v-935h-935z" />
<glyph unicode="&#xfb01;" horiz-adv-x="992" d="M24 1040v136h128v264q0 128 72 224t224 96h104v-160h-112q-65 0 -96 -40q-32 -41 -32 -120v-264h528v-1176h-160v1040h-368v-1040h-160v1040h-128z" />
<glyph unicode="&#xfb02;" horiz-adv-x="1112" d="M24 1040v136h128v264q0 128 72 224t224 96q119 0 240 -80v80h160v-1760h-160v1528q-127 64 -248 72q-65 0 -96 -40q-32 -41 -32 -120v-264h240v-136h-240v-1040h-160v1040h-128z" />
</font>
</defs>
</svg>
