<?xml version="1.0" standalone="no"?>
<!DOCTYPE svg PUBLIC "-//W3C//DTD SVG 1.1//EN" "http://www.w3.org/Graphics/SVG/1.1/DTD/svg11.dtd" >
<svg xmlns="http://www.w3.org/2000/svg">
<metadata></metadata>
<defs>
<font id="intervalbook" horiz-adv-x="1228" >
<font-face units-per-em="2048" ascent="1536" descent="-512" />
<missing-glyph horiz-adv-x="500" />
<glyph horiz-adv-x="0" />
<glyph horiz-adv-x="0" />
<glyph unicode="&#xd;" />
<glyph unicode=" " />
<glyph unicode="!" d="M485 0v262h217v-262h-217zM500 1067v457h188v-457l-31 -578h-127z" />
<glyph unicode="&#x22;" d="M424 1587h158l-31 -383h-102zM670 1587h157l-30 -383h-103z" />
<glyph unicode="#" horiz-adv-x="1249" d="M0 428v127h264l96 403h-221v127h248l111 471h145l-108 -471h344l108 471h148l-109 -471h223v-127h-252l-94 -403h207v-127h-236l-104 -461h-147l104 461h-342l-104 -461h-148l105 461h-238zM412 555h344l94 403h-342z" />
<glyph unicode="$" d="M137 326h146q0 -55 25.5 -98.5t69.5 -73t100.5 -45t117.5 -15.5q55 0 105.5 17.5t90 51.5t63.5 81t24 108q0 43 -7.5 89t-34 92.5t-79.5 86t-148 70.5q-154 49 -242.5 101.5t-135 112t-59.5 126t-13 144.5q0 80 30.5 142t82 107t117 72t134.5 35v121h148v-121 q92 -12 157.5 -49t105.5 -87.5t58.5 -107.5t18.5 -110h-146q0 57 -25.5 101t-65.5 73.5t-89 45t-96 15.5t-94 -14.5t-84 -44t-60.5 -73.5t-23.5 -105q0 -53 11 -99.5t46 -87.5t97.5 -77.5t166.5 -71.5q117 -39 193 -86t122 -105.5t64.5 -130.5t18.5 -164q0 -61 -24 -124.5 t-71 -116t-117.5 -90t-166.5 -48.5h4v-120h-148v120q-84 8 -155.5 37t-122.5 75t-80 106.5t-29 134.5z" />
<glyph unicode="%" d="M102 1305q0 51 19.5 97t54.5 81t80 54t98 19q51 0 97.5 -19t81 -54t54 -81t19.5 -97q0 -53 -19.5 -98.5t-54 -80t-80.5 -54t-98 -19.5q-53 0 -98 19.5t-80 54t-54.5 80t-19.5 98.5zM129 -31l815 1587h166l-817 -1587h-164zM219 1305q0 -55 40 -95.5t95 -40.5q57 0 96 40 t39 96q0 55 -38.5 95t-96.5 40q-55 0 -95 -40t-40 -95zM623 219q0 51 19.5 97t54 81t79.5 54.5t98 19.5q51 0 97.5 -19.5t81 -54.5t54 -81t19.5 -97t-19.5 -97t-54 -80t-80.5 -54.5t-98 -20.5q-53 0 -98 20.5t-79.5 54.5t-54 80t-19.5 97zM739 219q0 -55 40 -94t95 -39 q57 0 96.5 39t39.5 94q0 57 -39 96t-97 39q-55 0 -95 -39t-40 -96z" />
<glyph unicode="&#x26;" d="M72 397q0 57 16 116.5t45 113t68 99.5t86 77q-96 57 -144.5 145t-48.5 187q0 94 33 171.5t94.5 133t149.5 86t198 30.5q176 0 290 -91t134 -251h-147q-23 98 -95.5 155.5t-181.5 57.5q-80 0 -138 -24.5t-95 -65.5t-54.5 -93t-17.5 -109q0 -49 14.5 -96.5t51.5 -84 t99.5 -59.5t160.5 -23v-129q-104 0 -172 -36.5t-107 -90t-54 -113t-15 -106.5q0 -57 17 -111.5t54 -96.5t95.5 -67.5t138.5 -25.5q68 0 122 28t92 78t57.5 119.5t19.5 153.5v268h-111v127h426v-127h-168v-743h-70l-75 113q-25 -41 -66 -72q-35 -29 -91 -50.5t-134 -21.5 q-111 0 -199 31t-150.5 88t-95 135t-32.5 174z" />
<glyph unicode="'" d="M471 1153v92q94 0 131 55.5t37 133.5h-98v262h217v-262q0 -129 -76 -205t-211 -76z" />
<glyph unicode="(" d="M512 614q0 496 256 891h113q-68 -139 -106 -270t-57.5 -246t-24.5 -210t-5 -165t5 -166t24.5 -210.5t57.5 -245.5t106 -271h-113q-256 395 -256 893z" />
<glyph unicode=")" d="M348 -279q68 139 106 270.5t57 246t24.5 210.5t5.5 166t-5.5 165t-24.5 210t-57 246t-106 270h113q256 -395 256 -891q0 -498 -256 -893h-113z" />
<glyph unicode="*" d="M219 1235l41 108l268 -110l-14 291h119l-15 -291l269 110l41 -108l-279 -88l213 -199l-82 -80l-207 226l-206 -226l-80 82l213 197z" />
<glyph unicode="+" d="M166 565v129h381v383h129v-383h385v-129h-385v-385h-129v385h-381z" />
<glyph unicode="," d="M410 -188q94 0 131 55t37 133h-99v262h217v-262q0 -129 -75.5 -205t-210.5 -76v93z" />
<glyph unicode="-" d="M295 487v127h639v-127h-639z" />
<glyph unicode="." d="M506 0v262h217v-262h-217z" />
<glyph unicode="/" d="M236 -61l608 1648h149l-602 -1648h-155z" />
<glyph unicode="0" d="M139 762q0 406 113 600t360 194q125 0 215.5 -45t148.5 -142t86 -247.5t28 -359.5q0 -403 -114 -598t-364 -195q-123 0 -213 54.5t-147 157t-85 249t-28 332.5zM307 762q0 -156 9.5 -283t39.5 -213l416 1127q-31 25 -75 32t-85 7q-88 0 -146 -42t-94 -127t-50.5 -210 t-14.5 -291zM461 127q29 -23 71.5 -28t79.5 -5q88 0 148.5 42t95.5 126t50.5 209t15.5 291q0 154 -11.5 280.5t-40.5 210.5z" />
<glyph unicode="1" d="M143 0v127h373v1057h-303v125q100 0 159.5 30.5t92.5 67.5q37 43 51 98h148v-1378h372v-127h-893z" />
<glyph unicode="2" d="M158 1214q8 74 38.5 136.5t82 108.5t124 71.5t168.5 25.5q111 0 199 -31.5t148.5 -87t92 -131t31.5 -163.5q0 -98 -28.5 -167t-74.5 -121t-103.5 -98.5t-116.5 -97.5q-53 -47 -112.5 -93t-110 -100t-84 -117.5t-33.5 -145.5v-76h692v-127h-903v150q0 104 39 191t97 160.5 t128 135t131 113.5q106 90 168 143t93.5 92t39.5 73t8 85q0 55 -18 106t-55 91t-94.5 63.5t-133.5 23.5q-106 0 -174.5 -57t-91.5 -156h-147z" />
<glyph unicode="3" d="M160 309h145q2 -51 26.5 -90t64.5 -66.5t91.5 -42t106.5 -14.5q80 0 138.5 25.5t95 67.5t54 96.5t17.5 111.5q0 47 -15.5 106.5t-54 113t-106.5 90t-172 36.5h-150v129h150q98 0 160.5 23t99.5 59.5t51.5 83.5t14.5 97q0 57 -17.5 109t-54.5 93t-95.5 65.5t-138.5 24.5 q-109 0 -174 -57t-88 -156h-147q20 160 126.5 251t282.5 91q111 0 199 -30.5t149.5 -86t94.5 -133t33 -171.5q0 -98 -48.5 -186.5t-144.5 -145.5q45 -31 85 -77t68.5 -99.5t45 -112.5t16.5 -117q0 -96 -32.5 -174t-95 -135t-151 -88t-198.5 -31q-90 0 -167 22.5t-134.5 66.5 t-92 107.5t-38.5 143.5z" />
<glyph unicode="4" d="M92 487v144l608 874h156v-891h281v-127h-281v-487h-147v487h-617zM238 614h471v674z" />
<glyph unicode="5" d="M172 309h162q39 -125 116.5 -170t176.5 -45q125 0 199.5 100.5t74.5 262.5q0 184 -75.5 269t-198.5 85q-76 0 -134.5 -33t-95.5 -92h-198v819h809v-127h-660v-559q47 55 120 87t159 32q82 0 159.5 -23.5t138 -80t97.5 -148.5t37 -229q0 -133 -41 -226.5t-103.5 -152 t-139.5 -84t-148 -25.5q-123 0 -203 34t-131 84t-78 109.5t-43 112.5z" />
<glyph unicode="6" d="M156 764q0 223 35.5 374.5t98 245t150.5 133t193 39.5q94 0 159.5 -21.5t109.5 -56t73 -77.5t51 -86h-174q-29 45 -79 81t-140 36q-94 0 -152.5 -48.5t-92.5 -137.5t-48 -217t-16 -288q27 47 64.5 79t79.5 50.5t85 26.5t80 8q82 0 159.5 -23.5t138 -78.5t97.5 -145.5 t37 -221.5q0 -133 -41 -223t-103.5 -144.5t-139 -77t-148.5 -22.5q-145 0 -238.5 60.5t-146.5 167t-72.5 252t-19.5 315.5zM350 436q0 -84 22.5 -147.5t60.5 -106.5t89 -65.5t111 -22.5q125 0 199.5 90t74.5 252q0 86 -21.5 150.5t-58 107.5t-87 63.5t-107.5 20.5 q-53 0 -104.5 -20.5t-91.5 -61.5t-63.5 -106.5t-23.5 -153.5z" />
<glyph unicode="7" d="M104 1378v127h895v-149q-66 -174 -135 -342t-140 -336t-139.5 -336t-131.5 -342h-166l563 1378h-746z" />
<glyph unicode="8" d="M190 412q0 63 10.5 124.5t36 117t69.5 102.5t110 86q-57 29 -95 68.5t-59.5 82.5t-30 87t-8.5 83q0 86 28 159t80 125t126.5 80.5t171.5 28.5q94 0 168.5 -28.5t127 -80.5t79 -125t26.5 -159q0 -39 -8 -83t-28.5 -87t-57.5 -83t-94 -68q66 -39 109.5 -86t69.5 -102.5 t36 -117t10 -124.5q0 -80 -24.5 -159t-77 -142.5t-136.5 -102.5t-200 -39q-117 0 -201 39t-136 102.5t-77 142.5t-25 159zM348 412q0 -31 10.5 -84.5t40 -105.5t85 -90t145.5 -38t145 38t85 89t40 105.5t10 85.5q0 39 -10 98t-40 115.5t-85 96.5t-145 40t-145.5 -40 t-85 -96.5t-40 -115.5t-10.5 -98zM381 1163q0 -43 15.5 -90t46 -87t77 -66.5t109.5 -26.5t109 26.5t76 66.5t44 87t14 90q0 47 -16 95.5t-47 86t-77 62.5t-103 25q-59 0 -104.5 -25t-78 -62.5t-49 -86t-16.5 -95.5z" />
<glyph unicode="9" d="M156 1090q0 133 40 223t103 144t140 76.5t149 22.5q145 0 238.5 -60t146.5 -166.5t72.5 -252t19.5 -315.5q0 -223 -36 -374.5t-98.5 -245t-150.5 -133.5t-192 -40q-94 0 -160 21.5t-110 56.5t-73.5 78t-49.5 86h174q29 -45 79 -81t140 -36q94 0 152.5 48t92 137.5 t47 217.5t17.5 287q-27 -47 -64.5 -78.5t-79.5 -50t-85 -26.5t-80 -8q-82 0 -160 23.5t-138.5 78.5t-97 144t-36.5 223zM313 1090q0 -86 21.5 -151t58.5 -108t87.5 -63t107.5 -20q53 0 104 20t91 61t63.5 105.5t23.5 155.5q0 82 -22.5 146t-60 107t-90 66t-109.5 23 q-125 0 -200 -90.5t-75 -251.5z" />
<glyph unicode=":" d="M485 0v262h217v-262h-217zM485 782v262h217v-262h-217z" />
<glyph unicode=";" d="M416 -188q94 0 131 55t37 133h-99v262h217v-262q0 -129 -75.5 -205t-210.5 -76v93zM485 782v262h220v-262h-220z" />
<glyph unicode="&#x3c;" d="M268 618l467 426h223l-466 -426q113 -104 231.5 -212.5t234.5 -212.5h-223z" />
<glyph unicode="=" d="M150 397v127h929v-127h-929zM150 743v129h929v-129h-929z" />
<glyph unicode="&#x3e;" d="M270 193l467 425q-113 104 -231.5 212t-235.5 214h222q119 -111 234.5 -213t231.5 -213l-464 -425h-224z" />
<glyph unicode="?" d="M145 1214q8 160 112.5 251t285.5 91q100 0 185 -23.5t145.5 -69.5t94 -114.5t33.5 -160.5q0 -78 -19 -133.5t-51 -97.5t-70 -71.5t-75 -56.5q-29 -18 -57.5 -37.5t-52 -43t-39.5 -54t-19 -69.5l-8 -136h-129l-10 136q-4 55 9.5 99t39 78t59 62.5t68.5 53.5t68 50t58.5 57 t40.5 71t15 92q0 61 -24.5 106t-64.5 75t-91 44t-106 14q-43 0 -86 -16t-77 -44t-58.5 -67.5t-30.5 -85.5h-146zM438 0v262h217v-262h-217z" />
<glyph unicode="@" d="M-78 569q0 158 51.5 297.5t143.5 242.5t220 163.5t284 60.5q139 0 257.5 -36.5t204.5 -114.5t134.5 -201t48.5 -297v-461q0 -74 -22.5 -123t-57.5 -78.5t-75 -41t-73 -11.5q-76 0 -125 30t-71 97q-18 -35 -47 -58.5t-63 -38.5t-67.5 -22.5t-58.5 -7.5q-66 0 -128 29 t-111.5 93.5t-79 170t-29.5 258.5q0 139 30.5 233.5t82 153t118 83t138.5 24.5q51 0 109.5 -12.5t107.5 -53.5t81.5 -117.5t32.5 -205.5v-402q0 -63 21.5 -96t58.5 -33q82 0 82 129v461q0 135 -39 230.5t-106.5 155.5t-158.5 89t-195 29q-127 0 -227.5 -49t-170 -133 t-105.5 -197t-36 -240q0 -86 5 -158.5t22.5 -140t53.5 -134t97 -136.5h-180q-53 76 -84 146.5t-47.5 141t-21.5 140.5t-5 141zM418 520q0 -221 45 -323.5t143 -102.5q57 0 111.5 34t89.5 122v375q0 139 -52.5 201.5t-127.5 62.5q-100 0 -154.5 -89t-54.5 -280z" />
<glyph unicode="A" d="M207 0l368 1505h162l367 -1505h-152l-84 338h-428l-82 -338h-151zM471 465h367l-183 745z" />
<glyph unicode="B" d="M168 0v1505h422q219 0 323.5 -89t104.5 -306q0 -94 -28.5 -155.5t-63.5 -98.5q-41 -43 -92 -68q33 -8 71.5 -29.5t73.5 -64.5t58.5 -108.5t23.5 -163.5q0 -125 -33 -207t-94.5 -129t-149.5 -66.5t-196 -19.5h-420zM315 127h273q150 0 227.5 66.5t77.5 228.5 q0 55 -16.5 108.5t-53.5 94.5t-95 66.5t-140 25.5h-273v-590zM315 844h273q74 0 124 26.5t80.5 66.5t44 86t13.5 87q0 129 -55.5 198.5t-204.5 69.5h-275v-534z" />
<glyph unicode="C" d="M184 752q0 401 113 592.5t362 191.5q199 0 302.5 -100.5t103.5 -259.5h-145q0 104 -72 169.5t-189 65.5q-90 0 -148 -41t-94 -123t-50.5 -205.5t-14.5 -289.5t14.5 -290t50.5 -205t94 -122t148 -41q117 0 189 63.5t72 168.5h145q0 -160 -103.5 -258.5t-302.5 -98.5 q-250 0 -362.5 189.5t-112.5 593.5z" />
<glyph unicode="D" d="M197 0v1505h399q125 0 221 -51t161.5 -148.5t99.5 -237.5t34 -316t-34 -316.5t-99.5 -237t-161.5 -147.5t-221 -51h-399zM344 127h252q113 0 181.5 48t105.5 133t49 199t12 245t-12 245.5t-49 199.5t-105.5 133t-181.5 48h-252v-1251z" />
<glyph unicode="E" d="M223 0v1505h821v-127h-673v-534h483v-127h-483v-590h673v-127h-821z" />
<glyph unicode="F" d="M223 0v1505h821v-127h-673v-534h483v-127h-483v-717h-148z" />
<glyph unicode="G" d="M154 752q0 403 112.5 593.5t366.5 190.5q86 0 159.5 -23.5t128 -68.5t84 -112.5t29.5 -155.5h-145q0 59 -22.5 103t-59.5 73.5t-83 44t-91 14.5q-92 0 -152.5 -41t-95.5 -123t-49 -205.5t-14 -289.5t14 -289t49 -205t96.5 -123t155.5 -41q68 0 122 28t92 78t57.5 119.5 t19.5 153.5v158h-234v127h381v-758h-69l-76 111q-27 -41 -68 -72q-35 -27 -91 -48.5t-134 -21.5q-133 0 -224 48.5t-149.5 145.5t-84 243.5t-25.5 345.5z" />
<glyph unicode="H" d="M164 0v1505h147v-743h607v743h147v-1505h-147v635h-607v-635h-147z" />
<glyph unicode="I" d="M250 0v127h291v1251h-291v127h729v-127h-291v-1251h291v-127h-729z" />
<glyph unicode="J" d="M174 432h148q0 -96 18 -160.5t50 -104.5t74 -56.5t89 -16.5t89 16.5t74 56.5t50 104.5t18 160.5v1073h148v-1073q0 -139 -32 -228t-85 -141.5t-120.5 -73t-141.5 -20.5t-141.5 20.5t-119.5 73t-84 141.5t-34 228z" />
<glyph unicode="K" d="M205 0v1505h145v-1505h-145zM367 776l460 729h177l-463 -729l518 -776h-176z" />
<glyph unicode="L" d="M233 0v1505h148v-1378h694v-127h-842z" />
<glyph unicode="M" d="M143 0v1505h148l323 -721l324 721h147v-1505h-147v1141l-254 -572h-139l-254 572v-1141h-148z" />
<glyph unicode="N" d="M193 0v1505h147l549 -1153v1153h147v-1505h-147l-549 1153v-1153h-147z" />
<glyph unicode="O" d="M139 752q0 406 113 595t360 189q252 0 365 -189.5t113 -594.5q0 -403 -114 -593t-364 -190q-248 0 -360.5 190t-112.5 593zM307 752q0 -166 14.5 -289t50.5 -205t94 -123t146 -41t147.5 41t95.5 123t50.5 205t14.5 289t-14.5 289.5t-50.5 205.5t-95.5 123t-147.5 41 t-146 -41t-94 -123t-50.5 -205.5t-14.5 -289.5z" />
<glyph unicode="P" d="M248 0v1505h338q250 0 383 -116.5t133 -321.5t-133 -320.5t-383 -115.5h-191v-631h-147zM395 758h191q113 0 181.5 27.5t105 71.5t49 99.5t12.5 110.5q0 63 -12.5 120.5t-49 99.5t-105.5 66.5t-181 24.5h-191v-620z" />
<glyph unicode="Q" d="M129 752q0 406 113.5 595t361.5 189q250 0 362.5 -190.5t112.5 -593.5q0 -229 -34.5 -389t-120.5 -261l163 -286h-172l-108 194q-90 -41 -203 -41q-248 0 -361.5 190t-113.5 593zM299 752q0 -166 14.5 -289t50 -205t94 -123t146.5 -41q33 0 68 7.5t69 27.5 q-47 80 -98 170t-98 172h176l121 -219q25 51 38 116.5t19 133t8 133.5t2 117q0 166 -14 289.5t-49 205.5t-94.5 123t-147.5 41t-146.5 -41t-94 -123t-50 -205.5t-14.5 -289.5z" />
<glyph unicode="R" d="M250 0v1505h336q250 0 383 -116.5t133 -321.5q0 -154 -80 -258t-231 -152l278 -657h-160l-270 631h-242v-631h-147zM397 758h189q113 0 181.5 27.5t105 71.5t49 99.5t12.5 110.5q0 63 -12.5 120.5t-49 99.5t-105.5 66.5t-181 24.5h-189v-620z" />
<glyph unicode="S" d="M199 326h145q0 -55 25.5 -98.5t69.5 -73t100.5 -45t117.5 -15.5q55 0 105.5 17.5t90.5 51.5t63.5 81t23.5 108q0 43 -7 89t-34 92.5t-80 86t-147 70.5q-154 49 -243 101.5t-135 112t-59.5 126t-13.5 144.5q0 90 39 158.5t100.5 113.5t138 67.5t152.5 22.5q117 0 197 -34 t130 -87t72.5 -116.5t22.5 -122.5h-145q0 57 -25.5 101t-65.5 73.5t-89.5 45t-96.5 15.5t-94 -14.5t-84 -44t-60.5 -73.5t-23.5 -105q0 -53 11.5 -99.5t46 -87.5t97.5 -77.5t167 -71.5q117 -39 192.5 -86t121.5 -105.5t64.5 -130.5t18.5 -164q0 -68 -27.5 -136.5t-83 -122.5 t-140.5 -89t-200 -35q-98 0 -182 25.5t-145.5 72t-96 112t-34.5 147.5z" />
<glyph unicode="T" d="M143 1378v127h942v-127h-397v-1378h-147v1378h-398z" />
<glyph unicode="U" d="M174 432v1073h148v-1073q0 -96 27.5 -160.5t69.5 -104.5t94 -56.5t101 -16.5q47 0 99.5 16.5t95.5 56.5t70.5 104.5t27.5 160.5v1073h148v-1073q0 -139 -41 -228t-105.5 -141.5t-142.5 -73t-152 -20.5t-152.5 20.5t-142 73t-104.5 141.5t-41 228z" />
<glyph unicode="V" d="M121 1505h153l340 -1173l340 1173h154l-440 -1536h-103z" />
<glyph unicode="W" d="M45 1505h152l186 -1013l154 1013h155l154 -1013l186 1013h152l-285 -1536h-125l-160 1065l-159 -1065h-125z" />
<glyph unicode="X" d="M158 -31l368 768l-368 768h164l290 -608l293 608h164l-371 -766l371 -770h-164l-293 606l-290 -606h-164z" />
<glyph unicode="Y" d="M205 1505h149l258 -635l262 635h150l-338 -807v-698h-147v698z" />
<glyph unicode="Z" d="M172 0v141l709 1237h-666v127h825v-141l-706 -1237h723v-127h-885z" />
<glyph unicode="[" d="M434 -287v1899h524v-107h-372v-1685h372v-107h-524z" />
<glyph unicode="\" d="M236 1587h149l608 -1648h-155z" />
<glyph unicode="]" d="M270 -180h373v1685h-373v107h525v-1899h-525v107z" />
<glyph unicode="_" d="M20 -106h1188v-127h-1188v127z" />
<glyph unicode="`" d="M352 1505h226l237 -342h-143z" />
<glyph unicode="a" d="M188 262q0 76 28 129t79 88t125 56.5t164 35.5l284 45v54q0 82 -19.5 136t-55 86t-86 45t-111.5 13q-35 0 -73 -12t-70.5 -34.5t-56 -55.5t-29.5 -74h-148q4 76 39 132.5t88 94t118.5 56t131.5 18.5q76 0 150.5 -13t134 -57t96.5 -126t37 -220v-659h-70l-76 94 q-37 -35 -78.5 -58.5t-84.5 -37.5t-84 -21.5t-76 -7.5q-66 0 -130.5 14.5t-114.5 48.5t-81 90t-31 140zM348 262q0 -72 44 -120t157 -48q27 0 64.5 5t81.5 20.5t89 46.5t84 82v246l-284 -45q-78 -12 -124 -30t-70.5 -40.5t-33 -51t-8.5 -65.5z" />
<glyph unicode="b" d="M205 0v1556h145v-598q27 33 64 58q33 23 82 41t120 18q86 0 167 -28.5t143.5 -93t100.5 -171t38 -260.5t-37 -260t-99.5 -170.5t-143 -93.5t-167.5 -29q-66 0 -114.5 17.5t-83.5 40.5q-39 25 -70 59l-71 -86h-74zM350 260q20 -47 51 -78.5t68 -51t75 -28t72 -8.5 q152 0 225.5 104.5t73.5 323.5q0 92 -18 171t-55 135.5t-93.5 89t-132.5 32.5q-78 0 -128 -29.5t-80 -64.5q-37 -41 -58 -92v-504z" />
<glyph unicode="c" d="M225 522q0 154 37 260.5t99.5 171t143.5 93t169 28.5q96 0 165.5 -30.5t115.5 -76.5t67.5 -100.5t21.5 -99.5h-147q0 29 -13.5 60.5t-41 59t-69.5 45t-99 17.5q-66 0 -120 -21.5t-94 -72.5t-62.5 -133t-22.5 -201q0 -121 22.5 -201.5t62.5 -132t94 -73t120 -21.5 q57 0 99 17.5t69.5 45t41 59.5t13.5 60h147q0 -45 -21.5 -99t-67.5 -100t-115.5 -77t-165.5 -31q-88 0 -169 29t-143.5 93.5t-99.5 171t-37 259.5z" />
<glyph unicode="d" d="M164 522q0 154 38 260.5t100.5 171t143 93t166.5 28.5q70 0 120 -18.5t83 -40.5q37 -25 64 -58v598h145v-1556h-74l-71 86q-31 -35 -70 -59q-35 -23 -84 -40.5t-115 -17.5q-86 0 -167 29t-143 93.5t-99 171t-37 259.5zM313 522q0 -219 74 -323.5t225 -104.5q35 0 73 8.5 t75 28t67.5 51t51.5 78.5v504q-20 51 -58 92q-31 35 -82 64.5t-127 29.5t-132 -32.5t-93 -89t-55.5 -135.5t-18.5 -171z" />
<glyph unicode="e" d="M205 522q0 154 37 260.5t99 171t144 93t172 28.5q131 0 210 -58.5t121 -144.5t55.5 -185t13.5 -183v-35h-701q10 -205 89 -290t212 -85q55 0 96.5 17.5t69 45t41 59.5t13.5 60h147q0 -45 -22.5 -99t-67.5 -100t-113.5 -77t-163.5 -31q-88 0 -169.5 28t-144 92.5 t-100.5 170t-38 262.5zM356 596h543q0 59 -11 122.5t-39 115t-75 84t-117 32.5q-141 0 -212.5 -86t-88.5 -268z" />
<glyph unicode="f" d="M135 918v126h285v111q0 135 28.5 219t77.5 131t117 64.5t145 17.5q35 0 69 -6t61 -12q31 -8 57 -17v-120q-27 6 -57 12q-27 4 -60 8t-70 4q-61 0 -104 -17.5t-68.5 -56.5t-38 -102t-12.5 -156v-80h324v-126h-324v-918h-145v918h-285z" />
<glyph unicode="g" d="M162 522q0 154 38 260.5t100 171t143 93t167 28.5q70 0 120 -18.5t83 -40.5q37 -27 64 -60l75 88h70v-1185q0 -135 -49 -214t-115.5 -118t-135.5 -49t-110 -10q-98 0 -170.5 28.5t-122 73.5t-74 99.5t-24.5 105.5h148q0 -35 16 -68t47 -58.5t76 -41t104 -15.5 q41 0 88.5 8.5t86 37t64.5 83t26 148.5v217q-31 -35 -70 -59q-35 -23 -84 -40.5t-115 -17.5q-86 0 -167 29t-143 93.5t-99 171t-37 259.5zM322 522q0 -219 68.5 -323.5t219.5 -104.5q35 0 73 8.5t75 28t67.5 51t51.5 78.5v504q-20 51 -58 92q-31 35 -82 64.5t-127 29.5 t-130 -32.5t-90 -89t-52 -135.5t-16 -171z" />
<glyph unicode="h" d="M205 0v1556h145v-600q39 33 84 60q39 23 90 41t111 18q86 0 157.5 -19.5t123 -62.5t80 -113.5t28.5 -174.5v-705h-145v674q0 125 -53.5 200.5t-190.5 75.5q-66 0 -119 -23.5t-90 -52.5q-43 -35 -76 -75v-799h-145z" />
<glyph unicode="i" d="M256 0v117h299v768l-236 63v96h381v-927h273v-117h-717zM465 1495q0 51 37 88t90 37q51 0 88 -37t37 -88q0 -53 -37 -90t-88 -37q-53 0 -90 37t-37 90z" />
<glyph unicode="j" d="M244 -201q33 -16 71 -26q35 -10 83 -18.5t112 -8.5q90 0 127 59.5t37 194.5v885l-236 63v96h381v-1044q0 -90 -13 -160.5t-47 -120t-94.5 -75t-154.5 -25.5q-59 0 -108.5 9.5t-84.5 21.5q-41 12 -73 31v118zM541 1495q0 51 36.5 88t90.5 37q51 0 88 -37t37 -88 q0 -53 -37 -90t-88 -37q-53 0 -90 37t-37 90z" />
<glyph unicode="k" d="M207 0v1556h145v-956l471 475h207l-424 -426l434 -649h-176l-360 545l-152 -154v-391h-145z" />
<glyph unicode="l" d="M256 0v117h299v1280l-236 63v96h381v-1439h273v-117h-717z" />
<glyph unicode="m" d="M20 0v1044h70l76 -88q57 59 111.5 89t125.5 30q78 0 138.5 -29.5t93.5 -109.5q61 80 130 109.5t140 29.5q68 0 117 -16.5t81 -57t48 -113.5t16 -183v-705h-145v674q0 70 -4 122t-19.5 85.5t-45 51t-79.5 17.5q-45 0 -79.5 -18.5t-60 -44t-42 -51t-24.5 -37.5v-799h-146 v694q0 70 -5 119t-20.5 80t-45 44t-78.5 13q-43 0 -81 -23.5t-67 -52.5q-33 -35 -59 -75v-799h-146z" />
<glyph unicode="n" d="M205 0v1044h69l76 -88q37 33 82 60q39 23 91 41t112 18q86 0 157.5 -19.5t123 -62.5t80 -113.5t28.5 -174.5v-705h-145v674q0 125 -53.5 200.5t-190.5 75.5q-66 0 -119 -23.5t-90 -52.5q-43 -35 -76 -75v-799h-145z" />
<glyph unicode="o" d="M166 522q0 154 37 260.5t99.5 171t143 93t166.5 28.5q88 0 169 -28.5t143.5 -93t99.5 -171t37 -260.5t-37 -260t-99.5 -170.5t-143.5 -93.5t-169 -29q-86 0 -166.5 29t-143 93.5t-99.5 171t-37 259.5zM315 522q0 -221 75 -324.5t222 -103.5t223 103.5t76 324.5t-76 324.5 t-223 103.5t-222 -103.5t-75 -324.5z" />
<glyph unicode="p" d="M205 -512v1556h74l71 -86q31 33 70 58q35 23 84 41t114 18q86 0 167 -28.5t143.5 -93t99.5 -171t37 -260.5t-38 -260t-100.5 -170.5t-143.5 -93.5t-167 -29q-72 0 -121 17.5t-81 40.5q-37 25 -64 59v-598h-145zM350 281q20 -53 58 -95q31 -35 81 -63.5t127 -28.5 q76 0 132.5 33t93.5 89t55 135t18 171q0 219 -73.5 323.5t-225.5 104.5q-35 0 -72.5 -8t-74.5 -27.5t-67.5 -51.5t-51.5 -79v-503z" />
<glyph unicode="q" d="M164 522q0 154 37 260.5t99 171t143 93t167 28.5q66 0 115 -18.5t84 -40.5q39 -25 70 -58l71 86h74v-1556h-145v598q-27 -35 -64 -59q-33 -23 -83 -40.5t-120 -17.5q-86 0 -166.5 29t-143 93.5t-100.5 171t-38 259.5zM313 522q0 -92 18.5 -171t55.5 -135t93.5 -89 t131.5 -33q76 0 127.5 29t81.5 63q37 41 58 95v503q-20 47 -51 79t-68 51.5t-75 27.5t-73 8q-152 0 -225.5 -104.5t-73.5 -323.5z" />
<glyph unicode="r" d="M158 0v117h248v927h69l76 -88q35 33 74 60q35 23 79 41t93 18q53 0 109.5 -14t102.5 -49t74.5 -91.5t28.5 -138.5h-160q0 53 -15 86t-40 51.5t-54.5 24.5t-56.5 6q-47 0 -89 -23.5t-74 -52.5q-37 -35 -72 -75v-682h323v-117h-716z" />
<glyph unicode="s" d="M231 780q0 63 26 117.5t74 93.5t115.5 61.5t153.5 22.5q96 0 162.5 -28.5t107.5 -71.5t59.5 -93.5t18.5 -93.5h-147q0 31 -14.5 60t-40 51.5t-63.5 36.5t-83 14q-63 0 -104 -16t-64.5 -42t-33 -55.5t-9.5 -56.5q0 -31 8.5 -57.5t33 -48t70.5 -41t124 -33.5 q98 -20 167.5 -48t112.5 -67t63.5 -90t20.5 -119q0 -72 -29.5 -128t-82 -96t-124 -61.5t-153.5 -21.5q-109 0 -180.5 32t-112.5 79t-57.5 100t-16.5 96h148q0 -35 15.5 -67.5t45 -58t69.5 -41t89 -15.5q41 0 83 9.5t75 31t53 56t20 85.5q0 31 -8 57.5t-32.5 49.5t-70.5 41 t-124 33q-98 20 -168 46.5t-113 64.5t-63.5 89.5t-20.5 122.5z" />
<glyph unicode="t" d="M174 918v126h258l68 342h104v-342h326v-126h-326v-486q0 -92 12.5 -155.5t38 -102.5t68.5 -56.5t104 -17.5q37 0 70 4.5t59 8.5q31 6 58 12v-121q-27 -10 -58 -18q-27 -6 -60.5 -11.5t-68.5 -5.5q-78 0 -145.5 17.5t-116.5 64.5t-77.5 131t-28.5 219v517h-285z" />
<glyph unicode="u" d="M205 340v704h145v-673q0 -61 12.5 -112.5t41 -88.5t74.5 -56.5t116 -19.5q66 0 119 23.5t90 52.5q43 33 76 76v798h145v-1044h-70l-75 88q-37 -35 -82 -59q-39 -23 -91.5 -41.5t-111.5 -18.5q-86 0 -157.5 19.5t-123 62.5t-80 114t-28.5 175z" />
<glyph unicode="v" d="M158 1044h157l299 -856l299 856h158l-385 -1075h-143z" />
<glyph unicode="w" d="M47 1044h152l172 -770l143 770h199l143 -770l172 770h152l-250 -1075h-162l-154 848l-155 -848h-162z" />
<glyph unicode="x" d="M143 0l373 537l-352 507h180l272 -393l269 393h180l-350 -507l370 -537h-180l-289 420l-292 -420h-181z" />
<glyph unicode="y" d="M125 1044h164l332 -921l337 921h160l-401 -1046q-51 -135 -96.5 -211t-89.5 -112.5t-87 -45t-92 -8.5q-41 0 -64.5 5t-51.5 12v120q29 -4 52 -8t64 -4q35 0 61.5 6t51 30.5t51.5 76t59 141.5h-55z" />
<glyph unicode="z" d="M209 0v141l602 777h-559v126h733v-141l-600 -776h641v-127h-817z" />
<glyph unicode="{" d="M475 674v49q25 6 45 20q16 12 31.5 33t15.5 51q2 219 11.5 362.5t45 228.5t104.5 121t190 38v-129q-70 -2 -110 -24.5t-61.5 -64.5t-27.5 -103.5t-6 -139.5v-115t1 -79.5t1 -54v-40.5q0 -25 -10.5 -47t-23.5 -40.5t-25.5 -30t-16.5 -13.5q2 -2 14.5 -12t25.5 -26.5 t24.5 -39t11.5 -49.5v-38.5t-1 -51t-1 -74v-104.5q0 -78 6 -139.5t27.5 -103.5t61.5 -64.5t110 -24.5v-129q-121 2 -190 34t-104.5 114t-45 222t-11.5 359q0 31 -10 50.5t-24.5 31t-31 16.5t-26.5 7z" />
<glyph unicode="|" d="M541 -254v1905h147v-1905h-147z" />
<glyph unicode="}" d="M311 -31q70 2 110 24.5t61.5 64.5t27.5 103.5t6 139.5v104.5t-1 74t-1 51v38.5q0 25 10.5 47.5t22.5 39t24.5 27.5t16.5 13q-2 0 -13.5 11.5t-24.5 30t-24.5 42t-11.5 47.5v40t1 54.5t1 80v114.5q0 78 -6 139.5t-27.5 103.5t-61.5 64.5t-110 24.5v129q121 -2 190.5 -38 t104.5 -121t45.5 -228t12.5 -363q0 -31 10 -51t24.5 -31.5t29.5 -15.5t26 -6v-49q-25 -8 -45 -23q-16 -12 -30.5 -32.5t-14.5 -49.5q-2 -219 -12.5 -359t-45.5 -222t-104.5 -114t-190.5 -34v129z" />
<glyph unicode="~" d="M106 535q6 43 25 91t52.5 88t82.5 65.5t115 25.5q57 0 128 -26.5t140 -61.5q59 -29 111.5 -51.5t89.5 -22.5q80 0 121 36t49 81h100q-4 -45 -22.5 -93.5t-52 -88t-83 -65.5t-112.5 -26q-59 0 -130 28t-140 63q-59 29 -110.5 50t-88.5 21q-82 0 -123 -35.5t-51 -78.5h-101 z" />
<glyph unicode="&#xa0;" />
<glyph unicode="&#xa1;" d="M485 1243v262h217v-262h-217zM500 -18v456l30 578h127l31 -578v-456h-188z" />
<glyph unicode="&#xa2;" d="M205 522q0 137 29.5 235.5t80 164t117 100.5t141.5 47v102h148v-100q78 -12 135 -45t94 -77t55.5 -92t18.5 -89h-147q0 25 -9.5 50.5t-29 50t-49 44t-68.5 29.5v-840q39 8 68.5 28t49 44.5t29 51t9.5 50.5h147q0 -41 -18.5 -90t-55.5 -92t-94 -76.5t-135 -44.5v-100h-148 v102q-76 12 -142 47t-116.5 100.5t-80 164t-29.5 235.5zM354 522q0 -201 60.5 -299t158.5 -121v840q-98 -25 -158.5 -122t-60.5 -298z" />
<glyph unicode="&#xa3;" d="M113 -31q2 41 21.5 85t55 81t89 60.5t127.5 23.5v477h-285v129h285v111q0 145 27.5 239.5t75.5 149.5t113.5 76.5t143.5 21.5q80 0 137.5 -21.5t97 -56t64.5 -80.5t39 -98h-139q-29 78 -81.5 104.5t-117.5 26.5q-104 0 -159.5 -79.5t-55.5 -282.5v-111h323v-129h-323 v-524q37 -29 80 -51q37 -18 86 -33.5t108 -15.5q100 0 145.5 39t55.5 77h88q-4 -43 -21.5 -91t-52 -89t-88 -67.5t-127.5 -26.5q-59 0 -123.5 25.5t-123.5 56.5q-53 29 -102.5 47t-90.5 18q-86 0 -131 -28.5t-55 -63.5h-86z" />
<glyph unicode="&#xa4;" d="M106 979l107 104l170 -172q53 33 111.5 51.5t113.5 18.5q66 0 127.5 -21.5t118.5 -56.5l176 178l92 -90l-182 -180q39 -59 60.5 -119.5t21.5 -124.5q0 -57 -18.5 -114.5t-49.5 -110.5l164 -164l-104 -106l-162 159q-33 -18 -60.5 -32.5t-55 -24.5t-58.5 -15t-70 -5 q-131 0 -246 77l-161 -161l-90 92l159 157q-33 51 -54 112t-21 136q0 55 17 118t60 128zM324 567q0 -59 22.5 -110t61 -91t90 -62.5t110.5 -22.5q57 0 109.5 22.5t91.5 62.5t61.5 91t22.5 110q0 57 -22.5 109.5t-61.5 91.5t-91 61.5t-110 22.5q-59 0 -110.5 -22.5t-90 -61.5 t-61 -91.5t-22.5 -109.5z" />
<glyph unicode="&#xa5;" d="M152 383v129h391v213h-391v127h327l-270 653h149l258 -635l263 635h149l-276 -653h325v-127h-387v-213h387v-129h-387v-383h-147v383h-391z" />
<glyph unicode="&#xa6;" d="M541 -254v848h147v-848h-147zM541 803v848h147v-848h-147z" />
<glyph unicode="&#xa7;" d="M229 1346q0 63 29 116.5t81 92t124 60t158 21.5q102 0 169.5 -30.5t110.5 -71.5t63.5 -84t26.5 -70h-157q-20 37 -50 66q-27 25 -65.5 45t-97.5 20q-70 0 -115 -16t-70.5 -42t-36 -54.5t-10.5 -52.5q0 -23 8.5 -47.5t34 -51t72.5 -55.5t127 -57q98 -35 164.5 -68 t106.5 -71t57.5 -86t17.5 -111q0 -78 -47 -140.5t-137 -105.5q113 -61 158.5 -126t45.5 -167q0 -63 -28.5 -116.5t-80.5 -92.5t-124 -61.5t-158 -22.5q-102 0 -170.5 31t-111.5 73t-63.5 85t-27.5 67h160q16 -37 47 -65q25 -25 66 -44.5t100 -19.5q70 0 115 16.5t71.5 42 t36 54.5t9.5 53q0 20 -8.5 46t-34 52.5t-72.5 55t-127 57.5q-98 35 -164.5 67.5t-106.5 70.5t-57.5 85.5t-17.5 110.5q0 78 47 140.5t137 105.5q-55 31 -94 61.5t-63.5 65t-36 75.5t-11.5 93zM410 805q0 -63 58 -106.5t146 -43.5q72 0 113 13.5t60.5 35t24.5 48t5 53.5 q0 68 -58.5 106.5t-144.5 38.5q-72 0 -111.5 -13t-61 -33.5t-26.5 -46t-5 -52.5z" />
<glyph unicode="&#xa8;" d="M248 1413q0 51 37 88t90 37q51 0 88 -37t37 -88q0 -53 -37 -90t-88 -37q-53 0 -90 37t-37 90zM729 1413q0 51 37 88t90 37q51 0 88 -37t37 -88q0 -53 -37 -90t-88 -37q-53 0 -90 37t-37 90z" />
<glyph unicode="&#xa9;" d="M29 969q0 121 46 228.5t125 187t185.5 125.5t226.5 46q121 0 227.5 -46t186.5 -125.5t126 -187t46 -228.5t-46 -227.5t-126 -186.5t-186.5 -126t-227.5 -46t-227 46t-185 126t-125 186.5t-46 227.5zM145 969q0 -102 35 -188.5t97.5 -149t147.5 -97t187 -34.5 q100 0 187.5 34.5t150 97t98 148.5t35.5 189q0 100 -35.5 186t-98 149.5t-149.5 98.5t-188 35q-102 0 -187 -35t-147.5 -98.5t-97.5 -149.5t-35 -186zM274 971q0 123 36 197.5t89.5 114.5t116 52.5t117.5 12.5q104 0 181 -51.5t116 -178.5h-119q-20 59 -63 94t-115 35 q-43 0 -86 -10t-77 -40t-55.5 -84t-21.5 -142q0 -96 23.5 -151.5t59.5 -83t78 -35t79 -7.5q68 0 111.5 38t66.5 91h119q-39 -127 -116 -178t-181 -51q-55 0 -117.5 12t-116 52t-89.5 115t-36 198z" />
<glyph unicode="&#xab;" d="M147 621l285 423h184l-282 -426l282 -425h-184zM612 618l283 426h186l-282 -426l282 -425h-186z" />
<glyph unicode="&#xac;" d="M80 551v147h1044v-360l-127 -2v215h-917z" />
<glyph unicode="&#xad;" d="M295 487v127h639v-127h-639z" />
<glyph unicode="&#xae;" d="M29 969q0 121 46 228.5t125 187t185.5 125.5t226.5 46q121 0 227.5 -46t186.5 -125.5t126 -187t46 -228.5t-46 -227.5t-126 -186.5t-186.5 -126t-227.5 -46t-227 46t-185 126t-125 186.5t-46 227.5zM145 969q0 -102 35 -188.5t97.5 -149t147.5 -97t187 -34.5 q100 0 187.5 34.5t150 97t98 148.5t35.5 189q0 100 -35.5 186t-98 149.5t-149.5 98.5t-188 35q-102 0 -187 -35t-147.5 -98.5t-97.5 -149.5t-35 -186zM430 608v733h174q86 0 142.5 -19t90 -52t47 -78t13.5 -94q0 -63 -20.5 -104.5t-52 -67t-69.5 -39t-73 -19.5l115 -260 h-109l-108 246h-50v-246h-100zM530 965h74q84 0 132 31.5t48 101.5q0 76 -48 104.5t-132 28.5h-74v-266z" />
<glyph unicode="&#xaf;" horiz-adv-x="1705" />
<glyph unicode="&#xb0;" d="M254 1327q0 57 21.5 108.5t59.5 89.5t89 60.5t108 22.5t108.5 -22.5t89.5 -60.5t59.5 -89.5t21.5 -108.5t-21.5 -108.5t-59.5 -89t-89 -59t-109 -21.5q-57 0 -108 21.5t-89 59t-59.5 89t-21.5 108.5zM367 1327q0 -33 13 -62.5t36.5 -53t53.5 -37t62 -13.5q33 0 63 13.5 t52.5 37t35.5 53t13 62.5t-13 62.5t-35.5 53t-52.5 37t-63 13.5t-62.5 -13.5t-53 -37t-36.5 -53t-13 -62.5z" />
<glyph unicode="&#xb1;" d="M166 180v129h895v-129h-895zM166 944v131h381v381h129v-381h385v-131h-385v-383h-129v383h-381z" />
<glyph unicode="&#xb2;" d="M307 1403q10 74 73.5 113.5t135.5 39.5q86 0 143.5 -33.5t57.5 -109.5q0 -33 -9.5 -56.5t-26.5 -45t-44 -44t-64 -48.5q-78 -59 -110.5 -94t-32.5 -81h293v-86h-408v86q0 47 44 104.5t155 139.5q66 47 81 71.5t15 53.5q0 18 -10 29.5t-24.5 17.5t-31 8t-28.5 2 q-8 0 -23.5 -1t-32 -8t-30.5 -20.5t-16 -37.5h-107z" />
<glyph unicode="&#xb3;" d="M307 1065h80q4 -16 19 -29q10 -10 32.5 -18t61.5 -8q55 0 88 29.5t33 74.5q0 106 -121 107h-70v82h70q55 0 83.5 20t28.5 72q0 41 -30.5 59.5t-81.5 18.5q-49 0 -68.5 -19.5t-25.5 -36.5h-99q8 59 61.5 99t131.5 40q94 0 160.5 -35.5t66.5 -125.5q0 -37 -20.5 -62.5 t-42.5 -42.5q-29 -18 -64 -28q37 -8 68 -27q27 -16 48 -45t21 -76q0 -45 -19.5 -79t-52 -56.5t-76.5 -33.5t-91 -11q-92 0 -137.5 36t-53.5 95z" />
<glyph unicode="&#xb4;" d="M412 1163l237 342h228l-320 -342h-145z" />
<glyph unicode="&#xb6;" d="M98 1112q0 209 134.5 326.5t388.5 117.5h509v-129h-147v-1460h-115v705h-161v-705h-115v705q-240 12 -367 126.5t-127 313.5zM707 799h161v628h-161v-628z" />
<glyph unicode="&#xb7;" />
<glyph unicode="&#xb8;" d="M399 -317h90q6 -41 36 -59.5t77 -18.5q53 0 84 23.5t31 74.5q0 66 -31 94.5t-84 28.5h-70v162h72v-97h55q80 0 124 -57t44 -131q0 -45 -20.5 -78t-52 -54.5t-72.5 -32.5t-80 -11q-86 0 -141 45t-62 111z" />
<glyph unicode="&#xb9;" d="M307 958v86h187v310h-152v67q53 0 83 17.5t46 40.5q18 25 23 57h106v-492h176v-86h-469z" />
<glyph unicode="&#xba;" />
<glyph unicode="&#xbb;" d="M147 193l285 425l-285 426h187l282 -426l-282 -425h-187zM612 193l285 425l-285 426h187l282 -426l-284 -425h-185z" />
<glyph unicode="&#xbc;" d="M0 793v86h186v475h-151v67q53 0 82.5 17.5t46.5 40.5q18 25 22 57h107v-657h176v-86h-469zM254 -63l608 1650h137l-602 -1650h-143zM664 205v94l297 446h112v-454h127v-86h-127v-205h-106v205h-303zM784 291h183v276z" />
<glyph unicode="&#xbd;" d="M0 793v86h186v475h-151v67q53 0 82.5 17.5t46.5 40.5q18 25 22 57h107v-657h176v-86h-469zM254 -63l608 1650h137l-602 -1650h-143zM758 0v86q0 43 10 78t33.5 66.5t61.5 65.5t93 75q66 47 102 80.5t36 85.5q0 45 -26 76.5t-89 31.5q-39 0 -67.5 -29.5t-34.5 -78.5h-107 q4 37 21.5 71.5t45 62t63.5 44t79 16.5q61 0 103 -19.5t69 -48t38 -62t11 -64.5q0 -37 -15.5 -68t-41 -58.5t-58 -55t-69.5 -54.5q-39 -31 -65.5 -52.5t-44 -43t-26 -49t-8.5 -70.5h314v-86h-428z" />
<glyph unicode="&#xbe;" d="M29 915h96q12 -18 33 -32q16 -12 41.5 -22.5t64.5 -10.5q68 0 114 38t46 101q0 72 -42 106.5t-118 34.5h-86v82h86q68 0 109 34t41 87q0 51 -39 82t-111 31q-59 0 -83.5 -26.5t-30.5 -47.5h-121q10 72 75.5 115t159.5 43q57 0 107.5 -10.5t87.5 -34t58.5 -60t21.5 -92.5 q0 -47 -21.5 -76.5t-48.5 -50.5q-31 -23 -70 -37q41 -16 74 -41q29 -23 52.5 -56.5t23.5 -82.5q0 -55 -23.5 -97t-62.5 -69.5t-91.5 -41t-109.5 -13.5q-92 0 -157.5 38t-75.5 109zM254 -63l608 1650h137l-602 -1650h-143zM664 205v94l297 446h112v-454h127v-86h-127v-205 h-106v205h-303zM784 291h183v276z" />
<glyph unicode="&#xbf;" d="M227 -147q0 78 19.5 133t51.5 97t70 71.5t74 56.5q27 18 56.5 37.5t53 43t40 53.5t18.5 71l8 135h130l10 -135q4 -55 -9.5 -99.5t-39 -78t-59.5 -62.5t-68 -53q-35 -25 -68 -50.5t-58.5 -57t-41 -71.5t-15.5 -91q0 -61 25 -106.5t64.5 -75t91 -44t106.5 -14.5 q43 0 86 16.5t77 44t58.5 66.5t30.5 86h145q-8 -160 -112.5 -251t-284.5 -91q-102 0 -186 23.5t-144.5 69.5t-94.5 114.5t-34 161.5zM573 778v262h218v-262h-218z" />
<glyph unicode="&#xc0;" d="M207 0l368 1505h162l367 -1505h-152l-84 338h-428l-82 -338h-151zM426 1966h225l238 -342h-144zM471 465h367l-183 745z" />
<glyph unicode="&#xc1;" d="M207 0l368 1505h162l367 -1505h-152l-84 338h-428l-82 -338h-151zM426 1624l238 342h227l-320 -342h-145zM471 465h367l-183 745z" />
<glyph unicode="&#xc2;" d="M207 0l368 1505h162l367 -1505h-152l-84 338h-428l-82 -338h-151zM319 1624l238 342h197l239 -342h-125l-213 234l-211 -234h-125zM471 465h367l-183 745z" />
<glyph unicode="&#xc3;" d="M207 0l368 1505h162l367 -1505h-152l-84 338h-428l-82 -338h-151zM350 1722q4 31 16.5 68t32 70.5t48 56t63.5 22.5q43 0 89 -15t77 -32q29 -14 65.5 -25.5t65.5 -11.5q33 0 55.5 9.5t34.5 23t17.5 27.5t7.5 24h45q-4 -31 -17.5 -68.5t-33 -70.5t-47 -55.5t-62.5 -22.5 q-39 0 -88 14.5t-78 30.5t-66.5 26.5t-64.5 10.5q-35 0 -56.5 -9t-33.5 -21.5t-18.5 -26.5t-8.5 -25h-43zM471 465h367l-183 745z" />
<glyph unicode="&#xc4;" d="M207 0l368 1505h162l367 -1505h-152l-84 338h-428l-82 -338h-151zM291 1874q0 51 37 88t90 37q51 0 88 -37t37 -88q0 -53 -37 -90t-88 -37q-53 0 -90 37t-37 90zM471 465h367l-183 745zM772 1874q0 51 37 88t90 37q51 0 88 -37t37 -88q0 -53 -37 -90t-88 -37 q-53 0 -90 37t-37 90z" />
<glyph unicode="&#xc5;" d="M207 0l368 1505h162l367 -1505h-152l-84 338h-428l-82 -338h-151zM432 1853q0 45 17.5 87t48 73t71.5 49.5t88 18.5q45 0 86 -18.5t72 -49.5t49.5 -73t18.5 -87q0 -47 -18.5 -88t-49.5 -71.5t-72 -49t-86 -18.5q-47 0 -88 18.5t-71.5 49t-48 71.5t-17.5 88zM471 465h367 l-183 745zM539 1853q0 -51 34.5 -84.5t83.5 -33.5q51 0 85 33.5t34 84.5q0 49 -33.5 85t-85.5 36q-49 0 -83.5 -36t-34.5 -85z" />
<glyph unicode="&#xc6;" d="M-66 0l553 1505h766v-127h-503v-536h313v-125h-313v-590h503v-127h-651v317h-379l-123 -317h-166zM248 444h354v934z" />
<glyph unicode="&#xc7;" d="M164 752q0 401 112.5 592.5t362.5 191.5q199 0 302 -100.5t103 -259.5h-145q0 104 -71.5 169.5t-188.5 65.5q-90 0 -148.5 -41t-94.5 -123t-50 -205.5t-14 -289.5t14 -290t50 -205t94.5 -122t148.5 -41q117 0 188.5 63.5t71.5 168.5h145q0 -158 -99 -255.5t-292 -101.5 v-78h23q47 0 83 -17t59.5 -44t35.5 -60.5t12 -66.5q0 -82 -59 -139.5t-156 -57.5q-86 0 -135 45.5t-55 110.5h78q6 -41 39.5 -59.5t72.5 -18.5q45 0 80 30t35 89t-30.5 91t-84.5 32h-90v149q-207 27 -302 215.5t-95 561.5z" />
<glyph unicode="&#xc8;" d="M223 0v1505h821v-127h-673v-534h483v-127h-483v-590h673v-127h-821zM358 1966h226l237 -342h-143z" />
<glyph unicode="&#xc9;" d="M223 0v1505h821v-127h-673v-534h483v-127h-483v-590h673v-127h-821zM412 1624l237 342h228l-320 -342h-145z" />
<glyph unicode="&#xca;" d="M223 0v1505h821v-127h-673v-534h483v-127h-483v-590h673v-127h-821zM285 1624l237 342h197l239 -342h-124l-213 234l-211 -234h-125z" />
<glyph unicode="&#xcb;" d="M223 0v1505h821v-127h-673v-534h483v-127h-483v-590h673v-127h-821zM250 1874q0 51 37 88t90 37q51 0 88 -37t37 -88q0 -53 -37 -90t-88 -37q-53 0 -90 37t-37 90zM731 1874q0 51 37 88t90 37q51 0 88 -37t37 -88q0 -53 -37 -90t-88 -37q-53 0 -90 37t-37 90z" />
<glyph unicode="&#xcc;" d="M250 0v127h291v1251h-291v127h729v-127h-291v-1251h291v-127h-729zM360 1966h226l237 -342h-143z" />
<glyph unicode="&#xcd;" d="M250 0v127h291v1251h-291v127h729v-127h-291v-1251h291v-127h-729zM414 1624l237 342h228l-320 -342h-145z" />
<glyph unicode="&#xce;" d="M250 0v127h291v1251h-291v127h729v-127h-291v-1251h291v-127h-729zM281 1624l237 342h197l239 -342h-125l-213 234l-210 -234h-125z" />
<glyph unicode="&#xcf;" d="M246 0v127h291v1251h-291v127h729v-127h-291v-1251h291v-127h-729zM250 1874q0 51 37 88t90 37q51 0 88 -37t37 -88q0 -53 -37 -90t-88 -37q-53 0 -90 37t-37 90zM731 1874q0 51 37 88t90 37q51 0 88 -37t37 -88q0 -53 -37 -90t-88 -37q-53 0 -90 37t-37 90z" />
<glyph unicode="&#xd0;" d="M41 719v125h156v661h399q125 0 221 -51t161.5 -148.5t99.5 -237.5t34 -316t-34 -316.5t-99.5 -237t-161.5 -147.5t-221 -51h-399v719h-156zM344 127h252q113 0 181.5 48t105.5 133t49 199t12 245t-12 245.5t-49 199.5t-105.5 133t-181.5 48h-252v-534h328v-125h-328v-592 z" />
<glyph unicode="&#xd1;" d="M193 0v1505h147l549 -1153v1153h147v-1505h-147l-549 1153v-1153h-147zM309 1722q4 31 16.5 68t32 70.5t48 56t63.5 22.5q43 0 89 -15t77 -32q29 -14 65.5 -25.5t65.5 -11.5q33 0 55.5 9.5t34.5 23t17.5 27.5t7.5 24h45q-4 -31 -17.5 -68.5t-33 -70.5t-47 -55.5 t-62.5 -22.5q-39 0 -88 14.5t-78 30.5t-66.5 26.5t-64.5 10.5q-35 0 -56.5 -9t-33.5 -21.5t-18.5 -26.5t-8.5 -25h-43z" />
<glyph unicode="&#xd2;" d="M139 752q0 406 113 595t360 189q252 0 365 -189.5t113 -594.5q0 -403 -114 -593t-364 -190q-248 0 -360.5 190t-112.5 593zM307 752q0 -166 14.5 -289t50.5 -205t94 -123t146 -41t147.5 41t95.5 123t50.5 205t14.5 289t-14.5 289.5t-50.5 205.5t-95.5 123t-147.5 41 t-146 -41t-94 -123t-50.5 -205.5t-14.5 -289.5zM358 1966h226l237 -342h-143z" />
<glyph unicode="&#xd3;" d="M139 752q0 406 113 595t360 189q252 0 365 -189.5t113 -594.5q0 -403 -114 -593t-364 -190q-248 0 -360.5 190t-112.5 593zM307 752q0 -166 14.5 -289t50.5 -205t94 -123t146 -41t147.5 41t95.5 123t50.5 205t14.5 289t-14.5 289.5t-50.5 205.5t-95.5 123t-147.5 41 t-146 -41t-94 -123t-50.5 -205.5t-14.5 -289.5zM412 1624l237 342h228l-320 -342h-145z" />
<glyph unicode="&#xd4;" d="M139 752q0 406 113 595t360 189q252 0 365 -189.5t113 -594.5q0 -403 -114 -593t-364 -190q-248 0 -360.5 190t-112.5 593zM281 1624l237 342h197l239 -342h-125l-213 234l-210 -234h-125zM307 752q0 -166 14.5 -289t50.5 -205t94 -123t146 -41t147.5 41t95.5 123 t50.5 205t14.5 289t-14.5 289.5t-50.5 205.5t-95.5 123t-147.5 41t-146 -41t-94 -123t-50.5 -205.5t-14.5 -289.5z" />
<glyph unicode="&#xd5;" d="M139 752q0 406 113 595t360 189q252 0 365 -189.5t113 -594.5q0 -403 -114 -593t-364 -190q-248 0 -360.5 190t-112.5 593zM307 752q0 -166 14.5 -289t50.5 -205t94 -123t146 -41t147.5 41t95.5 123t50.5 205t14.5 289t-14.5 289.5t-50.5 205.5t-95.5 123t-147.5 41 t-146 -41t-94 -123t-50.5 -205.5t-14.5 -289.5zM309 1722q4 31 16.5 68t32 70.5t48 56t63.5 22.5q43 0 89 -15t77 -32q29 -14 65.5 -25.5t65.5 -11.5q33 0 55.5 9.5t34.5 23t17.5 27.5t7.5 24h45q-4 -31 -17.5 -68.5t-33 -70.5t-47 -55.5t-62.5 -22.5q-39 0 -88 14.5 t-78 30.5t-66.5 26.5t-64.5 10.5q-35 0 -56.5 -9t-33.5 -21.5t-18.5 -26.5t-8.5 -25h-43z" />
<glyph unicode="&#xd6;" d="M139 752q0 406 113 595t360 189q252 0 365 -189.5t113 -594.5q0 -403 -114 -593t-364 -190q-248 0 -360.5 190t-112.5 593zM250 1874q0 51 37 88t90 37q51 0 88 -37t37 -88q0 -53 -37 -90t-88 -37q-53 0 -90 37t-37 90zM307 752q0 -166 14.5 -289t50.5 -205t94 -123 t146 -41t147.5 41t95.5 123t50.5 205t14.5 289t-14.5 289.5t-50.5 205.5t-95.5 123t-147.5 41t-146 -41t-94 -123t-50.5 -205.5t-14.5 -289.5zM731 1874q0 51 37 88t90 37q51 0 88 -37t37 -88q0 -53 -37 -90t-88 -37q-53 0 -90 37t-37 90z" />
<glyph unicode="&#xd7;" d="M250 358l270 271l-270 270l94 92l268 -270l273 272l92 -94l-270 -270l270 -271l-92 -94l-273 273l-268 -271z" />
<glyph unicode="&#xd8;" d="M139 752q0 406 113 595t360 189q104 0 205 -39l25 72h139l-57 -156q86 -98 126 -262t40 -399q0 -403 -114 -593t-364 -190q-100 0 -206 39l-25 -71h-137l55 151q-84 98 -122 262t-38 402zM307 752q0 -137 12.5 -256t45.5 -230l401 1096q-72 49 -154 49q-88 0 -146 -41 t-94 -123t-50.5 -205.5t-14.5 -289.5zM461 141q70 -47 151 -47q88 0 147.5 41t95.5 123t50.5 205t14.5 289q0 137 -12.5 257.5t-43.5 229.5z" />
<glyph unicode="&#xd9;" d="M174 432v1073h148v-1073q0 -96 27.5 -160.5t69.5 -104.5t94 -56.5t101 -16.5q47 0 99.5 16.5t95.5 56.5t70.5 104.5t27.5 160.5v1073h148v-1073q0 -139 -41 -228t-105.5 -141.5t-142.5 -73t-152 -20.5t-152.5 20.5t-142 73t-104.5 141.5t-41 228zM358 1966h226l237 -342 h-143z" />
<glyph unicode="&#xda;" d="M174 432v1073h148v-1073q0 -96 27.5 -160.5t69.5 -104.5t94 -56.5t101 -16.5q47 0 99.5 16.5t95.5 56.5t70.5 104.5t27.5 160.5v1073h148v-1073q0 -139 -41 -228t-105.5 -141.5t-142.5 -73t-152 -20.5t-152.5 20.5t-142 73t-104.5 141.5t-41 228zM412 1624l237 342h228 l-320 -342h-145z" />
<glyph unicode="&#xdb;" d="M174 432v1073h148v-1073q0 -96 27.5 -160.5t69.5 -104.5t94 -56.5t101 -16.5q47 0 99.5 16.5t95.5 56.5t70.5 104.5t27.5 160.5v1073h148v-1073q0 -139 -41 -228t-105.5 -141.5t-142.5 -73t-152 -20.5t-152.5 20.5t-142 73t-104.5 141.5t-41 228zM281 1624l237 342h197 l239 -342h-125l-213 234l-210 -234h-125z" />
<glyph unicode="&#xdc;" d="M174 432v1073h148v-1073q0 -96 27.5 -160.5t69.5 -104.5t94 -56.5t101 -16.5q47 0 99.5 16.5t95.5 56.5t70.5 104.5t27.5 160.5v1073h148v-1073q0 -139 -41 -228t-105.5 -141.5t-142.5 -73t-152 -20.5t-152.5 20.5t-142 73t-104.5 141.5t-41 228zM250 1874q0 51 37 88 t90 37q51 0 88 -37t37 -88q0 -53 -37 -90t-88 -37q-53 0 -90 37t-37 90zM731 1874q0 51 37 88t90 37q51 0 88 -37t37 -88q0 -53 -37 -90t-88 -37q-53 0 -90 37t-37 90z" />
<glyph unicode="&#xdd;" d="M205 1505h149l258 -635l262 635h150l-338 -807v-698h-147v698zM412 1624l237 342h228l-320 -342h-145z" />
<glyph unicode="&#xde;" d="M203 0v1505h147v-307h191q250 0 383 -116.5t133 -321.5t-133 -320.5t-383 -115.5h-191v-324h-147zM350 451h191q113 0 181.5 27.5t105 71.5t49 99.5t12.5 110.5q0 63 -12.5 120.5t-49 99.5t-105.5 66.5t-181 24.5h-191v-620z" />
<glyph unicode="&#xdf;" d="M131 -123v1143q0 102 18.5 194.5t70.5 161t145.5 108.5t242.5 40q102 0 186.5 -24.5t144.5 -74t93 -124t33 -177.5q0 -117 -50 -201.5t-149 -142.5q129 -63 185.5 -150t56.5 -202q0 -207 -131 -317.5t-369 -110.5h-149v127h149q98 0 162 22.5t100.5 62.5t51 95t14.5 121 q0 55 -14.5 109.5t-51 95.5t-100 66.5t-162.5 25.5h-149v127h149q82 0 136.5 21.5t87 58.5t47 86t14.5 106q0 131 -78 202t-207 71q-113 0 -178 -35t-98 -90t-42 -122t-9 -130v-1143h-150z" />
<glyph unicode="&#xe0;" d="M188 262q0 76 28 129t79 88t125 56.5t164 35.5l284 45v54q0 82 -19.5 136t-55 86t-86 45t-111.5 13q-35 0 -73 -12t-70.5 -34.5t-56 -55.5t-29.5 -74h-148q4 76 39 132.5t88 94t118.5 56t131.5 18.5q76 0 150.5 -13t134 -57t96.5 -126t37 -220v-659h-70l-76 94 q-37 -35 -78.5 -58.5t-84.5 -37.5t-84 -21.5t-76 -7.5q-66 0 -130.5 14.5t-114.5 48.5t-81 90t-31 140zM348 262q0 -72 44 -120t157 -48q27 0 64.5 5t81.5 20.5t89 46.5t84 82v246l-284 -45q-78 -12 -124 -30t-70.5 -40.5t-33 -51t-8.5 -65.5zM397 1505h226l237 -342h-143z " />
<glyph unicode="&#xe1;" d="M188 262q0 76 28 129t79 88t125 56.5t164 35.5l284 45v54q0 82 -19.5 136t-55 86t-86 45t-111.5 13q-35 0 -73 -12t-70.5 -34.5t-56 -55.5t-29.5 -74h-148q4 76 39 132.5t88 94t118.5 56t131.5 18.5q76 0 150.5 -13t134 -57t96.5 -126t37 -220v-659h-70l-76 94 q-37 -35 -78.5 -58.5t-84.5 -37.5t-84 -21.5t-76 -7.5q-66 0 -130.5 14.5t-114.5 48.5t-81 90t-31 140zM348 262q0 -72 44 -120t157 -48q27 0 64.5 5t81.5 20.5t89 46.5t84 82v246l-284 -45q-78 -12 -124 -30t-70.5 -40.5t-33 -51t-8.5 -65.5zM410 1163l237 342h227 l-319 -342h-145z" />
<glyph unicode="&#xe2;" d="M188 262q0 76 28 129t79 88t125 56.5t164 35.5l284 45v54q0 82 -19.5 136t-55 86t-86 45t-111.5 13q-35 0 -73 -12t-70.5 -34.5t-56 -55.5t-29.5 -74h-148q4 76 39 132.5t88 94t118.5 56t131.5 18.5q76 0 150.5 -13t134 -57t96.5 -126t37 -220v-659h-70l-76 94 q-37 -35 -78.5 -58.5t-84.5 -37.5t-84 -21.5t-76 -7.5q-66 0 -130.5 14.5t-114.5 48.5t-81 90t-31 140zM285 1163l237 342h197l239 -342h-124l-213 234l-211 -234h-125zM348 262q0 -72 44 -120t157 -48q27 0 64.5 5t81.5 20.5t89 46.5t84 82v246l-284 -45q-78 -12 -124 -30 t-70.5 -40.5t-33 -51t-8.5 -65.5z" />
<glyph unicode="&#xe3;" d="M188 262q0 76 28 129t79 88t125 56.5t164 35.5l284 45v54q0 82 -19.5 136t-55 86t-86 45t-111.5 13q-35 0 -73 -12t-70.5 -34.5t-56 -55.5t-29.5 -74h-148q4 76 39 132.5t88 94t118.5 56t131.5 18.5q76 0 150.5 -13t134 -57t96.5 -126t37 -220v-659h-70l-76 94 q-37 -35 -78.5 -58.5t-84.5 -37.5t-84 -21.5t-76 -7.5q-66 0 -130.5 14.5t-114.5 48.5t-81 90t-31 140zM307 1262q4 31 16.5 67.5t32 70.5t48 56.5t63.5 22.5q43 0 89 -15.5t77 -31.5q29 -14 65.5 -25.5t65.5 -11.5q33 0 55.5 9t34.5 22.5t17.5 27.5t7.5 25h45 q-4 -31 -17.5 -69t-33 -70.5t-47 -55t-62.5 -22.5q-39 0 -88 14t-78 31q-29 16 -66.5 26t-64.5 10q-35 0 -56.5 -9t-33.5 -21.5t-18.5 -26.5t-8.5 -24h-43zM348 262q0 -72 44 -120t157 -48q27 0 64.5 5t81.5 20.5t89 46.5t84 82v246l-284 -45q-78 -12 -124 -30t-70.5 -40.5 t-33 -51t-8.5 -65.5z" />
<glyph unicode="&#xe4;" d="M188 262q0 76 28 129t79 88t125 56.5t164 35.5l284 45v54q0 82 -19.5 136t-55 86t-86 45t-111.5 13q-35 0 -73 -12t-70.5 -34.5t-56 -55.5t-29.5 -74h-148q4 76 39 132.5t88 94t118.5 56t131.5 18.5q76 0 150.5 -13t134 -57t96.5 -126t37 -220v-659h-70l-76 94 q-37 -35 -78.5 -58.5t-84.5 -37.5t-84 -21.5t-76 -7.5q-66 0 -130.5 14.5t-114.5 48.5t-81 90t-31 140zM248 1413q0 51 37 88t90 37q51 0 88 -37t37 -88q0 -53 -37 -90t-88 -37q-53 0 -90 37t-37 90zM348 262q0 -72 44 -120t157 -48q27 0 64.5 5t81.5 20.5t89 46.5t84 82 v246l-284 -45q-78 -12 -124 -30t-70.5 -40.5t-33 -51t-8.5 -65.5zM729 1413q0 51 37 88t90 37q51 0 88 -37t37 -88q0 -53 -37 -90t-88 -37q-53 0 -90 37t-37 90z" />
<glyph unicode="&#xe5;" d="M188 262q0 76 28 129t79 88t125 56.5t164 35.5l284 45v54q0 82 -19.5 136t-55 86t-86 45t-111.5 13q-35 0 -73 -12t-70.5 -34.5t-56 -55.5t-29.5 -74h-148q4 76 39 132.5t88 94t118.5 56t131.5 18.5q76 0 150.5 -13t134 -57t96.5 -126t37 -220v-659h-70l-76 94 q-37 -35 -78.5 -58.5t-84.5 -37.5t-84 -21.5t-76 -7.5q-66 0 -130.5 14.5t-114.5 48.5t-81 90t-31 140zM348 262q0 -72 44 -120t157 -48q27 0 64.5 5t81.5 20.5t89 46.5t84 82v246l-284 -45q-78 -12 -124 -30t-70.5 -40.5t-33 -51t-8.5 -65.5zM389 1393q0 45 17.5 87 t48 72.5t71.5 49t88 18.5q45 0 86 -18.5t72 -49t49.5 -72.5t18.5 -87q0 -47 -18.5 -88t-49.5 -72t-72 -49.5t-86 -18.5q-47 0 -88 18.5t-71.5 49.5t-48 72t-17.5 88zM496 1393q0 -51 34.5 -85t83.5 -34q51 0 85 33.5t34 85.5q0 49 -33.5 84.5t-85.5 35.5q-49 0 -83.5 -35.5 t-34.5 -84.5z" />
<glyph unicode="&#xe6;" d="M-61 262q0 96 42 155.5t115.5 93.5t174 50.5t216.5 28.5v39q0 90 -4 151.5t-23.5 99.5t-60.5 54t-112 16q-70 0 -124 -39t-63 -123h-147q4 78 31.5 133.5t72.5 89t103.5 49t126.5 15.5q49 0 94 -7t85 -24.5t73 -49.5t53 -81q27 53 63.5 85t79.5 49.5t89 22.5t91 5 q92 0 157 -26.5t106 -71.5t64.5 -103.5t33.5 -122t12 -128t2 -119.5v-35h-641q12 -193 71.5 -284t194.5 -91q55 0 91 14.5t57.5 35t32 43t14.5 36.5h156q-33 -72 -82 -127q-43 -47 -108.5 -87t-160.5 -40q-37 0 -85 10.5t-95 35t-86 65.5t-57 100q-80 -211 -336 -211 q-57 0 -114.5 14.5t-102.5 48.5t-72.5 90t-27.5 140zM100 262q0 -86 42 -127t141 -41q74 0 128 39t76 137v213q-96 -6 -168.5 -19t-120.5 -39t-73 -64.5t-25 -98.5zM651 596h482q0 59 -4.5 122.5t-25 115t-64.5 84t-124 32.5q-129 0 -188 -86t-76 -268z" />
<glyph unicode="&#xe7;" d="M205 522q0 154 37 260.5t99 171t143 93t169 28.5q96 0 166 -30.5t116 -76.5t67.5 -100.5t21.5 -99.5h-147q0 29 -13.5 60.5t-41 59t-69.5 45t-100 17.5q-66 0 -120 -21.5t-94 -72.5t-62.5 -133t-22.5 -201q0 -121 22.5 -201.5t62.5 -132t94.5 -73t119.5 -21.5 q57 0 99.5 17.5t70 45t41 59.5t13.5 60h147q0 -45 -21.5 -98t-67.5 -99t-115.5 -78t-164.5 -32v-78h23q47 0 83 -17t59.5 -44t35.5 -60.5t12 -66.5q0 -82 -59 -139.5t-156 -57.5q-86 0 -135 45.5t-55 110.5h78q6 -41 39.5 -59.5t72.5 -18.5q45 0 80 30t35 89t-30.5 91 t-84.5 32h-90v151q-74 12 -139.5 48t-113.5 102t-76.5 163t-28.5 232z" />
<glyph unicode="&#xe8;" d="M205 522q0 154 37 260.5t99 171t144 93t172 28.5q131 0 210 -58.5t121 -144.5t55.5 -185t13.5 -183v-35h-701q10 -205 89 -290t212 -85q55 0 96.5 17.5t69 45t41 59.5t13.5 60h147q0 -45 -22.5 -99t-67.5 -100t-113.5 -77t-163.5 -31q-88 0 -169.5 28t-144 92.5 t-100.5 170t-38 262.5zM356 596h543q0 59 -11 122.5t-39 115t-75 84t-117 32.5q-141 0 -212.5 -86t-88.5 -268zM371 1505h225l238 -342h-144z" />
<glyph unicode="&#xe9;" d="M205 522q0 154 37 260.5t99 171t144 93t172 28.5q131 0 210 -58.5t121 -144.5t55.5 -185t13.5 -183v-35h-701q10 -205 89 -290t212 -85q55 0 96.5 17.5t69 45t41 59.5t13.5 60h147q0 -45 -22.5 -99t-67.5 -100t-113.5 -77t-163.5 -31q-88 0 -169.5 28t-144 92.5 t-100.5 170t-38 262.5zM356 596h543q0 59 -11 122.5t-39 115t-75 84t-117 32.5q-141 0 -212.5 -86t-88.5 -268zM471 1163l238 342h227l-320 -342h-145z" />
<glyph unicode="&#xea;" d="M205 522q0 154 37 260.5t99 171t144 93t172 28.5q131 0 210 -58.5t121 -144.5t55.5 -185t13.5 -183v-35h-701q10 -205 89 -290t212 -85q55 0 96.5 17.5t69 45t41 59.5t13.5 60h147q0 -45 -22.5 -99t-67.5 -100t-113.5 -77t-163.5 -31q-88 0 -169.5 28t-144 92.5 t-100.5 170t-38 262.5zM311 1163l238 342h196l240 -342h-125l-213 234l-211 -234h-125zM356 596h543q0 59 -11 122.5t-39 115t-75 84t-117 32.5q-141 0 -212.5 -86t-88.5 -268z" />
<glyph unicode="&#xeb;" d="M205 522q0 154 37 260.5t99 171t144 93t172 28.5q131 0 210 -58.5t121 -144.5t55.5 -185t13.5 -183v-35h-701q10 -205 89 -290t212 -85q55 0 96.5 17.5t69 45t41 59.5t13.5 60h147q0 -45 -22.5 -99t-67.5 -100t-113.5 -77t-163.5 -31q-88 0 -169.5 28t-144 92.5 t-100.5 170t-38 262.5zM279 1413q0 51 36.5 88t90.5 37q51 0 87.5 -37t36.5 -88q0 -53 -36.5 -90t-87.5 -37q-53 0 -90 37t-37 90zM356 596h543q0 59 -11 122.5t-39 115t-75 84t-117 32.5q-141 0 -212.5 -86t-88.5 -268zM760 1413q0 51 37 88t90 37q51 0 88 -37t37 -88 q0 -53 -37 -90t-88 -37q-53 0 -90 37t-37 90z" />
<glyph unicode="&#xec;" d="M256 0v117h295v764l-232 63v100h381v-927h273v-117h-717zM319 1505h226l237 -342h-143z" />
<glyph unicode="&#xed;" d="M256 0v117h295v764l-232 63v100h381v-927h273v-117h-717zM383 1163l238 342h227l-320 -342h-145z" />
<glyph unicode="&#xee;" d="M250 1163l237 342h197l240 -342h-125l-213 234l-211 -234h-125zM256 0v117h295v764l-232 63v100h381v-927h273v-117h-717z" />
<glyph unicode="&#xef;" d="M248 1413q0 51 37 88t90 37q51 0 88 -37t37 -88q0 -53 -37 -90t-88 -37q-53 0 -90 37t-37 90zM258 0v117h293v764l-229 63v100h378v-927h275v-117h-717zM729 1413q0 51 37 88t90 37q51 0 88 -37t37 -88q0 -53 -37 -90t-88 -37q-53 0 -90 37t-37 90z" />
<glyph unicode="&#xf0;" d="M145 522q0 154 37 260.5t99.5 171t143.5 93t167 28.5q23 0 44 -2t44 -6l-84 141h-217v117h145l-108 180h164l108 -180h182v-117h-110l192 -319q43 -72 65.5 -158t22.5 -209q0 -154 -36.5 -260t-99 -170.5t-143.5 -93.5t-169 -29q-86 0 -167 29t-143.5 93.5t-99.5 171 t-37 259.5zM295 522q0 -221 74.5 -324.5t222.5 -103.5q147 0 223 103.5t76 324.5t-76 324.5t-223 103.5t-222 -103.5t-75 -324.5z" />
<glyph unicode="&#xf1;" d="M205 0v1044h69l76 -88q37 33 82 60q39 23 91 41t112 18q86 0 157.5 -19.5t123 -62.5t80 -113.5t28.5 -174.5v-705h-145v674q0 125 -53.5 200.5t-190.5 75.5q-66 0 -119 -23.5t-90 -52.5q-43 -35 -76 -75v-799h-145zM307 1262q4 31 16.5 67.5t32 70.5t48 56.5t63.5 22.5 q43 0 89 -15.5t77 -31.5q29 -14 65.5 -25.5t65.5 -11.5q33 0 55.5 9t34.5 22.5t17.5 27.5t7.5 25h45q-4 -31 -17.5 -69t-33 -70.5t-47 -55t-62.5 -22.5q-39 0 -88 14t-78 31q-29 16 -66.5 26t-64.5 10q-35 0 -56.5 -9t-33.5 -21.5t-18.5 -26.5t-8.5 -24h-43z" />
<glyph unicode="&#xf2;" d="M166 522q0 154 37 260.5t99.5 171t143 93t166.5 28.5q88 0 169 -28.5t143.5 -93t99.5 -171t37 -260.5t-37 -260t-99.5 -170.5t-143.5 -93.5t-169 -29q-86 0 -166.5 29t-143 93.5t-99.5 171t-37 259.5zM315 522q0 -221 75 -324.5t222 -103.5t223 103.5t76 324.5t-76 324.5 t-223 103.5t-222 -103.5t-75 -324.5zM354 1505h226l237 -342h-143z" />
<glyph unicode="&#xf3;" d="M166 522q0 154 37 260.5t99.5 171t143 93t166.5 28.5q88 0 169 -28.5t143.5 -93t99.5 -171t37 -260.5t-37 -260t-99.5 -170.5t-143.5 -93.5t-169 -29q-86 0 -166.5 29t-143 93.5t-99.5 171t-37 259.5zM315 522q0 -221 75 -324.5t222 -103.5t223 103.5t76 324.5t-76 324.5 t-223 103.5t-222 -103.5t-75 -324.5zM408 1163l237 342h227l-319 -342h-145z" />
<glyph unicode="&#xf4;" d="M166 522q0 154 37 260.5t99.5 171t143 93t166.5 28.5q88 0 169 -28.5t143.5 -93t99.5 -171t37 -260.5t-37 -260t-99.5 -170.5t-143.5 -93.5t-169 -29q-86 0 -166.5 29t-143 93.5t-99.5 171t-37 259.5zM276 1163l238 342h197l239 -342h-125l-213 234l-211 -234h-125z M315 522q0 -221 75 -324.5t222 -103.5t223 103.5t76 324.5t-76 324.5t-223 103.5t-222 -103.5t-75 -324.5z" />
<glyph unicode="&#xf5;" d="M166 522q0 154 37 260.5t99.5 171t143 93t166.5 28.5q88 0 169 -28.5t143.5 -93t99.5 -171t37 -260.5t-37 -260t-99.5 -170.5t-143.5 -93.5t-169 -29q-86 0 -166.5 29t-143 93.5t-99.5 171t-37 259.5zM305 1262q4 31 16.5 67.5t32 70.5t48 56.5t63.5 22.5q43 0 89 -15.5 t77 -31.5q29 -14 65.5 -25.5t65.5 -11.5q33 0 55.5 9t34.5 22.5t17 27.5t8 25h45q-4 -31 -17.5 -69t-33 -70.5t-47 -55t-62.5 -22.5q-39 0 -88 14t-78 31q-29 16 -66.5 26t-64.5 10q-35 0 -56.5 -9t-34 -21.5t-18.5 -26.5t-8 -24h-43zM315 522q0 -221 75 -324.5t222 -103.5 t223 103.5t76 324.5t-76 324.5t-223 103.5t-222 -103.5t-75 -324.5z" />
<glyph unicode="&#xf6;" d="M166 522q0 154 37 260.5t99.5 171t143 93t166.5 28.5q88 0 169 -28.5t143.5 -93t99.5 -171t37 -260.5t-37 -260t-99.5 -170.5t-143.5 -93.5t-169 -29q-86 0 -166.5 29t-143 93.5t-99.5 171t-37 259.5zM246 1413q0 51 36.5 88t90.5 37q51 0 88 -37t37 -88q0 -53 -37 -90 t-88 -37q-53 0 -90 37t-37 90zM315 522q0 -221 75 -324.5t222 -103.5t223 103.5t76 324.5t-76 324.5t-223 103.5t-222 -103.5t-75 -324.5zM727 1413q0 51 37 88t90 37q51 0 88 -37t37 -88q0 -53 -37 -90t-88 -37q-53 0 -90 37t-37 90z" />
<glyph unicode="&#xf7;" d="M166 567v127h895v-127h-895zM506 109v262h217v-262h-217zM506 891v262h217v-262h-217z" />
<glyph unicode="&#xf8;" d="M199 522q0 154 32.5 260.5t89 172t132 94t161.5 28.5q43 0 86 -8t84 -22l21 51h123l-49 -113q70 -68 110.5 -181.5t40.5 -281.5q0 -154 -32.5 -260t-89 -171.5t-132.5 -94.5t-162 -29q-31 0 -67.5 7.5t-79.5 19.5q-2 -6 -7 -21.5t-9 -25.5h-119l37 96q-78 66 -124 182.5 t-46 296.5zM328 522q0 -100 23.5 -189t70.5 -161l311 758q-29 10 -58.5 15t-60.5 5q-147 0 -216.5 -103.5t-69.5 -324.5zM516 109q55 -15 98 -15q145 0 217 117t72 311q0 188 -78 332z" />
<glyph unicode="&#xf9;" d="M205 340v704h145v-673q0 -61 12.5 -112.5t41 -88.5t74.5 -56.5t116 -19.5q66 0 119 23.5t90 52.5q43 33 76 76v798h145v-1044h-70l-75 88q-37 -35 -82 -59q-39 -23 -91.5 -41.5t-111.5 -18.5q-86 0 -157.5 19.5t-123 62.5t-80 114t-28.5 175zM356 1505h226l237 -342h-143 z" />
<glyph unicode="&#xfa;" d="M205 340v704h145v-673q0 -61 12.5 -112.5t41 -88.5t74.5 -56.5t116 -19.5q66 0 119 23.5t90 52.5q43 33 76 76v798h145v-1044h-70l-75 88q-37 -35 -82 -59q-39 -23 -91.5 -41.5t-111.5 -18.5q-86 0 -157.5 19.5t-123 62.5t-80 114t-28.5 175zM410 1163l237 342h227 l-319 -342h-145z" />
<glyph unicode="&#xfb;" d="M205 340v704h145v-673q0 -61 12.5 -112.5t41 -88.5t74.5 -56.5t116 -19.5q66 0 119 23.5t90 52.5q43 33 76 76v798h145v-1044h-70l-75 88q-37 -35 -82 -59q-39 -23 -91.5 -41.5t-111.5 -18.5q-86 0 -157.5 19.5t-123 62.5t-80 114t-28.5 175zM279 1163l237 342h197 l239 -342h-125l-213 234l-211 -234h-124z" />
<glyph unicode="&#xfc;" d="M205 340v704h145v-673q0 -61 12.5 -112.5t41 -88.5t74.5 -56.5t116 -19.5q66 0 119 23.5t90 52.5q43 33 76 76v798h145v-1044h-70l-75 88q-37 -35 -82 -59q-39 -23 -91.5 -41.5t-111.5 -18.5q-86 0 -157.5 19.5t-123 62.5t-80 114t-28.5 175zM248 1413q0 51 37 88t90 37 q51 0 88 -37t37 -88q0 -53 -37 -90t-88 -37q-53 0 -90 37t-37 90zM729 1413q0 51 37 88t90 37q51 0 88 -37t37 -88q0 -53 -37 -90t-88 -37q-53 0 -90 37t-37 90z" />
<glyph unicode="&#xfd;" d="M125 1044h164l332 -921l337 921h160l-401 -1046q-51 -135 -96.5 -211t-89.5 -112.5t-87 -45t-92 -8.5q-41 0 -64.5 5t-51.5 12v120q29 -4 52 -8t64 -4q35 0 61.5 6t51 30.5t51.5 76t59 141.5h-55zM416 1163l237 342h228l-320 -342h-145z" />
<glyph unicode="&#xfe;" d="M184 -381v1937h146v-598q27 33 63 58q33 23 82 41t121 18q86 0 167 -28.5t143.5 -93t100 -171t37.5 -260.5t-36.5 -260t-99 -170.5t-143.5 -93.5t-167 -29q-66 0 -115 17.5t-84 40.5q-39 25 -69 59v-467h-146zM330 260q20 -47 51 -78.5t67.5 -51t74.5 -28t73 -8.5 q152 0 225.5 104.5t73.5 323.5q0 92 -18.5 171t-55.5 135.5t-93 89t-132 32.5q-78 0 -128 -29.5t-81 -64.5q-37 -41 -57 -92v-504z" />
<glyph unicode="&#xff;" d="M125 1044h164l332 -921l337 921h160l-401 -1046q-51 -135 -96.5 -211t-89.5 -112.5t-87 -45t-92 -8.5q-41 0 -64.5 5t-51.5 12v120q29 -4 52 -8t64 -4q35 0 61.5 6t51 30.5t51.5 76t59 141.5h-55zM254 1413q0 51 37 88t90 37q51 0 88 -37t37 -88q0 -53 -37 -90t-88 -37 q-53 0 -90 37t-37 90zM735 1413q0 51 37 88t90 37q51 0 88 -37t37 -88q0 -53 -37 -90t-88 -37q-53 0 -90 37t-37 90z" />
<glyph unicode="&#x152;" d="M-92 752q0 203 24.5 350t77.5 243.5t140.5 143.5t209.5 47q86 0 157 -24.5t112 -81.5v75h651v-127h-504v-534h314v-127h-314v-590h504v-127h-651v76q-41 -57 -112 -82t-157 -25q-123 0 -210 47t-140 143.5t-77.5 244t-24.5 348.5zM76 752q0 -166 11 -289t43 -205t87 -123 t143 -41q123 0 196 72t73 201v770q0 129 -73 201.5t-196 72.5q-88 0 -143 -41t-87 -123t-43 -205.5t-11 -289.5z" />
<glyph unicode="&#x153;" d="M-74 522q0 154 28 260.5t76 171t113.5 93t143.5 28.5q104 0 190 -52t123 -173q12 45 38 86t65.5 71.5t92 49t119.5 18.5q104 0 174 -45t111 -119.5t57.5 -171t16.5 -200.5v-70h-604q10 -193 77.5 -284t167.5 -91q66 0 109 36t66 93h145q-16 -45 -40 -90t-60.5 -82 t-90 -59.5t-129.5 -22.5q-111 0 -185.5 42t-129.5 163q-53 -121 -131 -163t-182 -42q-78 0 -143.5 29t-113.5 93.5t-76 171t-28 259.5zM63 522q0 -96 12.5 -175t40 -135t69.5 -87t102 -31q115 0 180 114t65 314q0 225 -65 326.5t-180 101.5q-119 0 -171.5 -103.5 t-52.5 -324.5zM670 596h467v51q0 141 -62 222t-160 81q-104 0 -170.5 -86t-74.5 -268z" />
<glyph unicode="&#x178;" d="M205 1505h149l258 -635l262 635h150l-338 -807v-698h-147v698zM250 1874q0 51 37 88t90 37q51 0 88 -37t37 -88q0 -53 -37 -90t-88 -37q-53 0 -90 37t-37 90zM731 1874q0 51 37 88t90 37q51 0 88 -37t37 -88q0 -53 -37 -90t-88 -37q-53 0 -90 37t-37 90z" />
<glyph unicode="&#x2c6;" d="M276 1163l238 342h197l239 -342h-125l-213 234l-211 -234h-125z" />
<glyph unicode="&#x2dc;" d="M305 1262q4 31 16.5 67.5t32 70.5t48 56.5t63.5 22.5q43 0 89 -15.5t77 -31.5q29 -14 65.5 -25.5t65.5 -11.5q33 0 55.5 9t34.5 22.5t17 27.5t8 25h45q-4 -31 -17.5 -69t-33 -70.5t-47 -55t-62.5 -22.5q-39 0 -88 14t-78 31q-29 16 -66.5 26t-64.5 10q-35 0 -56.5 -9 t-34 -21.5t-18.5 -26.5t-8 -24h-43z" />
<glyph unicode="&#x2000;" horiz-adv-x="1040" />
<glyph unicode="&#x2001;" horiz-adv-x="2081" />
<glyph unicode="&#x2002;" horiz-adv-x="1040" />
<glyph unicode="&#x2003;" horiz-adv-x="2081" />
<glyph unicode="&#x2004;" horiz-adv-x="693" />
<glyph unicode="&#x2005;" horiz-adv-x="520" />
<glyph unicode="&#x2006;" horiz-adv-x="346" />
<glyph unicode="&#x2007;" horiz-adv-x="346" />
<glyph unicode="&#x2008;" horiz-adv-x="260" />
<glyph unicode="&#x2009;" horiz-adv-x="416" />
<glyph unicode="&#x200a;" horiz-adv-x="115" />
<glyph unicode="&#x2010;" d="M295 487v127h639v-127h-639z" />
<glyph unicode="&#x2011;" d="M295 487v127h639v-127h-639z" />
<glyph unicode="&#x2012;" d="M295 487v127h639v-127h-639z" />
<glyph unicode="&#x2013;" d="M158 487v127h913v-127h-913z" />
<glyph unicode="&#x2014;" d="M18 487v127h1192v-127h-1192z" />
<glyph unicode="&#x2018;" d="M553 1001v263q0 129 76 204.5t211 75.5v-92q-47 0 -80 -15.5t-52.5 -41t-27.5 -59t-8 -72.5h98v-263h-217z" />
<glyph unicode="&#x2019;" d="M389 981v92q94 0 131 55.5t37 133.5h-98v262h217v-262q0 -129 -76 -205t-211 -76z" />
<glyph unicode="&#x201a;" d="M389 1157v92q94 0 131 55.5t37 133.5h-98v262h217v-262q0 -129 -76 -205t-211 -76z" />
<glyph unicode="&#x201c;" d="M317 1044v263q0 129 76 204.5t211 75.5v-92q-47 0 -79.5 -15.5t-52 -41t-28 -59t-8.5 -72.5h99v-263h-218zM786 1044v263q0 129 76 204.5t211 75.5v-92q-47 0 -79.5 -15.5t-52 -41t-28 -59t-8.5 -72.5h99v-263h-218z" />
<glyph unicode="&#x201d;" d="M154 1014v92q94 0 131 55.5t37 132.5h-99v262h217v-262q0 -129 -75.5 -204.5t-210.5 -75.5zM623 1014v92q94 0 131 55.5t37 132.5h-99v262h217v-262q0 -129 -75.5 -204.5t-210.5 -75.5z" />
<glyph unicode="&#x201e;" d="M154 1014v92q94 0 131 55.5t37 132.5h-99v262h217v-262q0 -129 -75.5 -204.5t-210.5 -75.5zM623 1014v92q94 0 131 55.5t37 132.5h-99v262h217v-262q0 -129 -75.5 -204.5t-210.5 -75.5z" />
<glyph unicode="&#x2022;" d="M362 559q0 51 19.5 97t54.5 80t80 54.5t98 20.5q51 0 97.5 -20.5t81 -54.5t54 -80t19.5 -97q0 -53 -19.5 -98t-54 -80t-80.5 -54.5t-98 -19.5q-53 0 -98 19.5t-80 54.5t-54.5 80t-19.5 98z" />
<glyph unicode="&#x2026;" d="M4 0v262h219v-262h-219zM506 0v262h217v-262h-217zM1008 0v262h217v-262h-217z" />
<glyph unicode="&#x202f;" horiz-adv-x="416" />
<glyph unicode="&#x2039;" d="M379 621l283 423h186l-285 -426l285 -425h-186z" />
<glyph unicode="&#x203a;" d="M379 193l283 425l-283 426h184l285 -426l-285 -425h-184z" />
<glyph unicode="&#x205f;" horiz-adv-x="520" />
<glyph unicode="&#x20ac;" d="M72 547v129h196v170h-196v129h204q29 299 142.5 440t329.5 141q178 0 278 -88t150 -254h-164q-31 96 -92.5 154.5t-171.5 58.5q-143 0 -213 -112.5t-91 -339.5h435v-129h-441v-170h441v-129h-435q20 -227 90 -339t214 -112q111 0 172 57.5t92 155.5h164 q-47 -164 -148.5 -253t-279.5 -89q-215 0 -328 140.5t-144 439.5h-204z" />
<glyph unicode="&#x2122;" d="M29 1407v117h493v-117h-182v-633h-129v633h-182zM598 774v750h125l178 -432l172 432h127v-750h-117v492l-149 -353h-70l-147 355v-494h-119z" />
<glyph unicode="&#x25fc;" horiz-adv-x="1044" d="M0 0v1044h1044v-1044h-1044z" />
<glyph unicode="&#xfb01;" d="M-94 918v126h284v111q0 135 29 219t78 131t116.5 64.5t145.5 17.5q35 0 69 -6t60 -12q31 -8 57 -17v-120q-27 6 -57 12q-27 4 -59.5 8t-69.5 4q-61 0 -104 -17.5t-69 -56.5t-38 -102t-12 -156v-80h655v-917h275v-127h-717v127h295v791h-508v-918h-146v918h-284z" />
<glyph unicode="&#xfb02;" d="M-86 918v126h285v111q0 135 28.5 219t77.5 131t116.5 64.5t145.5 17.5q94 0 173 -17.5t136.5 -64.5t90 -131t32.5 -219v-1028h275v-127h-717v127h295v791h-508v-918h-145v918h-285zM342 1044h508v80q0 92 -14.5 155.5t-47 102.5t-87 56.5t-134.5 17.5q-61 0 -104 -17.5 t-68.5 -56.5t-38 -102t-12.5 -156z" />
</font>
</defs>
</svg>
